<mxfile host="app.diagrams.net" modified="2024-06-07T01:31:59.597Z" agent="Mozilla/5.0 (Windows NT 10.0; Win64; x64) AppleWebKit/537.36 (KHTML, like Gecko) Chrome/125.0.0.0 Safari/537.36 Edg/125.0.0.0" etag="QYG0UUq3gu7wm3feQ250" version="24.4.14" type="github">
  <diagram name="PÃ¡gina-1" id="qXEGfPlkaAjEgGNaOMJY">
    <mxGraphModel dx="2055" dy="1046" grid="1" gridSize="10" guides="0" tooltips="1" connect="1" arrows="1" fold="1" page="0" pageScale="1" pageWidth="827" pageHeight="1169" math="0" shadow="0">
      <root>
        <mxCell id="0" />
        <mxCell id="1" parent="0" />
        <mxCell id="19GmccGls2YGJMeHXtrM-86" style="edgeStyle=orthogonalEdgeStyle;rounded=0;orthogonalLoop=1;jettySize=auto;html=1;entryX=0.5;entryY=1;entryDx=0;entryDy=0;dashed=1;" parent="1" source="19GmccGls2YGJMeHXtrM-26" target="19GmccGls2YGJMeHXtrM-40" edge="1">
          <mxGeometry relative="1" as="geometry">
            <Array as="points">
              <mxPoint x="413" y="510" />
              <mxPoint x="672" y="510" />
            </Array>
          </mxGeometry>
        </mxCell>
        <mxCell id="19GmccGls2YGJMeHXtrM-26" value="" style="rounded=1;whiteSpace=wrap;html=1;" parent="1" vertex="1">
          <mxGeometry x="298" y="381" width="229" height="111" as="geometry" />
        </mxCell>
        <mxCell id="19GmccGls2YGJMeHXtrM-1" value="&lt;font style=&quot;font-size: 10px;&quot;&gt;&lt;b&gt;Motor SQL SERVER&lt;/b&gt;&lt;/font&gt;" style="image;aspect=fixed;html=1;points=[];align=center;fontSize=12;image=img/lib/azure2/databases/SQL_Server.svg;" parent="1" vertex="1">
          <mxGeometry x="-66.35" y="101" width="58" height="58" as="geometry" />
        </mxCell>
        <mxCell id="LA22xVIdacMvbYcu_Xh9-8" style="edgeStyle=orthogonalEdgeStyle;rounded=0;orthogonalLoop=1;jettySize=auto;html=1;entryX=0;entryY=0.75;entryDx=0;entryDy=0;" parent="1" source="19GmccGls2YGJMeHXtrM-2" target="19GmccGls2YGJMeHXtrM-14" edge="1">
          <mxGeometry relative="1" as="geometry">
            <Array as="points">
              <mxPoint x="80" y="444" />
              <mxPoint x="80" y="344" />
            </Array>
          </mxGeometry>
        </mxCell>
        <mxCell id="19GmccGls2YGJMeHXtrM-2" value="&lt;font style=&quot;font-size: 10px;&quot;&gt;&lt;b&gt;.txt&lt;/b&gt;&lt;/font&gt;" style="image;aspect=fixed;html=1;points=[];align=center;fontSize=12;image=img/lib/azure2/general/File.svg;" parent="1" vertex="1">
          <mxGeometry x="-49.55" y="431" width="42.2" height="52" as="geometry" />
        </mxCell>
        <mxCell id="19GmccGls2YGJMeHXtrM-8" value="DWH" style="shape=image;verticalLabelPosition=bottom;labelBackgroundColor=default;verticalAlign=top;aspect=fixed;imageAspect=0;image=http://softwarenegotiation.com/wp-content/uploads/2018/07/teradata-backup.png;fontStyle=1;fontSize=10;strokeWidth=0;" parent="1" vertex="1">
          <mxGeometry x="499.66999999999996" y="267" width="94.4" height="83" as="geometry" />
        </mxCell>
        <mxCell id="19GmccGls2YGJMeHXtrM-11" value="" style="shape=image;verticalLabelPosition=bottom;labelBackgroundColor=default;verticalAlign=top;aspect=fixed;imageAspect=0;image=data:image/png,iVBORw0KGgoAAAANSUhEUgAAAOUAAADcCAMAAAC4YpZBAAAA4VBMVEX///82aZT/wzExZpL/0WP/9Nf/wi1njq7M2eP7/P3/xTX/xz0+b5n/+/H/3Yz/+u6huMz//ff/5qzh6O5Jd5+/zt3Z2dlubm51dXXu7u7/2oVfh6n19fVnZ2d8fHz/78b/1HG6urqNjY2GpL7/z1tfX1+wsLDT09OgoKDp6enAwMCVlpbKysqEhIT/+OXe5u1SfqP/ykh2l7WPq8P/8c7/5KP/yUf/7L7/02qYssixxdX/5ab/4Jb/2n6cnJxchayestVIdaM4b4toirnR2e6ou9aLpsdzlLvb4fS2xuCtueb54nqfAAAL9UlEQVR4nO2de3uquhLGrVUEpSpeoYI3LIoFxVurVu3Ze6/LWef7f6CTgFa0rQQIBN28f9XiWk9+ncnMJE5iIhErVqxYNyqGEUWxXC6PoWgo86dxuSyABwzp4fkXIwrlMV1dF1eyPM003g2jAmUYRiOTmcqzVXFdpcdlkblaVkYEgOuZnDEqd9+LNRrTWbFKl6/RqACRLsqNCnsB0IZaeZ+uquMrA2VEujg10Ag/VMnM6PL1cALG2btLxL33TtfXwgkY3ZrRZtDr4GTKxYZnRmjPikyLpCGcxNDTSxEVifP9P2XSGJfFVDN+DLnHNGaRxmTohm9GqIocYUyGzmCBjDamIPt31wPmKqohiKnaAs8925jKcsZzKDKqEU0odlOymRUNlyFV2SMnOx2T5vlSDG0D+l0VTFuA9OkRs7KOpDHF4tGUjaO/CV4xp5EMQOLsQMn+9dMWO8ZTb5TRnJnHafn3Pz9svxd/eou8lV9RDLM2yl/2yMH8MTxRsr+j6LK2EFu0W8FzrZCJOOVKsD8Yeyz7MlHMJUfK+5P67CTD3BJlhrb93p5h3FFG3GMr9ok59lrCR53SXhWUV15L+MhT3r3/2Vd445Xngj36lPfGzKzW11Pvi7HoU96xbKWRyXjfzLsOSgyKKYkppowpY8roKaa8HUpxVkEU4l8jkpTMuIqmFeIOSSQpYcsLihLVxv01UyKKjin/nZRcunWqeboQ0jiZstVp5k1FwwXlw6Z3qlQ7X5pzgROK42pxNs00wPLRm1AXnSZl4TFJnSk7WW6C5WTK1Rnsj7j3IzTIA2U2eS6KSqYW6eAgAaNxhzpKv/qWEoLmtq2HYBgZGjWhB04J1CsFEobEaiY0OyJQUpO3EX7IcjFMQzpTQkzsTisUK2EaEoEySfVeMYdazx+cB0iZpJYtrJDMOmR3RaJMZh9xTk2GzoTsrmiUyZcFxqn531+h+ysaJZXC57Piz78w73Zgo8xtsBmThL+iUWI0puj5I8gQKHN5TNmEjCnRKJPJJZ66nSFjSlTKlwUWY2Lr7Q2GMrvFkTOZ0Es7d5RUD0f8KctEGO/upgIaJRaXRd2Mwi4ZjRK4rP+FJjGHvTNb10dbJ0iQMv1HWRH3hzyoYtcmZduZsvfqm9Jz65VfGTTsGEqnKEfKif+JWUXcPcUt1gw+ideeI2Uyl/ddy5KalqzVnV+aOFNm234zpjgjsOaCalh9o5ucIySYmH7DD/ZPmBHFWoeDCs7BB0ddUCZV3lmmnCNMSxB+/AZZQjXB/swMh+KwoPp580tJJMRWZlbnO0K2hMptfFKuSVB+HEwsvSA4LNzK80kZ/jYsqAfkfV/+qO1YxFpq+6T03qrsHfJwYJhDNGWS8ks5CzuRVDJ/DqdRWik0S14bJVtprMaHxv7RFiXA4qBkwlxCs8a0OP44o/GAlEUwUXq1JetOFSMjF2nbfSkFdEj/lJ4OT8LOfHm2WhVRtV6v6bFgvxNm5AISA6XrdMkacrE6Nu9hQpbZuWYT12q7gAyfkm0Uab93L3HpTQ8xUZKhNFa037uIRq1Nz40hQ6dk/6kKZ//BA7oKhdFo/rppT3JJtGKADCUr0zY7cqN0q7TY5JH1uG23e5OXrEtEHJQu8iUrj22JoLV4TIEx51wom83Cviz3CpGSlT/OvnLp0rb3AofsZczhU6JXeOzxAO2o1J5kQwIMmfLjRgyutZ24DR+kKVE/u2TlfXR9KKU8xA/ClKir6Pe9vxbeeiEjQm19UiLuiLAzay1RWEwIQPreEUH7AOHeqJrv5kokIP3vbiHuVE4tU85JuGuSein5pBwj9YdUiuabC1tXRTY2St+7zmWUBea9YcYe7pWIvyap3twnpYiUMK0DLoRMmaRSfj/zYn4ipBJWNqflnIwpk7lH340F/zP+dnTYygrWPdyCkCkxNIn8cL6d595Yw3cWUHfCcVPi6CtwDj/7bJkm5LA4OvEQws99A1JyrRcykDj6fRBqvPsGTCRcyeVuDSaBaekfEqFv1KJ8IBV8MPXhObnsnjJPhhJPT6Xz4suiLJChpCZ+i1hL9LuDyxKlxNbr7BRlSVLiiT1QVQdjEqVs4zpu6tQHTJASzEpsB9ocjEmQEudBr/LlHgqClBgPQIGS/f3+QgQiRonTXxPwoNel4/ekKKncBu+Z4fKlBlJClBTe05cJeK3NhTqPDCWVe8R+ZwFT/f0tJhnKySaAixmYH1P2m3xCgJLK9oI4xw9PDcvftLCHTkklX7atgG4SYcYr40tzhksJr0tpB2NIS2J1+tU1IiFSUsncJPX4GiBjAl4Js54aFZb1RTlJedeyvXlNB3RNil1idSVPGycypq4o82nvGoVAeAA9u6mpan5rEyolhWtBGLzOLn+DQqb0+2EjUcWUZx7LoYk00VdCjj7tEpqCyvu+hEyZRWxYw7Q5h1fYqwLfJ/GCUEwZU8aU0VNMGVNaMm8TvXFKKtvbPm7PDljcHGVq0UqP0vPF0s55Y5TZw1YVN3+0Yd4WZXZ5bBZM21r5bovypO+zdbyg4LYoT5qSRvmI29L5VqUvlT25apJ7+5iZ0aT02B2bPbkE1tZJHE1Kjx57XZTcm0fKtxPKUrQ9NuG1p/Kkwyzq0SdRQL1E4UwTu8u2jvdsYbgaLQBxC4+to7ZtLHtVgKPtNQClvZ6Z2c6tZMKlbdkoi+/+W6wCxvR2Wi/bW8xHo1H6zV6tTyLpsAkXN9V8Uq63XC5PVl5RNSVsXfd+zgseira/jGbsMYXvzB7erizMeijhObU3CeYLK3AJYGLY5OqVojop9+JaW4+R9iAquwzqG1bwiUsv/Jlzkk9HeE5+qDDf9Dye5aeoyTbgPhd8ApxL13eegPdne/nX0TUYcq+CecmGi2tBKFAZtDeta7HjQdyo9fbYhvXM523zEx+FD3OT1HYRSr8SfpmX32y27VRvksuef/mYiZfNTSa95Tb/9joPsWEJv7hCOj1/LW3y2227vUylUtb3yKWWy3Z7+5jflF7hV+dFsyHEtbiHAlh0pOfzufWdgHOz36xQuA26WLFixYoVK1asr8SIfu/qvAbVBrsa6TEErw6v/xso624or865RdUcsitKVav1xdr5hbTRFaN1B+ZoXVGKmtrpd9TARoVboiJ13VMyfVXrKFdEOfBCmVAFtV8Tnd8Xqr6/mPsiJXOWQo+vGQbkV5wj9C1BU3a7wX4WCX1t72hqRxMSQkeXeKUDzGJSQj88PAdvGDw/K8NDjFGHg+fuTtGiBbeXMHxu8k2d57tDOL6h3rVMxmh8V2Vqel2S+LoiQMqO0tX5etOqDpj+M1/nwcuBSS10uk29q9fruhJBTEHh+YHWr2nPUlMD/qZIet98wAyfmir8G0jNzrDGAMq6DiynKbwE/w6A/6k77PeVpgQxwX+jd/q12rD5xGvRS5Y1MErT52q69Kx+ogQxtn6Yl9IAxhMR4CoA69mETYhDvt4R4b9WIBzwAGkXPWPWeDhmKIDRZy5RNq0HalfaMUy/Llk2E3ZSV030m/WO+RTSR5myxj+BKXWBch9j1YH0zIDQy++jUKfO922Ug2hTqs0n4LvOlAKkFLqSvg+uWlPSrodS0J/AxESl1D9gQBga3ipl90opPzx2ny8vUx6DTL8pXREliD6dC9FHOaEERXxzH32G/DVFn46ZG5Q6r1mvtUuUjFavW5mEUU4zSVQpBwIcLkiDYLSJDi9ZJZrY2VNKumm0E0oxASamVdrVuhJwgchTPtUHfVWtDaQ6LGRr3afmUAWvO7pJCY02VMVPlLDIUVRBUHd1WANFnlICJbcOinJeMT1TAxV3U9ebzaZJCYbN88+wKPqgVMwaTuw0QWELKv0uKHITfZ0/UNYjSVkfaIOPJQn8DVh5dHedmraPLyJ4DJ5pz5aHgte7DnRxsabofLPbMbeFVGVnBS1xuIvgogRGH0YUVPW4IAYv4dd0HSjBihg+s62QDz+BNwrHn89/iJKOMfZM+0xyG/qWUt2BpUfIgwlM31GKw/o+ntyCvqEEa39zUX0j+opSHQ5AOrmi7VRHCcPuJ0pNb3aV/vXs/yNIVD/hCLWaGsV8ECtWrFgh6v/xSdTOlRcbmAAAAABJRU5ErkJggg==;" parent="1" vertex="1">
          <mxGeometry x="159" y="193" width="70.78" height="68" as="geometry" />
        </mxCell>
        <mxCell id="19GmccGls2YGJMeHXtrM-14" value="" style="shape=image;verticalLabelPosition=bottom;labelBackgroundColor=default;verticalAlign=top;aspect=fixed;imageAspect=0;image=data:image/png,iVBORw0KGgoAAAANSUhEUgAAAT4AAACfCAMAAABX0UX9AAACRlBMVEX///9mwuMAAAD+61D3miNoxujpeCZpx+nNIzfMIzhDgJX29vZSnLbLIjlfttVYqMWKioo9c4f54eL/71FdsM5TU1PzkSTodCf1lSNoaGgPHCHfdHbgXSxCCxLVLTPppKbUIyveVS7HIj2ampr77OzlbCniYyvkaCrDIkHvu7zPAADYP0XcUC/w2krnkZTbTDC+IUbjhojbTlPm5ubUGSMuV2ZKjKRzc3PIyMjc3NzZRjL45E0AEBSlpaUjIyOjlzMbMzz1z9Dm0UeUiC49ChcyX28lR1NNk6y0tLWqIVlfESxmESXdX2PZQ0g8PDz//b/+7WRyaSS9rzvFQmGUkXDMu0A5MxGKKn0TBRBFFBFJHg4WKTD70aMcGQlnXSBMRxhJFkLtrrD87eL41MLzu5fwoWztkVDqfzHzmjv1qFn3u4Hvpn/ocAnxhwnwsJXohFvmcz72z8HhWBAwLyJRSgDojG99e17WzXdtZR3hennicFKvq4H/+5UnIADroZLq5K3okoXYORP4xJOCej7cfozPQ1bXW2nCvIbQZHvhj574ozkACBy9AD34rE1UUjz/+aFVNj7dxNW5eKWKGDWbPX+MAGnPqcLW0J2dllYmBg+lV46vc4bCUXd/ADJ3EGLOtr5PHkYpACFONChmJAChSBQfIzUwFgn2yrGFQBhxVFhCHSIcAwmlHTF0Eh/EvGpmEzepPSeFKBdeJj3Ej6U6LWo+IXMOACF/fppTQoJ+ap+nprxbPlx4HICmKWmzIVWMT5S34vKda6bOy2lJAAATXklEQVR4nO2cj18TZ57HkwfSIAMkJEQFKyDE1sAGhQAhJpBfEtBiMLED21ISwa1Ui7arrtUqtd4pRURdUOmW7t2227Xennpud/dur3futvuf3fNz5plkBgGT1n3d8369NJN5MpOZz3x/Pd+ZYDIJBAKBQCAQCAQCgUAgEAgEAoFAIBAIBAKBQCAQCAQCgUAgEAgEAoFAIBAIBAKBQCAQCAqAFGBLbgdBHXNoPulwuNmSW13p5rbUbPz/g2bQQ5cm6glDHraiM6p8zN12sL6xvmNCgsuO1gZldUcb/L+9nnHwBzvuFwQA/HSpobPBg+hoIepIQy1D7FPR+pZ2j2cCroHW5mhU5Wtth/9va53wUIp1mJNSsfb8XAyCZuAjiw2N1PXaWrDVRTsb6qn5RbFsaKH+oKQjX0eRjk6anDz6s7ePTb2Eeeed4yceTE4W6bs2guSqlUAzWVbkczdeQC9DHaaDbWRFRyuLdp5Oh558xbCNow/ePTY1PT39EmVq8+bNJ0+efOftt14YSwzAyGdPksNR5CNyOFo8poYWMtIS5TcqvnyTR08dg8Jt2fISx2YKlPD40cJ+Xx7sfKTVT8wPkISDeJmXDxpb20G3yd05gd63ajNCceWTHKfee3/n6Z07d27RyDe1WeXk5uNF9OHBnl58Pj3N/lqX395j+EEf6IX/J5P4jSpfPUwZUj1y3AtDaEct7ZqtOPmkgwWOfT//6L3Tp1999dWdefJt3rp1KyfgyX8q2HfmMOhH0SzgB+BMJhU/fxbcHzT4ZHMfShs9ANd+inwN0G1NnhYU7qLIbR0tE5qtHPWdKli+zlZM/YX1HqrbEY1OtLW34+Dg/vkvXj59+uVXXnlFkY/TbyuGE/B4kUJgD1QvUAvGz30QK3E6ncHYeeDX/6okLlqkpB29NDR6ohDPhc5t8N3QNvyJ1m168g21UdobsXz17eSt9nPPwDHRtq2jtbGzsbHzAjw86dSHO15GYPnyzG+qtDRXv7fXrcyagA7ZC85cHL7kdJYgnE555n5A54M9oLcHUYtrl4YWQj1yTVi1IC2j7Z3u1ZzXvX7njWJL87RXQt1Ird2IYsVHO67s2LFDIx9vfVObS0tzBTx5Yv3aPBuYLezg9cvDw4dKGE5vBuhEwFrQR8AhsKExKrkh2FAvUH9s7YRSdbRqNtt46pAcbddmHSb3xLWyxjIMkq/VYYp+eOUnO/Tk26IaX2megCcfbFik1egFrw8P8/KVOIMpLJGGALAHCCGUPNTUAWnZRiexQ62SaaJFM5vYsHwTs42N8Eui16h2RD54gT76CYTJpxv83ikt1RNwgwKthm8QnLv8qcb6IME4qPVpP2gHzKN7kW3y8jW0sGUPlE4aalS6BXBGty75JJQdkMNKnkqoWqVDutpZVsbL12H6+Mru3avLN1VaqtWPCFj49Cs1942P/HM45j106ZJGvlg6myQOzGpB4GIb+fpqNfK5O4YUQVBkcnR2kDFHh/6sQ+9AJIfn+tW52Wu7msrKoibHbFnZpk2NDdJsfZlWPs/Hu3cz+XasQT7eAAtd/km14FdeJ6KkBFufU3XgkjgOgFKS2OEgFw79MHlw8kW5XNuG+i7R+pY2T9TT3lLvWL1lQKfGnoar1yrLNlUS4OcnypB6ZbOOaxr1oHxDH13Zi+XTD365vqsVcGth5fO5wCfOkpicDseo0ckx3oFRnecfD48kfVBol+pyATjxnWhV5NtWr+7SgetndxsqMToakDyrNawcbkfD3J5du5qa0D9EZWXZrPs6Em9T2SbPbFkO9dv27t2rY32aymWqNBfqwQVMHlKP3Z8EFw9BI8ummWiptGp+MAEDP4x4shxD87QAHwrhG7ca+jRtT/oGxjAH1duoXeqOXr96eGFh1y6oH4LK1xi93li5Cck3uy1XvbKDe/di/fSsT5GPN775eU7Ak28VRrtAbx8A4wBcvOQMZ0ZiQVrxhcOcerF0PAVuADmcdmaShflaHrdnbmEPhZOvqXIOqleJ9buGHFhLK5VvteA3tVXR7ubNed4CTxakd+CDE7RbFy9/Al6/XeLMpONBZm5pLw565L08AhWOy/EwXA9cPEaTurUg1RJcv9y+fd++1/Lla5orq6TyYQ/Wtz5d+aj5Md+dP358vpRn63whYl8vwGXy5fFzw4ec6XRMVqMdKvnCKdlJrG8GpLxp+MYpAw3GTYVn4EZhk0dPPpI/NlH0jE+V72W93EF89/iJE1rxSkufY96B4pAP/Se5sHjDl8/cGoa1StgbhCbnVCT0ZgFIYfsLynI8hXNySWwEnWu/xQyxjoGNSbe4tORGN0sgEbQjs6Uf3OHl28WpZyDfQU4+w9Q7j7R763he/ii9uWH1fD0myY7mqrAOuYjmGMO3zly+DdVKB7HNKQ6cQSExjJw4nhoZyZJYGMygkx7A8lWBvg18/+LS3XvLaKEW7anLSi/EHZ3Yt4p+m/YayMcFv+mp+RNHT+iIV7rhnouv12/y/XQmJCH1PkXi3f5V6DKaZwRJznWmaO6NwUyRRc7rlOVwOJahqSSFTtqGTWYA2Nf9/ct37927izMy/H5IN74QZvCZTu5YTb4yVb7d+vJNT516cPSEjnalpRvPuj21Ad+NcDzbCy8+Uu/SoRj4ZPg28lVidc6MzHKuHCd5OO1MlcRS1PqQfJEqLF/5OkKf5F6EV3xx5d7ovRWi3uc45NXgPVWA7euUj/quUe7Y8v67DyZ/dkxXvJvPkXQDflPteeiXzT3Ic28fKnGev0UmuV6aczOs4HPKRNBgsCTslMOcfF3EZLqAXjNLl+UVGO2kpXujo6N3ce3n+PW/IPXq8IWwVjPf1fVePfn26lofke/0zlNHJx+8u2V6y1TupANy4nmapb4eKZmOZf3NyXPDKF/AVPopei1RSpZUnKv4aBLxOtkcBMtXjQNWVcjlk9bE8iiKdot3/xXxG18gEPjN/v0HcOgz0wuhyKdRECpXif9pZIRCttbv3Zsb/Yh87//i1OTkg/d2TvO5lxPv+QoWyWdKhtN9gSRVrSR+C7uuKl88lasedmQvJ18Ftr4a0OdaE8kvvzwSMC1+8eVPEaRP+PAh9l16ISJgn4btjMdNlY8eb8/nDY43NfwWfuFvv/qd0vPT6DdfgKlaz0j8PpiBqiErC85c1PannOlsUEc+ts6LMq+Fhj49QoS89S7NOFs7QC+EMftWGVuFr5W2garffEEmatL9dFjOMtUy54adStpFxIBXz/zYKKz7xrDJmKu0VHTBo07krmWDY/ikuipy1ptpCofpqNyWt1VNdwJvVtefux3aZT+8CHU1et9m6wfgzdx573yhbpI3z8TPn7l8iRrbjQ/gZCKsShYEMSPtUAENWNGciwUmAOqM+VirkH7dFt0trfBsq81WnTGrGV2TiE1vzGIdUGJn3lA3AL/bomm7vFW4DtWgf+zWMHPWFAg647KaLlaXL6V4nA4JGhX1JIKuPmCkbQR0GwxZakLQog12ak2AcoPtoOz/xnXsbxaov8JwnbutumNcznDJFsqnBL/cHByMoehlpBG0oiqDs0HxTd9SzCiFR4xUQPMR2yqXxOhKQk/4SpHv2INC39hNvq405KE/jst8d4qTLyxr5cOJI0Ijlgo75q6I2ZoLHbTYFMu05IzB0MdUyNul2VqXYNLmDcLkVWUwBOUj1jc9/XYRHmvh5CsJjqT4zmg4S+cfJagHE+QN0BtHgZycj6VCwcZOJxGpzsOmWAqztW5lrJyqEGJ7sOXts4pN6yw16lgVu1x15FBseUOWfhz7pqfeLcojLa5z3O0goBgf6qpk41A+vMIpO1OZdJDc/3CWBL14vkvTg5WrEvqJgdSM6ZUQxPesiTGqR0QdSpBVXRE61M9tRlSD0zlitNZyrhbqIiJZQ0rDQd0lrQoS4NUt0y89KNLzQLWcfGql4oxB8xqRvcFg2ksERIJlw2k5FpPTcY0eNSDZDPHjwoLNXPWg1jNWTV4T4MCTJ08OcBfCTOW3doF9ryE4aa3ldN8wy/r9dv/v/50cArVM2vkJAVQwf80N1YA3dhbDayn2W4p8zhgg81mnNz6ThUp5oZqxFC5lgll4QJkRMD4zM9N33z6ID5D0C7pJu6UHrRljq7CWWkiigaGPyGirA/sheMJLDYv5pwU8JHO2z7CFUctMMGdsdkxcnb32CG/IJMVXEr5+jaZt33BHVwF+X8yHSf1nPlCCmjMM4uiBoDDIyF5EEIe58ThSFpLONvcMDg4GcHMamgWb5eN2i1/1GCuq0aoranIw01MlMlaAfUi+J/hUzVR1Zrz7iHycZVbV0cAwBh51okcMHqOxCD2EMbJhOfgKyfcVvnjkUPrZk69FQQLgP7j7uOkRkM2OZ6F4QWVyFhu5kQnK4+PjmXQdy/t44kWcEAYXn7qKRcNIjX5hbLZUj1FnBE+QfNh56ap+pe2CGvYLC480ljnAGoJN+H4Htsx+aplK5+cP6FmNN7HRkkOJbPw2whqwg8w5zX3IdDwOsyw32fXKwJ7MeuOZsKw2RfF5lZPQF8I3e319/KnWVRmVaJYItdAEkY+oQKNhF/PPOwt75q567JxlDijOuL0Mt1rIIVDLpLGzjsj3UI20VXUbu42wNmpBWgaagi6vPoY1isvnAvF0SlXPp2YOGMvU0KdEQ6NpBYprioUi9fZzScUWKmdtl0V6bTknrDNTy3yMjY+3zBrlsr2BWlZ/4I6uYkO3EdaIH+YKbzac19bjK7zgSBgETM3JpEv1Ahz6QrSOIM8192pCUV4Ry+pYqDbL1w9zMgc8VeKfNpD0uaMT1+dwciUhz8Issws8wsb3WBMz2eubu3fTzKFEQ7/h2T8vPoAaouER1VWDeQteeSQ2knsIdi5N8KGPhqIEdUbrQDmHmarNLBRljr8d4PI1GxoAfzy8ANnDWWZNHQ0VEdCkyjdGM1UduZL94JvdVz70JLl83Q+e5wb06kh1aJYRHFfNj7XnlcdaoO+mgvGcBwokLk2YaXDhQlENjYrmasBB6w5af0An/OPnn/9p2cVfiDGWLMmt3jsay2Rlz2dNlZWbKpv2qYdgibDYCT7+yG2SQtzRja39NsL68c/EkPmNK02qOFIs6PXGmXww76a94aR2ph1Q0wQ8H/yMmg/wq2wsbHPQPB0hr1C+PlcymeRKEytLll3gM9xofsipXh5imQOQLjMf+kLUQsdArd/vJ+1YUiZVwThQPPkCIBMs8XozSlc+M5I5H09lZpTphzc84vWG+7THgNNEnY06IX7kFIc+pflsZZ7DweIanXvwUzaWAMhHLDZuVpags7IEbcVUdaljdSRBKZXkgDo0RnYJV9UWTz30gB4skIPxGRrqgplkrSuJZmcxFvlm0vny2dUTs9CiGa+KWDWnqm1Dm6n1ELMwW8y5Q91KQ6rKxqAfhpbZz/ZZo4zR4shSTspFfjM6BOPA+m9Ar08/EA/PMOsLnoXflgRx1l2BhpmBk490SBtAkmpGNEewtHw0tIz1G5Yt0GeNxqzVdTUGQ2ZLDTNavcFIwvD7EsUMfQif/z6gU11UIQ9Cz1Se54N2B+DE1xsb16Yv7FzltNQioU8TDY1PB04CjPqoVQlj+eB0otywVVphfGOgW314uHgC9pI+FcwYGZgjSDVD3odB2gv1k7XZv0eNzaxoxs9IhVg0BEZNdbM5ZNiNrwqBCmMZDC+JBZYyBk1vC8xdxStbFFwzTmJrMo5jLlQHBpHRnQdgJnv27FmgdQGSJqxWWApDZ+wNLC4ukn6BGa6yovtEiSo8mge0FFBXoTtmtaH6T3fEjG+Eduvv0TYG8jvN9MvGihz5CGAmiNqgsFwB5PdpcayenL3RE2i2Q5q1mQNrNUZq4Qj4839C/gtnDrYKjvaX64LzZqLaaKiu2pZPNc3RXQP5Y/j+Jb1nUJM/VMxmi4IdjMRlqFiQyAflQe0qGYR0w670F6Dhz//97bffgqLyjBvkStGcQ98P4LmIntobsFhJnQe1uDyWkjPpoJzt078r9T9/sfPgQ5TshviPHPnfI0e+gEtfHMnjiwN6vKblzqPKym9e+yV+fNevQPaOZWKdnz6/v1ZhtR/RFhxfwO7q63NRJ/WFwNnxAvXJlp8+XXz69O9wybE0msvdv+Kuy/6/8ahPCC0sNO3atefa7NUJB/2dXA4Slo91forXHFgnvmZ/c2EKJuk7KN13T/FDpKbF75BmK8tLK6P3KH/Nk48Kt7Cw5/Dc9QlPdLW/60LuGbBZYN4v7uCJfP/99wU5jx+J5aejkmnpKenfmSRsgEhLybG4/KelpaWVlV9DiA0ePgwX5+bmrl6/PqH8AGRVNHMd3Qr5H1y+75Byi0w+KCfST/1JDPrZmlv5C0LKb1nXCn4oWumtFO6oXxSWsXDuUUU+0yKUb6lAe6dzHSspG4vwM50fGR/V7e+qfKbFlVFOzeeC/B6kuhtR3DtqPw5MtsVlbqXj7r0CmV+vpsz7AQuVH4ZFNluRNObmXhktzJ9J62nmKWJf9MfBKA047i4bjAjWgnvlhfkbUv+QLLqf/RmBQCAQCAQCgUAgEAgEAoFAIBAIBAKBQCAQCAQCgUAgEAgEAoFAIBAIBAKBQCAQCAQCgeBF5/8Afxx+bLa7W3cAAAAASUVORK5CYII=;imageBackground=none;fillStyle=solid;imageBorder=none;" parent="1" vertex="1">
          <mxGeometry x="121" y="261" width="220" height="110" as="geometry" />
        </mxCell>
        <mxCell id="19GmccGls2YGJMeHXtrM-17" value="TRAFICO CURSADO" style="shape=image;verticalLabelPosition=bottom;labelBackgroundColor=default;verticalAlign=top;aspect=fixed;imageAspect=0;image=data:image/png,iVBORw0KGgoAAAANSUhEUgAAAT4AAACfCAMAAABX0UX9AAABgFBMVEX///8AAAD97iH/9Gbt3xQYFwP89qD/8QD//vH/9SD/9Er/+bf77Bv/+8v97Qt2bw/NwRTEuBmQhxD+827/8lD/+9H/9D7IvBX89qOkmhWakRF/dxD/9yL/9QD/+6P4+Pj36CBoYg5iXA3AwMA2Mwfm5ubv7+/WyRz//vT+9X/n2R4hHwT//enW1tazs7NaVAy5rhiXl5f883mioqJlZWVwcHD89YyvpRf//N7Q0NA5NgdDPwksKQZWVlaFhYWglxUAABPDvnxIRiw7OiVWVDfs5paTkF5saURdWjAAAyEAAAROSQp6dSK3sDLOxTiKghImJik/P0AdHR7W0IcoJxKDf07k3YA3NziGg1UyMSbd2IwPER4PDQDk2mGsqG0eHRHFwYRjYUKZlVS4tXxCQTSNi1+qpFqroznd1WjDu05CQBjDvDYjJTQAACVMTEonJy2UlZ9ZVhu2tqVMSR6BgG5wblaJiHl0cD+NiD7h3bGbmofCvW7o3kePjXh5dTLn5dE0pG6hAAARAUlEQVR4nO2d+3/aRtaHNUKGDMbiGoy5yOJiyxY2YGyDbfAt8SUxtkniNmkSmjRNt+672c3uNts3223f9l9/ZyR0GUkYbIFpmvn+kE8yCA08nJk558zRhGGoqKioqKioqKioqKioqKioqKioqKioqKioqKioqKioqKio/pTKL8+N+yN8uppfByePHm/vlObmx/1RPkHNPwbg9UEHID1bX6VmeD3NPQHHF4IgJPaPjr9ACJ+sbM6O+zN9Opp7DI4EwYuE/nxx8SUmuL1KR/Fgmn+G6Hl1ISu8OLqPCK5QgANofhs8MNFTCR7uv+mAR9QC+2sdNJ8mEgmvleDFR7SOrIz70/3RtQ5ACLKxxZrXghCZ4FcdhyG8nF9/iIb287XVzbF84D+UVgHYhSwb4Fm/p+b1Wgi++ApZ4Kp5FZ5bf9nJJuvJcqdz8HpteWyf+4+hHQCSiJ4ihNBTFQgbREP4GPkxef36/F6hwqYhhGmu/nXiCKyO8bOPXXNrAMywJgVY1l+tmW1Q8F4cALDW9aRXQVvEtGNRPwv5ReEVWPsMHcTV9ZVSqbSCpr2JCmRJ4WEc9ZrWEsG7/xqcKGa2AmbUy3mPt8oGREE4Auvj/jK3rjWgaU9Os3YFeD4erZkACm/vAVBCtlrRLufj3pof+r2I3864v84tC60W5WA2V24UiqCQC4sOAPEw9lcFfRQLh6/ug0fGNIle9wu/hHlPwnv8mc1/KMAN4tk/nWblcD0IOknROoC1URyr6t6M4D2aAMUZ40recwhkfjGRuAc+q/V3HbQMg4NsoJJrRjhHgHgl8egLieB99Rq0JOPVxe/KLFsTXrx+/BkFJ3MASAQjyErtrbojvu4g1kxQeHEAOru6nxP/BlSgPyG8/Zymvx2QtC0XkK0Hp3sC5AOe7joiIE8F5OQuQD76CnBo+hO+HGz4Lix6LKoxtiYPw0xZmxZtLZ7qQq97ejY2bE2kohs3pzf/pCA7MIKiVHdq101wUR3DwsVzsKVbb+04xQYWE4f3twfp+o4/wBHio0yMJ5sCPMNM8iJ5WWzK0sKJ/JJ6z6W45Z4Bdsl2teW97N2b4yuBtvM8x7Iyh/6Ix9lAIOBggvGokFDW4PsAhNVbBGKHaCIQa8I+yPfvGeELdSbMwvgCwNwCpn0YX8rcCAKxDbZOXpbMdC3oLiRfKYZid6ZgkmgjhVxXF/i2QW8jUyR6op6YiJZduwl6VB8GhXGhblP0ywgMxL3e48cDBB8IHyCk4iMUVvAFibZAjIlPk5flMpPqPad8EeKFAldlpiDZZlHSBb75R8Wr6WFMsWqthqIy1mqFfEzld8+w4IscRHOgcAFKI8TnZ2IieVkhU1PvOclniRdavtoo8W3utfrhU0cqWiwWo7E4T1gh71fnP1Dsrj589A0GWRPegJHiW8xMkNelo+o9FwMFoj2IzHKU+MAA+Fh1sRASh4dPv5YkGQlNuJhTQLW/A6BdF/8WzQU8nv36m58LfJOZHHkdF1PvaTXLGd/SSPGdbA2ETzFBT+2bt6+Ov9sDoFMoB5PYtcFhmhfB0twc/us6Gr3VxIsBUgcu8G1kkuR10/47yj1ZjmyX0PtHiG/uEbiKmZUgCjpqCUF48eqrAwQxi9uiiN/hdxFt8hPP8OSX2B8tviXWsnbUWXXp9YXJdmyVI8THvLfEHP0IsvHYYgJvAb84eq3mpWsJr/CXrH7FrwG8dhyB/pl7F/gWYhI5+SXhFL6l1SobYm20+FbMaZOBxMcRr/3j+2/uqeFeHEdvhPvDV4V7T/p37QIfU+MaRFuKVzyXyUzQ3jxKfHOg7Jyh6kmP9SQOjw7u4Z1fUMbmF0M4X5ptmF887AyQtXKDL+HLEm0tUcC3TFiWlF2MZpT4UMw7fR3z81fRYD3E224X+8eq+aEwTfiLKXWFVt79kwGiXjf4pjIpoq3JKZ5LTWwRzZX40ojxzYPm4PBQCFJdrKnbRwJOzaeU5ppwUTbnHWrHgwS9bvDd8VXIC+U4vmVUbpKt2J8ZKT5mFewObn6BAI9Xj2g363cMcFyMvL/EA/MUUBso4+wGH8PK5IXYQ2HuxMg7TsDqyPEx69cbvqyy+YETz8hjOVG2lgJR4UvTHlP8ezBITZsrfB7LhXUfcvyWWNJvaWW8o8c3+7h5Leela4Zi1JsQ3pYVagEUuIV0fv4Hg2QM3OETeHKWS2WmsN8yQzS2M3dHj4+Zezlo6EGIj6NV5IFCPhA73GpGtBekiYHSza7wTfnaRGMuk8ALCnllGJukBV9q2iKZnXKHD/G7pveiAfR4X6gTJx+9hHLX94PhwTbbXOHbgHWiseFDDrKQ2SIaJf+CDd9MOm6VS+tjmOW93E3w4UXjh24O5n/0HwDuDhByuMW35CfDNpzYY6oZsk3GK4cVX2bjDqGlO27pIX4Ps70QXW1/MaH7N9nAl9wbaKvNFT7GIxfNjROSZ8H67hzvdcDnGwIuO7+T7I3Gb8AftbWFHw7UpTt8NctADSMPOS4RTSk4eVv4mDzIOhVo9OcXi1ubpFuY+2wpvwrcWGJJX3oGbtwaPmYFRJzw9JcNH1duDLL0usNnTa60fXfvQrJJYhkHfJnJKVULQ8U3uzZQ7gpClpP7XFiv32ivA8ajrCVb3BvfAiTfXfZNTvnIQDgQc8KHqxGxeNcLLqm5/sMXpsXp3VQDRK4OU8QQOLkBPpzOGRgfEyPDtqKvNhkgxnOTX3TAl0tGFFV8Q8bHrHeu2rSEUJ6OdKfrfmYqfxhgp9eGz0FX4LOm/HhPjSP2iYK+SQd8+quZYeNb3rMVR+rsWLGS1T/chANmEcnAd3mTZP318Fmb5biHtMcZ38YV+FJDx8esOTt/EEozxC/d4qyXcOWTv6aM0kD5XaN/nYtLfFYqYWjJwmBX5lbx5YGD7we5OorOW1lT1zYXEdabZxxrmK707hSsjRif1U1JQUiEwUXsSN8qvtmHdcvohelQpAlAJET8skEb4vY52SCjr9YvcnOJj4lbUn5Bct3dCqgrx+3hY1YaorKoq0xYORwEf/vb68sAajCnwVNWfKJtLUnvgn4ZZ7f4oukr31rGOZjbxbcMgnWkyrTMcVK7XHy4nV89PowpME2fwWZ9trkQ2d9WP/Nzi6+WKfR4l6K2xuf28DGr2w+1+/99bTU/i4Du17rzmdG1c3ism636r3q/2c8tPut2kcNbbxsfmv9mZ+fnlpfnZ5WE8ex7cORRC6vSxi6MfeXF43cmlZoxeTRyo4/5ucW3BCs93qVI3Ty6bXykVgF4041poZEI37Lhg2FlamyaSnrF0z6usw3f9PR02FJkcSU+a5UfoSLXLboaI765RwDsaZGcsQlod5vDqcY/ngBwoi0hsixy7W7gu5x3Tv/ZY142DtnB8TFR+YrJLxdIjB3fCu5INzXjW9jwQel0bh69oPkv4a1Gtq1Y3+baS+C8c2TPuHiukXFBqvHl3vgiUNvCGB8+pSPdFzQWD6t7iMwtVfonOOn8S32iwbe/+RJsgfxyaRstgVnnCM5dworBKb9sb3wzrFYwPzZ8JbUjnZGe0CiGrPyk0+S0rMe93I/YFMEeujIicpLzIuIan63Kz6yQX8vnjQ3futJRQR+9xko3UWcJgOK5TDTIZ0XQrIRDIZk7a3Ono8HH+K5YugMe7SoSXyOrKFcfesLKqjntO+hgTJFHsW5++tKUbWHFYmeilUznUmIke/qhlYRoDXbKH7jHF7dkB01qasXi9nRpRpFv2OlSm5a7PZY1fKSj1cxVnNxnMVURI0WQLU6jqC8kcejP8kunog33+Kpiz6U3qz2qYN/r0JL1o9nzMFT60O0ypKMhKyMKDu4zOy2lQ82wlCwY82LjvZPr4h6f9TEEM6WM/qjV7WwV2fXvpx21S736HpJebdgpuyqyXFCE6ZRR8ffO+RlB9/juwt1e+EJxndK48P309FW3T91RgebN1R5P1MA6cp5FwzcUz5w3jtzj24j3Ctv0ZB8zRnyC91jtc0LS+JnjpB5V0Ry+uG1YJpcFA7rN18W3EJM6zvhanL5yjBGfcPhc7bTgEHqAHjsjeD2RTK9Jhe8cb+8eH1Pli8BRWS3ZxzjUuCwRujMqnMj6hAvt59QWWVOKN+w8eDFB80uXPYoOhoBPyJC7bbraGaPqzHGfV/lkw6qw6onPK2izS0Ebv4anbw/d9PFq+ruUdXRbhoKvZ8ov7DNqCEh8wQpSGGl49X1X4POyWh1dsZuM4vTxUjasTexZXySe98raDwGfrUJcE8ca/Yy6urQnPlz9zab1PJ9aA2OqS9RqolNftHucX4KD4V5Z0yHgW7DUVBnXeIx+xobv0OtNICwVbXlrKQNY1NNE3QFdz8o9yxPks4n3PQqdh4DP9iRCV2W1sm+8+N6/EhR8rP41J2ZwnGv84lsKNklMG56NdejmelYLDQOfIDqm/CI+03w2Lnw74MibwKl6iFw37XdFnEyh7wTXHc89ivPPL8GjXrcfBr5J57WjwppOxxgXvjwAHxMxZaMokNQGcLOO7NH4PClsdbhY58O5w+yHizV6lqoNA1+PsC0UMzlz48KHE1YHnu6euZTV+iuH0sby0UFWl1aKIz68s/GTz0+v2CwfBr4F1inl19S3icaKD5843NBntbA+zaTktL5L04JaFrV4JlvpIa69ny8aBj7bGxQ1jGTfGPGp2eaiFr1CsaL5+MXkNHiWz6/urDwHHKc+mfxFc+JSEgl6lwBccVbsUPBVoUPUa0r2jRPfitpBSjsRDKaltp5yUcHkkSmq/z57hwawAZCTztudK6v8hoLPdigEFj4AwtDY8P3e7aFQ0c+kg5zUbjWxvT1RhuX8Y1DP/rXRLJ6etZ69B51/nZ3LnMjJ0vnZKQDbVz3gMRR8Gz6HtUOC5n7Gho/R+2hVjPoVmOYk/IXURaEETk6z7fOz1ARYxkUJoHHavrxsp7JoUF1dXz8UfEtxS10Clhwz9zM+fP9r9NI016+IrZfb2vBFE2SniONg7KHMltYedd/weKfPs0VDwbfgsRwKAchkHzNOfJsPDkwAg2G2uxvJgZPNdRUYM5tff3QCTra1zbS5zfzKzmp+ue+DWUPBxyxy5NNFSEHevHKMER/zk/ftgbmvbEXCBGVcO4pG6rqbcyJvfIIagc+byZJ3mQC7kEhB9TlBbXeE+H78Vkj8QmyvTTRSFVx6iyxvfuXxs5W5Gx/UfOPz+wh8DqfzBcSlPleQ5/eNKN+HNPvA662JYWtc3gTgvfL6Zil/4/9L5uanRxJ3idnPg6wS/Yzy9Mh+Kr0SEh4I5UjLQnCg4wqojg+9NcXfCwXJ1Noa5TeAltHsV8VPjEMIp3cJhM9WSvl86TM8pP46Kn2Phm/33EjIinIlGcyVczhjsL29vbZD/5OOPlr7eCjETKdG4n2+NN4up+QG0g54803Umoxvo8E77g/2aWgWBRj3/vOrSBRAciim/awOp3ehHcXZa1ckMa09jJ1GoXrfp/6oVK2qa22nuFXOtpORSCpbxmvwP9ZLn9Hx/i6Uf+0Ubn9PvZYBNftvB3yF6R8S3VrXycmpn3/++aI2eVv1X5+aSs/N5DpbKRmFwoVWOZfL5nLlcmurkbt8ujHc4z3+TEIr8L1WC/HKtmdw4goSFRKF5DejS138OTT/319+jSsRnOpA6+UG5f88pewG0PKP30fjELLdKE5NAUZ+uLvU/61UWLOl//5y9mvMj+sykfW1kj8IlN21NLf5fz99/O233z4efPvi7hJdLG6g35E2qJNCRUVFRUVFRUVFRUVFRUVFRUVFRUVFRUVFRUVFRUVFRUVFNXb9Py/sOtnmknPgAAAAAElFTkSuQmCC;fontStyle=1;fontSize=10;" parent="1" vertex="1">
          <mxGeometry x="-120" y="187" width="138" height="69" as="geometry" />
        </mxCell>
        <mxCell id="19GmccGls2YGJMeHXtrM-20" value="" style="shape=image;verticalLabelPosition=bottom;labelBackgroundColor=default;verticalAlign=top;aspect=fixed;imageAspect=0;image=data:image/png,iVBORw0KGgoAAAANSUhEUgAAAQgAAAC/CAMAAAA1kLK0AAAAh1BMVEX///8AAAD8/PzFxcVDQ0NhYWGLi4vu7u7AwMDl5eWUlJRTU1Ofn5+pqan39/fV1dV7e3s3Nzc5OTkXFxckJCQtLS0LCwsREREeHh4yMjIaGhoqKio9PT3s7OwhISEPDw/g4ODNzc2YmJiioqJ0dHRbW1uEhIRMTEy1tbVOTk5tbW1fX1+wsLDOdZt2AAANeElEQVR4nO2dCXujOAyGwWVKT7eQQEIgR9v0ms7//31rWYYcgG0smmZm/c2z6YYYWbwYn7ESBF5eXl5eXuOIxeynXWiL8dM7FS/5yfM0il8vT55lHJ86S7PY6e8OZ2dYHtjpnwzBgXEiitGdFh6d3CkexMQyIZ0GUYwcmZRGSRbE+TE4ZYmDi9SiHJKylBgY1fMDp4QxmjVZzAc4JfKjXgFCBxNjkYDqgeiUMMGUIavKBpGRMt3PaBwSTJUwgjHGhznFoH6Q99Q5yyODwQi1pjJCeF7ZQc1gLhNYv4l0H4+/XLX9/SVef/9Wb78ef+tS20gYeNz+/rXdvjqd/njFA/lc7GpvzvT9JCgzIu3yMnRXMRUveZKm6UwdSXOCOaEsqdbramZO2K9nLu/ybuigfzpk/cDYwzshyyQTL+tIaoKHZhXlGsKkCJNqvojm7iay6WJTP1hNmegnoZr+h5BwByepzBhBFOpgRCoSZVhWZTRfuBvJ4U48qFpB8dC0xapiXpIKIYIoEESKx2QhcVVW5GGSh1VJsCFBhPEOBLQ/vTVv3To9EoqgUAqnl02JyNIkLYwn9SspMriKLCU5lUC9ta1BYFvcx6Huyj9MSFmKMgEvZQYKw2mWFWuKtYWwEeJ/FCuS42avcuh9MKBhkXXlmzr319O1kzYb+Xq9XML/LpfLjZsdtLW5lv82BCPXT6/ivsAlXdYXig1It2LsVzOmavjHvoQG1XUQrwc3lFEoNGFMvrrbAG3LBVzTO465Ak15kJ9BE8uZKhCuU0F7PTgyBzlejOmD7+C6xKo2UAj660ngpOYgkEPinGnTPsu/BA6scYre2y+w4WLYi+g1iKMs9fRQQTQkqBxinA6wnj3QqQjTUoKoR8WdwgmUeg6CDKIe0XAyBwZOjTL6Ew04kGDSqT6DomrgkEB1wukgFAlO5RAgiTEEPRlBItBWvLKPtRuXjQBCkqCVaXF3xNkxH2l1RXbp0lzvlBxwxvVYZBQQ2EulXIMYJQOFsWb6sG9b6hsg2Wo2HMYBEdjPkPY5RZ+r3ZPq5BsaIHged26PA4Is6dRoc+AKhDnTvUfxTECAU+OtBSgQgwrpuYAIxpjrrPV3gxhRHoSSB6HkQSh5EEoehJIHoeRBKHkQSh6EkjuI6rtc+hklziDyqKXb9qHOY0Z9Djo83Nj7e+tQ7gyiS4vWEcfFwc6lL9cFtvbScP9i8UggWuturutwecdFz11XntcT/ft9jQXi6Mrd1yPbJObuC6TrA4RdkBuNBuLg2inrssfuOpcH0H4Z0JWHMUHsXT1tffqQBImDMNacri0Po4L4u+XSoYopukIjW26XnG8w/adl+lilT5e2Drl3qNIhp7R0gUasv1qwxPS3tulj5aT1hf1UF9uDUPIglDwIJQ9CyYNQ8iCUPAglD0LJg1DyIJQ8CKXhICYeBGiJEwkexBKnVM4RBG1d42kgCLgwQcIaBEf7kbVD7usas9sD/brtV8dnERopO9N/vbYOyc10+WShyeVAn9J8Ptck+Tp4t3YGcaj2iob9p8fqn540TDgeSz9P27m6QQVhmqcdMo+rm6cdRMKUeN2RERGE+TrtSRjmq+1JGMpDdwoaCJurtCVhmre3LhM2CdskSCDsrtEulXk9y5KEXbIWiX9vXcNxQcgBRPZA0Qsa+WWbXnXAoo1l+idMX1g7lDmD+DvWNawdOo8utnnX5v9k9Lk07iH9ARB8aTp5dBD82hjk7PQg2PLatBtkbBCmICagk4OAvdGmc0YGoQvU0OjkIExb72BD8LggmNzTbHJYC0LGgjrcQ0oFYQpBJzf450VVzcYCYRk8SgeCodcHOx/JIIJYVySQfL4KF9F6JBAMti2S6ohme+4+TxII4VKs3aWs9jzCCYuKNkOlQGwDy9Bw/SD2apg9OyQQGGJKG2pHppNnrF9JWw0ViBvG7OIg9oI4qF92higg1HbtXq+aehRPqQIKiV0dIf4xY9elF8RRPds4TwAhw0MwudO4U1geIPKIajVI25EBxLpKH2WgQAs7PSBYE1ftKIiWKwgIiRDHGG+rOyFGUZX4swU2nxQSAsQsWs0vuU1NGfSBUBzwwcZDyinnEsExJiHv3VyL8SflpzLsEzSfhJ3ZAkSyCrNL2yCI3SBU/En1pnYUXl1BYPnU15RNXpmMMAcjXPctyU/wvf2iHLSu0VEi9h04cIbXFZmt1LqGrCNj3S0+BpFPHy/fHp31K63SMA+rG0sbW/SzPEz+Jt/eoPCjt8v99HNrh+TjPi2YDJShe+Y5ayLCZJEo11FUUb5rna5CgTNPacHeQnkfizQRSsV1pCkp2FtZhebgs9iBlSmKFXCICFmu80W4EjXNjBhXLaxgrncit+BkMg4gKWBdmYeMm2otvgsnJu4njUNYiTtZrUJSmQKpMJizohI1L5XDFIwxY1CruuPCGKOWB+G5KMhJQoq7KDXZu3ByeZgUVZibB4C72RM+p3IQShJa/EmltClTZA5gowotgvc0qHhB5yAugeo1qoFZZAXpQZtPJ9Ce2/Rq6rEGzySH7MJJV/jnGVe+vp4sT/tAd6NW+idl8OHhqSO9rZNXF9NwIVrQhVXvTpUJXmDwKptTWmI4f8KHrmt0d6jAILZk7GhJYFiHSjglugRAwjZ9LDLk+G0Ht4mZmGFs8auBIPrnI2RBbdVxg7rY0FC8lnJ51rKvjJMoIQEEOAyh70Zc6cLw9UdXMBAEC16nZTKzX+CRE4wkEKLDAsHexlzy6/pVjYEgAp6WEXTOrEdPjBjYE8KRQlkede2zY5p12OhTjLsrDHF9uiU/hvEGz+ubt6JEqV3yJ1z7xNt3XiCEU+5fL/TfxfYgankQSh6E0l8BYu1BSMXhJPcgAvloAAkPAuoIQeIUIGhfL3waCEJVfl+26eXIcDJ8XcMBxOr5Zl/Ph28Nnz2rdYeo86wOW/gjULNCk8uBBZV+qkly+HbuDGKAiL891Wgy2NDgLyKPAWLRk2u+GupNz3f0h3PoPaf3K+ujlIhuEi4cOkm4cOg5q/+r++M8Gl0k3Dh0kHDj0HmeZgvDSHVE+z66cmjt3HDl0HGmbivH+e/XGKvCNcgBRHnVpQvt293xZzTy2pfg6OSLP5i+0qXfV72u0eFFt4mpM4gf6VAN3QBr36H6l7vYoR9reBCNPAglD0LJg1DyIJQ8CCUPQsmDUPIglP5ZENc46+ZBLHF+woNY4qzPOYI4/TBclInvG4a7r2tMX+6O9dI+1HlMHH1EI5+dn97dt47cQOp5XnSnb9tXEz/T7vzbB19WziB+QvNvn7AbA0TfPO3g+P+aedqhvy3RO0/bl8cIIPrnq/tWfgb6KDWMqma+uicXOgjdvP0g7w3z9kPKhDYEU3c+ZBD69YsBJIzrF/YkDKGoOnP6SyrLQRoY4Q/l0nze7+nPvUHHCd7QyK3xRKU7TJ/8sclMppccSmun3JvPc1/XkOXBr2vEWCv9k2ONYSBCD0LqpIOueNBZh/o2EMqpU4LgS6vID936LhB1kLNTPhrmWG4afRMIHi9pEUUcQNyaw4lp9D0gdvu6Twei+KQEFPkeEGy3zc05xsyQ2wsnLKKUU8IOCRDTJAu3VpF2AksQe9GjnEOryJAilk6FMENSvhLDL2XpYlpc2kbssQAhr4EcfonHGPHN5kSIH1GFnzQQsxQfDZtAdYENCM7lXkoSiFXG1a5tK6fCNAvTaWERYaBfT9OmjrDK1AiCK1EejVXV7A23ciqMJnlUvcfulSVjT3uVpU2mZhABx8BqbiBYBhzy3SZ5s1Ocz+ZRVC6KjXPzKfKATfJ5Xod6pYVxlE5xCCe2C704FMQGOeS7kG8mpwTxbT6PhvzoR9sGDMMhKmb2WB8wOawfhqu4XHueD13XeJccoHPEmOql6yPQwlN4ny0kifndHyd9fNz/uQyrKIqqrTp0f3WvP0dNzKQfPRZfPj6Ekd0RFYC8NJitrS+QQ3iv7osiYQhxuhQYFoQVBhmUfCpjJlXz/WPOmoWzbEIL9yIDOeVxU8DwYnUYxKeXGSWcC4YKKvAH3FWkmZIScSYrwhziOZFizMhATjf1dQYyVElvicAui9A7JcuwgpAkJYJIoPEuMQygo5KiAIwFLXoPhOop1IUzbH50gfugsyEqk2sS/BUU4hmCWIUZPCGEB60swmlKLFNCeRWWMaurSVkkNOWhjjcc8FtCnqWsEFYYV01yIPgP8ZdETVO6/848ajZ/rYPxYV+kvzzEUGCawLdXiXOedcUIv4GzSpKEVFEmJYTuW9EqW6HPi93Tr+cgn4x4Lw735uP50km7095uXu7uHK001p7fnsk2PjZsN/7WcmAxxsSNrYZlerGm50O11XQCiXaC/RDxeg7Qh909F/RM1V+bn9boNxPLxpzZjZktnJJmGNdygFT66OEDM5V/9I+iQRDOSgbqJc0ZHjgFhhjTPRfYkTf/0MKATOUrkQPcGMqiQsspFmgnSJhsYDFu0miZxrZzMjqnoOoa0ymu609CnqJ20P66gEumscXPamiknBrpuUCZ4vgzWTuMygFbbKIBuo22Tb1BKIEjc6BLVpandorFI9YPY+ksnfoZeQ5eXl5eXuen/wBkt1pSaTCCdgAAAABJRU5ErkJggg==;" parent="1" vertex="1">
          <mxGeometry x="308" y="390" width="56.67" height="41" as="geometry" />
        </mxCell>
        <mxCell id="19GmccGls2YGJMeHXtrM-21" value="" style="shape=image;verticalLabelPosition=bottom;labelBackgroundColor=default;verticalAlign=top;aspect=fixed;imageAspect=0;image=data:image/png,iVBORw0KGgoAAAANSUhEUgAAAQgAAAC/CAMAAAA1kLK0AAAAh1BMVEX///8AAAD8/PzFxcVDQ0NhYWGLi4vu7u7AwMDl5eWUlJRTU1Ofn5+pqan39/fV1dV7e3s3Nzc5OTkXFxckJCQtLS0LCwsREREeHh4yMjIaGhoqKio9PT3s7OwhISEPDw/g4ODNzc2YmJiioqJ0dHRbW1uEhIRMTEy1tbVOTk5tbW1fX1+wsLDOdZt2AAANeElEQVR4nO2dCXujOAyGwWVKT7eQQEIgR9v0ms7//31rWYYcgG0smmZm/c2z6YYYWbwYn7ESBF5eXl5eXuOIxeynXWiL8dM7FS/5yfM0il8vT55lHJ86S7PY6e8OZ2dYHtjpnwzBgXEiitGdFh6d3CkexMQyIZ0GUYwcmZRGSRbE+TE4ZYmDi9SiHJKylBgY1fMDp4QxmjVZzAc4JfKjXgFCBxNjkYDqgeiUMMGUIavKBpGRMt3PaBwSTJUwgjHGhznFoH6Q99Q5yyODwQi1pjJCeF7ZQc1gLhNYv4l0H4+/XLX9/SVef/9Wb78ef+tS20gYeNz+/rXdvjqd/njFA/lc7GpvzvT9JCgzIu3yMnRXMRUveZKm6UwdSXOCOaEsqdbramZO2K9nLu/ybuigfzpk/cDYwzshyyQTL+tIaoKHZhXlGsKkCJNqvojm7iay6WJTP1hNmegnoZr+h5BwByepzBhBFOpgRCoSZVhWZTRfuBvJ4U48qFpB8dC0xapiXpIKIYIoEESKx2QhcVVW5GGSh1VJsCFBhPEOBLQ/vTVv3To9EoqgUAqnl02JyNIkLYwn9SspMriKLCU5lUC9ta1BYFvcx6Huyj9MSFmKMgEvZQYKw2mWFWuKtYWwEeJ/FCuS42avcuh9MKBhkXXlmzr319O1kzYb+Xq9XML/LpfLjZsdtLW5lv82BCPXT6/ivsAlXdYXig1It2LsVzOmavjHvoQG1XUQrwc3lFEoNGFMvrrbAG3LBVzTO465Ak15kJ9BE8uZKhCuU0F7PTgyBzlejOmD7+C6xKo2UAj660ngpOYgkEPinGnTPsu/BA6scYre2y+w4WLYi+g1iKMs9fRQQTQkqBxinA6wnj3QqQjTUoKoR8WdwgmUeg6CDKIe0XAyBwZOjTL6Ew04kGDSqT6DomrgkEB1wukgFAlO5RAgiTEEPRlBItBWvLKPtRuXjQBCkqCVaXF3xNkxH2l1RXbp0lzvlBxwxvVYZBQQ2EulXIMYJQOFsWb6sG9b6hsg2Wo2HMYBEdjPkPY5RZ+r3ZPq5BsaIHged26PA4Is6dRoc+AKhDnTvUfxTECAU+OtBSgQgwrpuYAIxpjrrPV3gxhRHoSSB6HkQSh5EEoehJIHoeRBKHkQSh6EkjuI6rtc+hklziDyqKXb9qHOY0Z9Djo83Nj7e+tQ7gyiS4vWEcfFwc6lL9cFtvbScP9i8UggWuturutwecdFz11XntcT/ft9jQXi6Mrd1yPbJObuC6TrA4RdkBuNBuLg2inrssfuOpcH0H4Z0JWHMUHsXT1tffqQBImDMNacri0Po4L4u+XSoYopukIjW26XnG8w/adl+lilT5e2Drl3qNIhp7R0gUasv1qwxPS3tulj5aT1hf1UF9uDUPIglDwIJQ9CyYNQ8iCUPAglD0LJg1DyIJQ8CKXhICYeBGiJEwkexBKnVM4RBG1d42kgCLgwQcIaBEf7kbVD7usas9sD/brtV8dnERopO9N/vbYOyc10+WShyeVAn9J8Ptck+Tp4t3YGcaj2iob9p8fqn540TDgeSz9P27m6QQVhmqcdMo+rm6cdRMKUeN2RERGE+TrtSRjmq+1JGMpDdwoaCJurtCVhmre3LhM2CdskSCDsrtEulXk9y5KEXbIWiX9vXcNxQcgBRPZA0Qsa+WWbXnXAoo1l+idMX1g7lDmD+DvWNawdOo8utnnX5v9k9Lk07iH9ARB8aTp5dBD82hjk7PQg2PLatBtkbBCmICagk4OAvdGmc0YGoQvU0OjkIExb72BD8LggmNzTbHJYC0LGgjrcQ0oFYQpBJzf450VVzcYCYRk8SgeCodcHOx/JIIJYVySQfL4KF9F6JBAMti2S6ohme+4+TxII4VKs3aWs9jzCCYuKNkOlQGwDy9Bw/SD2apg9OyQQGGJKG2pHppNnrF9JWw0ViBvG7OIg9oI4qF92higg1HbtXq+aehRPqQIKiV0dIf4xY9elF8RRPds4TwAhw0MwudO4U1geIPKIajVI25EBxLpKH2WgQAs7PSBYE1ftKIiWKwgIiRDHGG+rOyFGUZX4swU2nxQSAsQsWs0vuU1NGfSBUBzwwcZDyinnEsExJiHv3VyL8SflpzLsEzSfhJ3ZAkSyCrNL2yCI3SBU/En1pnYUXl1BYPnU15RNXpmMMAcjXPctyU/wvf2iHLSu0VEi9h04cIbXFZmt1LqGrCNj3S0+BpFPHy/fHp31K63SMA+rG0sbW/SzPEz+Jt/eoPCjt8v99HNrh+TjPi2YDJShe+Y5ayLCZJEo11FUUb5rna5CgTNPacHeQnkfizQRSsV1pCkp2FtZhebgs9iBlSmKFXCICFmu80W4EjXNjBhXLaxgrncit+BkMg4gKWBdmYeMm2otvgsnJu4njUNYiTtZrUJSmQKpMJizohI1L5XDFIwxY1CruuPCGKOWB+G5KMhJQoq7KDXZu3ByeZgUVZibB4C72RM+p3IQShJa/EmltClTZA5gowotgvc0qHhB5yAugeo1qoFZZAXpQZtPJ9Ce2/Rq6rEGzySH7MJJV/jnGVe+vp4sT/tAd6NW+idl8OHhqSO9rZNXF9NwIVrQhVXvTpUJXmDwKptTWmI4f8KHrmt0d6jAILZk7GhJYFiHSjglugRAwjZ9LDLk+G0Ht4mZmGFs8auBIPrnI2RBbdVxg7rY0FC8lnJ51rKvjJMoIQEEOAyh70Zc6cLw9UdXMBAEC16nZTKzX+CRE4wkEKLDAsHexlzy6/pVjYEgAp6WEXTOrEdPjBjYE8KRQlkede2zY5p12OhTjLsrDHF9uiU/hvEGz+ubt6JEqV3yJ1z7xNt3XiCEU+5fL/TfxfYgankQSh6E0l8BYu1BSMXhJPcgAvloAAkPAuoIQeIUIGhfL3waCEJVfl+26eXIcDJ8XcMBxOr5Zl/Ph28Nnz2rdYeo86wOW/gjULNCk8uBBZV+qkly+HbuDGKAiL891Wgy2NDgLyKPAWLRk2u+GupNz3f0h3PoPaf3K+ujlIhuEi4cOkm4cOg5q/+r++M8Gl0k3Dh0kHDj0HmeZgvDSHVE+z66cmjt3HDl0HGmbivH+e/XGKvCNcgBRHnVpQvt293xZzTy2pfg6OSLP5i+0qXfV72u0eFFt4mpM4gf6VAN3QBr36H6l7vYoR9reBCNPAglD0LJg1DyIJQ8CCUPQsmDUPIglP5ZENc46+ZBLHF+woNY4qzPOYI4/TBclInvG4a7r2tMX+6O9dI+1HlMHH1EI5+dn97dt47cQOp5XnSnb9tXEz/T7vzbB19WziB+QvNvn7AbA0TfPO3g+P+aedqhvy3RO0/bl8cIIPrnq/tWfgb6KDWMqma+uicXOgjdvP0g7w3z9kPKhDYEU3c+ZBD69YsBJIzrF/YkDKGoOnP6SyrLQRoY4Q/l0nze7+nPvUHHCd7QyK3xRKU7TJ/8sclMppccSmun3JvPc1/XkOXBr2vEWCv9k2ONYSBCD0LqpIOueNBZh/o2EMqpU4LgS6vID936LhB1kLNTPhrmWG4afRMIHi9pEUUcQNyaw4lp9D0gdvu6Twei+KQEFPkeEGy3zc05xsyQ2wsnLKKUU8IOCRDTJAu3VpF2AksQe9GjnEOryJAilk6FMENSvhLDL2XpYlpc2kbssQAhr4EcfonHGPHN5kSIH1GFnzQQsxQfDZtAdYENCM7lXkoSiFXG1a5tK6fCNAvTaWERYaBfT9OmjrDK1AiCK1EejVXV7A23ciqMJnlUvcfulSVjT3uVpU2mZhABx8BqbiBYBhzy3SZ5s1Ocz+ZRVC6KjXPzKfKATfJ5Xod6pYVxlE5xCCe2C704FMQGOeS7kG8mpwTxbT6PhvzoR9sGDMMhKmb2WB8wOawfhqu4XHueD13XeJccoHPEmOql6yPQwlN4ny0kifndHyd9fNz/uQyrKIqqrTp0f3WvP0dNzKQfPRZfPj6Ekd0RFYC8NJitrS+QQ3iv7osiYQhxuhQYFoQVBhmUfCpjJlXz/WPOmoWzbEIL9yIDOeVxU8DwYnUYxKeXGSWcC4YKKvAH3FWkmZIScSYrwhziOZFizMhATjf1dQYyVElvicAui9A7JcuwgpAkJYJIoPEuMQygo5KiAIwFLXoPhOop1IUzbH50gfugsyEqk2sS/BUU4hmCWIUZPCGEB60swmlKLFNCeRWWMaurSVkkNOWhjjcc8FtCnqWsEFYYV01yIPgP8ZdETVO6/848ajZ/rYPxYV+kvzzEUGCawLdXiXOedcUIv4GzSpKEVFEmJYTuW9EqW6HPi93Tr+cgn4x4Lw735uP50km7095uXu7uHK001p7fnsk2PjZsN/7WcmAxxsSNrYZlerGm50O11XQCiXaC/RDxeg7Qh909F/RM1V+bn9boNxPLxpzZjZktnJJmGNdygFT66OEDM5V/9I+iQRDOSgbqJc0ZHjgFhhjTPRfYkTf/0MKATOUrkQPcGMqiQsspFmgnSJhsYDFu0miZxrZzMjqnoOoa0ymu609CnqJ20P66gEumscXPamiknBrpuUCZ4vgzWTuMygFbbKIBuo22Tb1BKIEjc6BLVpandorFI9YPY+ksnfoZeQ5eXl5eXuen/wBkt1pSaTCCdgAAAABJRU5ErkJggg==;" parent="1" vertex="1">
          <mxGeometry x="338" y="410" width="56.67" height="41" as="geometry" />
        </mxCell>
        <mxCell id="19GmccGls2YGJMeHXtrM-22" value="" style="shape=image;verticalLabelPosition=bottom;labelBackgroundColor=default;verticalAlign=top;aspect=fixed;imageAspect=0;image=data:image/png,iVBORw0KGgoAAAANSUhEUgAAAQgAAAC/CAMAAAA1kLK0AAAAh1BMVEX///8AAAD8/PzFxcVDQ0NhYWGLi4vu7u7AwMDl5eWUlJRTU1Ofn5+pqan39/fV1dV7e3s3Nzc5OTkXFxckJCQtLS0LCwsREREeHh4yMjIaGhoqKio9PT3s7OwhISEPDw/g4ODNzc2YmJiioqJ0dHRbW1uEhIRMTEy1tbVOTk5tbW1fX1+wsLDOdZt2AAANeElEQVR4nO2dCXujOAyGwWVKT7eQQEIgR9v0ms7//31rWYYcgG0smmZm/c2z6YYYWbwYn7ESBF5eXl5eXuOIxeynXWiL8dM7FS/5yfM0il8vT55lHJ86S7PY6e8OZ2dYHtjpnwzBgXEiitGdFh6d3CkexMQyIZ0GUYwcmZRGSRbE+TE4ZYmDi9SiHJKylBgY1fMDp4QxmjVZzAc4JfKjXgFCBxNjkYDqgeiUMMGUIavKBpGRMt3PaBwSTJUwgjHGhznFoH6Q99Q5yyODwQi1pjJCeF7ZQc1gLhNYv4l0H4+/XLX9/SVef/9Wb78ef+tS20gYeNz+/rXdvjqd/njFA/lc7GpvzvT9JCgzIu3yMnRXMRUveZKm6UwdSXOCOaEsqdbramZO2K9nLu/ybuigfzpk/cDYwzshyyQTL+tIaoKHZhXlGsKkCJNqvojm7iay6WJTP1hNmegnoZr+h5BwByepzBhBFOpgRCoSZVhWZTRfuBvJ4U48qFpB8dC0xapiXpIKIYIoEESKx2QhcVVW5GGSh1VJsCFBhPEOBLQ/vTVv3To9EoqgUAqnl02JyNIkLYwn9SspMriKLCU5lUC9ta1BYFvcx6Huyj9MSFmKMgEvZQYKw2mWFWuKtYWwEeJ/FCuS42avcuh9MKBhkXXlmzr319O1kzYb+Xq9XML/LpfLjZsdtLW5lv82BCPXT6/ivsAlXdYXig1It2LsVzOmavjHvoQG1XUQrwc3lFEoNGFMvrrbAG3LBVzTO465Ak15kJ9BE8uZKhCuU0F7PTgyBzlejOmD7+C6xKo2UAj660ngpOYgkEPinGnTPsu/BA6scYre2y+w4WLYi+g1iKMs9fRQQTQkqBxinA6wnj3QqQjTUoKoR8WdwgmUeg6CDKIe0XAyBwZOjTL6Ew04kGDSqT6DomrgkEB1wukgFAlO5RAgiTEEPRlBItBWvLKPtRuXjQBCkqCVaXF3xNkxH2l1RXbp0lzvlBxwxvVYZBQQ2EulXIMYJQOFsWb6sG9b6hsg2Wo2HMYBEdjPkPY5RZ+r3ZPq5BsaIHged26PA4Is6dRoc+AKhDnTvUfxTECAU+OtBSgQgwrpuYAIxpjrrPV3gxhRHoSSB6HkQSh5EEoehJIHoeRBKHkQSh6EkjuI6rtc+hklziDyqKXb9qHOY0Z9Djo83Nj7e+tQ7gyiS4vWEcfFwc6lL9cFtvbScP9i8UggWuturutwecdFz11XntcT/ft9jQXi6Mrd1yPbJObuC6TrA4RdkBuNBuLg2inrssfuOpcH0H4Z0JWHMUHsXT1tffqQBImDMNacri0Po4L4u+XSoYopukIjW26XnG8w/adl+lilT5e2Drl3qNIhp7R0gUasv1qwxPS3tulj5aT1hf1UF9uDUPIglDwIJQ9CyYNQ8iCUPAglD0LJg1DyIJQ8CKXhICYeBGiJEwkexBKnVM4RBG1d42kgCLgwQcIaBEf7kbVD7usas9sD/brtV8dnERopO9N/vbYOyc10+WShyeVAn9J8Ptck+Tp4t3YGcaj2iob9p8fqn540TDgeSz9P27m6QQVhmqcdMo+rm6cdRMKUeN2RERGE+TrtSRjmq+1JGMpDdwoaCJurtCVhmre3LhM2CdskSCDsrtEulXk9y5KEXbIWiX9vXcNxQcgBRPZA0Qsa+WWbXnXAoo1l+idMX1g7lDmD+DvWNawdOo8utnnX5v9k9Lk07iH9ARB8aTp5dBD82hjk7PQg2PLatBtkbBCmICagk4OAvdGmc0YGoQvU0OjkIExb72BD8LggmNzTbHJYC0LGgjrcQ0oFYQpBJzf450VVzcYCYRk8SgeCodcHOx/JIIJYVySQfL4KF9F6JBAMti2S6ohme+4+TxII4VKs3aWs9jzCCYuKNkOlQGwDy9Bw/SD2apg9OyQQGGJKG2pHppNnrF9JWw0ViBvG7OIg9oI4qF92higg1HbtXq+aehRPqQIKiV0dIf4xY9elF8RRPds4TwAhw0MwudO4U1geIPKIajVI25EBxLpKH2WgQAs7PSBYE1ftKIiWKwgIiRDHGG+rOyFGUZX4swU2nxQSAsQsWs0vuU1NGfSBUBzwwcZDyinnEsExJiHv3VyL8SflpzLsEzSfhJ3ZAkSyCrNL2yCI3SBU/En1pnYUXl1BYPnU15RNXpmMMAcjXPctyU/wvf2iHLSu0VEi9h04cIbXFZmt1LqGrCNj3S0+BpFPHy/fHp31K63SMA+rG0sbW/SzPEz+Jt/eoPCjt8v99HNrh+TjPi2YDJShe+Y5ayLCZJEo11FUUb5rna5CgTNPacHeQnkfizQRSsV1pCkp2FtZhebgs9iBlSmKFXCICFmu80W4EjXNjBhXLaxgrncit+BkMg4gKWBdmYeMm2otvgsnJu4njUNYiTtZrUJSmQKpMJizohI1L5XDFIwxY1CruuPCGKOWB+G5KMhJQoq7KDXZu3ByeZgUVZibB4C72RM+p3IQShJa/EmltClTZA5gowotgvc0qHhB5yAugeo1qoFZZAXpQZtPJ9Ce2/Rq6rEGzySH7MJJV/jnGVe+vp4sT/tAd6NW+idl8OHhqSO9rZNXF9NwIVrQhVXvTpUJXmDwKptTWmI4f8KHrmt0d6jAILZk7GhJYFiHSjglugRAwjZ9LDLk+G0Ht4mZmGFs8auBIPrnI2RBbdVxg7rY0FC8lnJ51rKvjJMoIQEEOAyh70Zc6cLw9UdXMBAEC16nZTKzX+CRE4wkEKLDAsHexlzy6/pVjYEgAp6WEXTOrEdPjBjYE8KRQlkede2zY5p12OhTjLsrDHF9uiU/hvEGz+ubt6JEqV3yJ1z7xNt3XiCEU+5fL/TfxfYgankQSh6E0l8BYu1BSMXhJPcgAvloAAkPAuoIQeIUIGhfL3waCEJVfl+26eXIcDJ8XcMBxOr5Zl/Ph28Nnz2rdYeo86wOW/gjULNCk8uBBZV+qkly+HbuDGKAiL891Wgy2NDgLyKPAWLRk2u+GupNz3f0h3PoPaf3K+ujlIhuEi4cOkm4cOg5q/+r++M8Gl0k3Dh0kHDj0HmeZgvDSHVE+z66cmjt3HDl0HGmbivH+e/XGKvCNcgBRHnVpQvt293xZzTy2pfg6OSLP5i+0qXfV72u0eFFt4mpM4gf6VAN3QBr36H6l7vYoR9reBCNPAglD0LJg1DyIJQ8CCUPQsmDUPIglP5ZENc46+ZBLHF+woNY4qzPOYI4/TBclInvG4a7r2tMX+6O9dI+1HlMHH1EI5+dn97dt47cQOp5XnSnb9tXEz/T7vzbB19WziB+QvNvn7AbA0TfPO3g+P+aedqhvy3RO0/bl8cIIPrnq/tWfgb6KDWMqma+uicXOgjdvP0g7w3z9kPKhDYEU3c+ZBD69YsBJIzrF/YkDKGoOnP6SyrLQRoY4Q/l0nze7+nPvUHHCd7QyK3xRKU7TJ/8sclMppccSmun3JvPc1/XkOXBr2vEWCv9k2ONYSBCD0LqpIOueNBZh/o2EMqpU4LgS6vID936LhB1kLNTPhrmWG4afRMIHi9pEUUcQNyaw4lp9D0gdvu6Twei+KQEFPkeEGy3zc05xsyQ2wsnLKKUU8IOCRDTJAu3VpF2AksQe9GjnEOryJAilk6FMENSvhLDL2XpYlpc2kbssQAhr4EcfonHGPHN5kSIH1GFnzQQsxQfDZtAdYENCM7lXkoSiFXG1a5tK6fCNAvTaWERYaBfT9OmjrDK1AiCK1EejVXV7A23ciqMJnlUvcfulSVjT3uVpU2mZhABx8BqbiBYBhzy3SZ5s1Ocz+ZRVC6KjXPzKfKATfJ5Xod6pYVxlE5xCCe2C704FMQGOeS7kG8mpwTxbT6PhvzoR9sGDMMhKmb2WB8wOawfhqu4XHueD13XeJccoHPEmOql6yPQwlN4ny0kifndHyd9fNz/uQyrKIqqrTp0f3WvP0dNzKQfPRZfPj6Ekd0RFYC8NJitrS+QQ3iv7osiYQhxuhQYFoQVBhmUfCpjJlXz/WPOmoWzbEIL9yIDOeVxU8DwYnUYxKeXGSWcC4YKKvAH3FWkmZIScSYrwhziOZFizMhATjf1dQYyVElvicAui9A7JcuwgpAkJYJIoPEuMQygo5KiAIwFLXoPhOop1IUzbH50gfugsyEqk2sS/BUU4hmCWIUZPCGEB60swmlKLFNCeRWWMaurSVkkNOWhjjcc8FtCnqWsEFYYV01yIPgP8ZdETVO6/848ajZ/rYPxYV+kvzzEUGCawLdXiXOedcUIv4GzSpKEVFEmJYTuW9EqW6HPi93Tr+cgn4x4Lw735uP50km7095uXu7uHK001p7fnsk2PjZsN/7WcmAxxsSNrYZlerGm50O11XQCiXaC/RDxeg7Qh909F/RM1V+bn9boNxPLxpzZjZktnJJmGNdygFT66OEDM5V/9I+iQRDOSgbqJc0ZHjgFhhjTPRfYkTf/0MKATOUrkQPcGMqiQsspFmgnSJhsYDFu0miZxrZzMjqnoOoa0ymu609CnqJ20P66gEumscXPamiknBrpuUCZ4vgzWTuMygFbbKIBuo22Tb1BKIEjc6BLVpandorFI9YPY+ksnfoZeQ5eXl5eXuen/wBkt1pSaTCCdgAAAABJRU5ErkJggg==;" parent="1" vertex="1">
          <mxGeometry x="365.73" y="431" width="56.67" height="41" as="geometry" />
        </mxCell>
        <mxCell id="19GmccGls2YGJMeHXtrM-23" value="" style="shape=image;verticalLabelPosition=bottom;labelBackgroundColor=default;verticalAlign=top;aspect=fixed;imageAspect=0;image=data:image/png,iVBORw0KGgoAAAANSUhEUgAAAQgAAAC/CAMAAAA1kLK0AAAAh1BMVEX///8AAAD8/PzFxcVDQ0NhYWGLi4vu7u7AwMDl5eWUlJRTU1Ofn5+pqan39/fV1dV7e3s3Nzc5OTkXFxckJCQtLS0LCwsREREeHh4yMjIaGhoqKio9PT3s7OwhISEPDw/g4ODNzc2YmJiioqJ0dHRbW1uEhIRMTEy1tbVOTk5tbW1fX1+wsLDOdZt2AAANeElEQVR4nO2dCXujOAyGwWVKT7eQQEIgR9v0ms7//31rWYYcgG0smmZm/c2z6YYYWbwYn7ESBF5eXl5eXuOIxeynXWiL8dM7FS/5yfM0il8vT55lHJ86S7PY6e8OZ2dYHtjpnwzBgXEiitGdFh6d3CkexMQyIZ0GUYwcmZRGSRbE+TE4ZYmDi9SiHJKylBgY1fMDp4QxmjVZzAc4JfKjXgFCBxNjkYDqgeiUMMGUIavKBpGRMt3PaBwSTJUwgjHGhznFoH6Q99Q5yyODwQi1pjJCeF7ZQc1gLhNYv4l0H4+/XLX9/SVef/9Wb78ef+tS20gYeNz+/rXdvjqd/njFA/lc7GpvzvT9JCgzIu3yMnRXMRUveZKm6UwdSXOCOaEsqdbramZO2K9nLu/ybuigfzpk/cDYwzshyyQTL+tIaoKHZhXlGsKkCJNqvojm7iay6WJTP1hNmegnoZr+h5BwByepzBhBFOpgRCoSZVhWZTRfuBvJ4U48qFpB8dC0xapiXpIKIYIoEESKx2QhcVVW5GGSh1VJsCFBhPEOBLQ/vTVv3To9EoqgUAqnl02JyNIkLYwn9SspMriKLCU5lUC9ta1BYFvcx6Huyj9MSFmKMgEvZQYKw2mWFWuKtYWwEeJ/FCuS42avcuh9MKBhkXXlmzr319O1kzYb+Xq9XML/LpfLjZsdtLW5lv82BCPXT6/ivsAlXdYXig1It2LsVzOmavjHvoQG1XUQrwc3lFEoNGFMvrrbAG3LBVzTO465Ak15kJ9BE8uZKhCuU0F7PTgyBzlejOmD7+C6xKo2UAj660ngpOYgkEPinGnTPsu/BA6scYre2y+w4WLYi+g1iKMs9fRQQTQkqBxinA6wnj3QqQjTUoKoR8WdwgmUeg6CDKIe0XAyBwZOjTL6Ew04kGDSqT6DomrgkEB1wukgFAlO5RAgiTEEPRlBItBWvLKPtRuXjQBCkqCVaXF3xNkxH2l1RXbp0lzvlBxwxvVYZBQQ2EulXIMYJQOFsWb6sG9b6hsg2Wo2HMYBEdjPkPY5RZ+r3ZPq5BsaIHged26PA4Is6dRoc+AKhDnTvUfxTECAU+OtBSgQgwrpuYAIxpjrrPV3gxhRHoSSB6HkQSh5EEoehJIHoeRBKHkQSh6EkjuI6rtc+hklziDyqKXb9qHOY0Z9Djo83Nj7e+tQ7gyiS4vWEcfFwc6lL9cFtvbScP9i8UggWuturutwecdFz11XntcT/ft9jQXi6Mrd1yPbJObuC6TrA4RdkBuNBuLg2inrssfuOpcH0H4Z0JWHMUHsXT1tffqQBImDMNacri0Po4L4u+XSoYopukIjW26XnG8w/adl+lilT5e2Drl3qNIhp7R0gUasv1qwxPS3tulj5aT1hf1UF9uDUPIglDwIJQ9CyYNQ8iCUPAglD0LJg1DyIJQ8CKXhICYeBGiJEwkexBKnVM4RBG1d42kgCLgwQcIaBEf7kbVD7usas9sD/brtV8dnERopO9N/vbYOyc10+WShyeVAn9J8Ptck+Tp4t3YGcaj2iob9p8fqn540TDgeSz9P27m6QQVhmqcdMo+rm6cdRMKUeN2RERGE+TrtSRjmq+1JGMpDdwoaCJurtCVhmre3LhM2CdskSCDsrtEulXk9y5KEXbIWiX9vXcNxQcgBRPZA0Qsa+WWbXnXAoo1l+idMX1g7lDmD+DvWNawdOo8utnnX5v9k9Lk07iH9ARB8aTp5dBD82hjk7PQg2PLatBtkbBCmICagk4OAvdGmc0YGoQvU0OjkIExb72BD8LggmNzTbHJYC0LGgjrcQ0oFYQpBJzf450VVzcYCYRk8SgeCodcHOx/JIIJYVySQfL4KF9F6JBAMti2S6ohme+4+TxII4VKs3aWs9jzCCYuKNkOlQGwDy9Bw/SD2apg9OyQQGGJKG2pHppNnrF9JWw0ViBvG7OIg9oI4qF92higg1HbtXq+aehRPqQIKiV0dIf4xY9elF8RRPds4TwAhw0MwudO4U1geIPKIajVI25EBxLpKH2WgQAs7PSBYE1ftKIiWKwgIiRDHGG+rOyFGUZX4swU2nxQSAsQsWs0vuU1NGfSBUBzwwcZDyinnEsExJiHv3VyL8SflpzLsEzSfhJ3ZAkSyCrNL2yCI3SBU/En1pnYUXl1BYPnU15RNXpmMMAcjXPctyU/wvf2iHLSu0VEi9h04cIbXFZmt1LqGrCNj3S0+BpFPHy/fHp31K63SMA+rG0sbW/SzPEz+Jt/eoPCjt8v99HNrh+TjPi2YDJShe+Y5ayLCZJEo11FUUb5rna5CgTNPacHeQnkfizQRSsV1pCkp2FtZhebgs9iBlSmKFXCICFmu80W4EjXNjBhXLaxgrncit+BkMg4gKWBdmYeMm2otvgsnJu4njUNYiTtZrUJSmQKpMJizohI1L5XDFIwxY1CruuPCGKOWB+G5KMhJQoq7KDXZu3ByeZgUVZibB4C72RM+p3IQShJa/EmltClTZA5gowotgvc0qHhB5yAugeo1qoFZZAXpQZtPJ9Ce2/Rq6rEGzySH7MJJV/jnGVe+vp4sT/tAd6NW+idl8OHhqSO9rZNXF9NwIVrQhVXvTpUJXmDwKptTWmI4f8KHrmt0d6jAILZk7GhJYFiHSjglugRAwjZ9LDLk+G0Ht4mZmGFs8auBIPrnI2RBbdVxg7rY0FC8lnJ51rKvjJMoIQEEOAyh70Zc6cLw9UdXMBAEC16nZTKzX+CRE4wkEKLDAsHexlzy6/pVjYEgAp6WEXTOrEdPjBjYE8KRQlkede2zY5p12OhTjLsrDHF9uiU/hvEGz+ubt6JEqV3yJ1z7xNt3XiCEU+5fL/TfxfYgankQSh6E0l8BYu1BSMXhJPcgAvloAAkPAuoIQeIUIGhfL3waCEJVfl+26eXIcDJ8XcMBxOr5Zl/Ph28Nnz2rdYeo86wOW/gjULNCk8uBBZV+qkly+HbuDGKAiL891Wgy2NDgLyKPAWLRk2u+GupNz3f0h3PoPaf3K+ujlIhuEi4cOkm4cOg5q/+r++M8Gl0k3Dh0kHDj0HmeZgvDSHVE+z66cmjt3HDl0HGmbivH+e/XGKvCNcgBRHnVpQvt293xZzTy2pfg6OSLP5i+0qXfV72u0eFFt4mpM4gf6VAN3QBr36H6l7vYoR9reBCNPAglD0LJg1DyIJQ8CCUPQsmDUPIglP5ZENc46+ZBLHF+woNY4qzPOYI4/TBclInvG4a7r2tMX+6O9dI+1HlMHH1EI5+dn97dt47cQOp5XnSnb9tXEz/T7vzbB19WziB+QvNvn7AbA0TfPO3g+P+aedqhvy3RO0/bl8cIIPrnq/tWfgb6KDWMqma+uicXOgjdvP0g7w3z9kPKhDYEU3c+ZBD69YsBJIzrF/YkDKGoOnP6SyrLQRoY4Q/l0nze7+nPvUHHCd7QyK3xRKU7TJ/8sclMppccSmun3JvPc1/XkOXBr2vEWCv9k2ONYSBCD0LqpIOueNBZh/o2EMqpU4LgS6vID936LhB1kLNTPhrmWG4afRMIHi9pEUUcQNyaw4lp9D0gdvu6Twei+KQEFPkeEGy3zc05xsyQ2wsnLKKUU8IOCRDTJAu3VpF2AksQe9GjnEOryJAilk6FMENSvhLDL2XpYlpc2kbssQAhr4EcfonHGPHN5kSIH1GFnzQQsxQfDZtAdYENCM7lXkoSiFXG1a5tK6fCNAvTaWERYaBfT9OmjrDK1AiCK1EejVXV7A23ciqMJnlUvcfulSVjT3uVpU2mZhABx8BqbiBYBhzy3SZ5s1Ocz+ZRVC6KjXPzKfKATfJ5Xod6pYVxlE5xCCe2C704FMQGOeS7kG8mpwTxbT6PhvzoR9sGDMMhKmb2WB8wOawfhqu4XHueD13XeJccoHPEmOql6yPQwlN4ny0kifndHyd9fNz/uQyrKIqqrTp0f3WvP0dNzKQfPRZfPj6Ekd0RFYC8NJitrS+QQ3iv7osiYQhxuhQYFoQVBhmUfCpjJlXz/WPOmoWzbEIL9yIDOeVxU8DwYnUYxKeXGSWcC4YKKvAH3FWkmZIScSYrwhziOZFizMhATjf1dQYyVElvicAui9A7JcuwgpAkJYJIoPEuMQygo5KiAIwFLXoPhOop1IUzbH50gfugsyEqk2sS/BUU4hmCWIUZPCGEB60swmlKLFNCeRWWMaurSVkkNOWhjjcc8FtCnqWsEFYYV01yIPgP8ZdETVO6/848ajZ/rYPxYV+kvzzEUGCawLdXiXOedcUIv4GzSpKEVFEmJYTuW9EqW6HPi93Tr+cgn4x4Lw735uP50km7095uXu7uHK001p7fnsk2PjZsN/7WcmAxxsSNrYZlerGm50O11XQCiXaC/RDxeg7Qh909F/RM1V+bn9boNxPLxpzZjZktnJJmGNdygFT66OEDM5V/9I+iQRDOSgbqJc0ZHjgFhhjTPRfYkTf/0MKATOUrkQPcGMqiQsspFmgnSJhsYDFu0miZxrZzMjqnoOoa0ymu609CnqJ20P66gEumscXPamiknBrpuUCZ4vgzWTuMygFbbKIBuo22Tb1BKIEjc6BLVpandorFI9YPY+ksnfoZeQ5eXl5eXuen/wBkt1pSaTCCdgAAAABJRU5ErkJggg==;" parent="1" vertex="1">
          <mxGeometry x="418" y="390" width="56.67" height="41" as="geometry" />
        </mxCell>
        <mxCell id="19GmccGls2YGJMeHXtrM-24" value="" style="shape=image;verticalLabelPosition=bottom;labelBackgroundColor=default;verticalAlign=top;aspect=fixed;imageAspect=0;image=data:image/png,iVBORw0KGgoAAAANSUhEUgAAAQgAAAC/CAMAAAA1kLK0AAAAh1BMVEX///8AAAD8/PzFxcVDQ0NhYWGLi4vu7u7AwMDl5eWUlJRTU1Ofn5+pqan39/fV1dV7e3s3Nzc5OTkXFxckJCQtLS0LCwsREREeHh4yMjIaGhoqKio9PT3s7OwhISEPDw/g4ODNzc2YmJiioqJ0dHRbW1uEhIRMTEy1tbVOTk5tbW1fX1+wsLDOdZt2AAANeElEQVR4nO2dCXujOAyGwWVKT7eQQEIgR9v0ms7//31rWYYcgG0smmZm/c2z6YYYWbwYn7ESBF5eXl5eXuOIxeynXWiL8dM7FS/5yfM0il8vT55lHJ86S7PY6e8OZ2dYHtjpnwzBgXEiitGdFh6d3CkexMQyIZ0GUYwcmZRGSRbE+TE4ZYmDi9SiHJKylBgY1fMDp4QxmjVZzAc4JfKjXgFCBxNjkYDqgeiUMMGUIavKBpGRMt3PaBwSTJUwgjHGhznFoH6Q99Q5yyODwQi1pjJCeF7ZQc1gLhNYv4l0H4+/XLX9/SVef/9Wb78ef+tS20gYeNz+/rXdvjqd/njFA/lc7GpvzvT9JCgzIu3yMnRXMRUveZKm6UwdSXOCOaEsqdbramZO2K9nLu/ybuigfzpk/cDYwzshyyQTL+tIaoKHZhXlGsKkCJNqvojm7iay6WJTP1hNmegnoZr+h5BwByepzBhBFOpgRCoSZVhWZTRfuBvJ4U48qFpB8dC0xapiXpIKIYIoEESKx2QhcVVW5GGSh1VJsCFBhPEOBLQ/vTVv3To9EoqgUAqnl02JyNIkLYwn9SspMriKLCU5lUC9ta1BYFvcx6Huyj9MSFmKMgEvZQYKw2mWFWuKtYWwEeJ/FCuS42avcuh9MKBhkXXlmzr319O1kzYb+Xq9XML/LpfLjZsdtLW5lv82BCPXT6/ivsAlXdYXig1It2LsVzOmavjHvoQG1XUQrwc3lFEoNGFMvrrbAG3LBVzTO465Ak15kJ9BE8uZKhCuU0F7PTgyBzlejOmD7+C6xKo2UAj660ngpOYgkEPinGnTPsu/BA6scYre2y+w4WLYi+g1iKMs9fRQQTQkqBxinA6wnj3QqQjTUoKoR8WdwgmUeg6CDKIe0XAyBwZOjTL6Ew04kGDSqT6DomrgkEB1wukgFAlO5RAgiTEEPRlBItBWvLKPtRuXjQBCkqCVaXF3xNkxH2l1RXbp0lzvlBxwxvVYZBQQ2EulXIMYJQOFsWb6sG9b6hsg2Wo2HMYBEdjPkPY5RZ+r3ZPq5BsaIHged26PA4Is6dRoc+AKhDnTvUfxTECAU+OtBSgQgwrpuYAIxpjrrPV3gxhRHoSSB6HkQSh5EEoehJIHoeRBKHkQSh6EkjuI6rtc+hklziDyqKXb9qHOY0Z9Djo83Nj7e+tQ7gyiS4vWEcfFwc6lL9cFtvbScP9i8UggWuturutwecdFz11XntcT/ft9jQXi6Mrd1yPbJObuC6TrA4RdkBuNBuLg2inrssfuOpcH0H4Z0JWHMUHsXT1tffqQBImDMNacri0Po4L4u+XSoYopukIjW26XnG8w/adl+lilT5e2Drl3qNIhp7R0gUasv1qwxPS3tulj5aT1hf1UF9uDUPIglDwIJQ9CyYNQ8iCUPAglD0LJg1DyIJQ8CKXhICYeBGiJEwkexBKnVM4RBG1d42kgCLgwQcIaBEf7kbVD7usas9sD/brtV8dnERopO9N/vbYOyc10+WShyeVAn9J8Ptck+Tp4t3YGcaj2iob9p8fqn540TDgeSz9P27m6QQVhmqcdMo+rm6cdRMKUeN2RERGE+TrtSRjmq+1JGMpDdwoaCJurtCVhmre3LhM2CdskSCDsrtEulXk9y5KEXbIWiX9vXcNxQcgBRPZA0Qsa+WWbXnXAoo1l+idMX1g7lDmD+DvWNawdOo8utnnX5v9k9Lk07iH9ARB8aTp5dBD82hjk7PQg2PLatBtkbBCmICagk4OAvdGmc0YGoQvU0OjkIExb72BD8LggmNzTbHJYC0LGgjrcQ0oFYQpBJzf450VVzcYCYRk8SgeCodcHOx/JIIJYVySQfL4KF9F6JBAMti2S6ohme+4+TxII4VKs3aWs9jzCCYuKNkOlQGwDy9Bw/SD2apg9OyQQGGJKG2pHppNnrF9JWw0ViBvG7OIg9oI4qF92higg1HbtXq+aehRPqQIKiV0dIf4xY9elF8RRPds4TwAhw0MwudO4U1geIPKIajVI25EBxLpKH2WgQAs7PSBYE1ftKIiWKwgIiRDHGG+rOyFGUZX4swU2nxQSAsQsWs0vuU1NGfSBUBzwwcZDyinnEsExJiHv3VyL8SflpzLsEzSfhJ3ZAkSyCrNL2yCI3SBU/En1pnYUXl1BYPnU15RNXpmMMAcjXPctyU/wvf2iHLSu0VEi9h04cIbXFZmt1LqGrCNj3S0+BpFPHy/fHp31K63SMA+rG0sbW/SzPEz+Jt/eoPCjt8v99HNrh+TjPi2YDJShe+Y5ayLCZJEo11FUUb5rna5CgTNPacHeQnkfizQRSsV1pCkp2FtZhebgs9iBlSmKFXCICFmu80W4EjXNjBhXLaxgrncit+BkMg4gKWBdmYeMm2otvgsnJu4njUNYiTtZrUJSmQKpMJizohI1L5XDFIwxY1CruuPCGKOWB+G5KMhJQoq7KDXZu3ByeZgUVZibB4C72RM+p3IQShJa/EmltClTZA5gowotgvc0qHhB5yAugeo1qoFZZAXpQZtPJ9Ce2/Rq6rEGzySH7MJJV/jnGVe+vp4sT/tAd6NW+idl8OHhqSO9rZNXF9NwIVrQhVXvTpUJXmDwKptTWmI4f8KHrmt0d6jAILZk7GhJYFiHSjglugRAwjZ9LDLk+G0Ht4mZmGFs8auBIPrnI2RBbdVxg7rY0FC8lnJ51rKvjJMoIQEEOAyh70Zc6cLw9UdXMBAEC16nZTKzX+CRE4wkEKLDAsHexlzy6/pVjYEgAp6WEXTOrEdPjBjYE8KRQlkede2zY5p12OhTjLsrDHF9uiU/hvEGz+ubt6JEqV3yJ1z7xNt3XiCEU+5fL/TfxfYgankQSh6E0l8BYu1BSMXhJPcgAvloAAkPAuoIQeIUIGhfL3waCEJVfl+26eXIcDJ8XcMBxOr5Zl/Ph28Nnz2rdYeo86wOW/gjULNCk8uBBZV+qkly+HbuDGKAiL891Wgy2NDgLyKPAWLRk2u+GupNz3f0h3PoPaf3K+ujlIhuEi4cOkm4cOg5q/+r++M8Gl0k3Dh0kHDj0HmeZgvDSHVE+z66cmjt3HDl0HGmbivH+e/XGKvCNcgBRHnVpQvt293xZzTy2pfg6OSLP5i+0qXfV72u0eFFt4mpM4gf6VAN3QBr36H6l7vYoR9reBCNPAglD0LJg1DyIJQ8CCUPQsmDUPIglP5ZENc46+ZBLHF+woNY4qzPOYI4/TBclInvG4a7r2tMX+6O9dI+1HlMHH1EI5+dn97dt47cQOp5XnSnb9tXEz/T7vzbB19WziB+QvNvn7AbA0TfPO3g+P+aedqhvy3RO0/bl8cIIPrnq/tWfgb6KDWMqma+uicXOgjdvP0g7w3z9kPKhDYEU3c+ZBD69YsBJIzrF/YkDKGoOnP6SyrLQRoY4Q/l0nze7+nPvUHHCd7QyK3xRKU7TJ/8sclMppccSmun3JvPc1/XkOXBr2vEWCv9k2ONYSBCD0LqpIOueNBZh/o2EMqpU4LgS6vID936LhB1kLNTPhrmWG4afRMIHi9pEUUcQNyaw4lp9D0gdvu6Twei+KQEFPkeEGy3zc05xsyQ2wsnLKKUU8IOCRDTJAu3VpF2AksQe9GjnEOryJAilk6FMENSvhLDL2XpYlpc2kbssQAhr4EcfonHGPHN5kSIH1GFnzQQsxQfDZtAdYENCM7lXkoSiFXG1a5tK6fCNAvTaWERYaBfT9OmjrDK1AiCK1EejVXV7A23ciqMJnlUvcfulSVjT3uVpU2mZhABx8BqbiBYBhzy3SZ5s1Ocz+ZRVC6KjXPzKfKATfJ5Xod6pYVxlE5xCCe2C704FMQGOeS7kG8mpwTxbT6PhvzoR9sGDMMhKmb2WB8wOawfhqu4XHueD13XeJccoHPEmOql6yPQwlN4ny0kifndHyd9fNz/uQyrKIqqrTp0f3WvP0dNzKQfPRZfPj6Ekd0RFYC8NJitrS+QQ3iv7osiYQhxuhQYFoQVBhmUfCpjJlXz/WPOmoWzbEIL9yIDOeVxU8DwYnUYxKeXGSWcC4YKKvAH3FWkmZIScSYrwhziOZFizMhATjf1dQYyVElvicAui9A7JcuwgpAkJYJIoPEuMQygo5KiAIwFLXoPhOop1IUzbH50gfugsyEqk2sS/BUU4hmCWIUZPCGEB60swmlKLFNCeRWWMaurSVkkNOWhjjcc8FtCnqWsEFYYV01yIPgP8ZdETVO6/848ajZ/rYPxYV+kvzzEUGCawLdXiXOedcUIv4GzSpKEVFEmJYTuW9EqW6HPi93Tr+cgn4x4Lw735uP50km7095uXu7uHK001p7fnsk2PjZsN/7WcmAxxsSNrYZlerGm50O11XQCiXaC/RDxeg7Qh909F/RM1V+bn9boNxPLxpzZjZktnJJmGNdygFT66OEDM5V/9I+iQRDOSgbqJc0ZHjgFhhjTPRfYkTf/0MKATOUrkQPcGMqiQsspFmgnSJhsYDFu0miZxrZzMjqnoOoa0ymu609CnqJ20P66gEumscXPamiknBrpuUCZ4vgzWTuMygFbbKIBuo22Tb1BKIEjc6BLVpandorFI9YPY+ksnfoZeQ5eXl5eXuen/wBkt1pSaTCCdgAAAABJRU5ErkJggg==;" parent="1" vertex="1">
          <mxGeometry x="438" y="410" width="56.67" height="41" as="geometry" />
        </mxCell>
        <mxCell id="19GmccGls2YGJMeHXtrM-25" value="" style="shape=image;verticalLabelPosition=bottom;labelBackgroundColor=default;verticalAlign=top;aspect=fixed;imageAspect=0;image=data:image/png,iVBORw0KGgoAAAANSUhEUgAAAQgAAAC/CAMAAAA1kLK0AAAAh1BMVEX///8AAAD8/PzFxcVDQ0NhYWGLi4vu7u7AwMDl5eWUlJRTU1Ofn5+pqan39/fV1dV7e3s3Nzc5OTkXFxckJCQtLS0LCwsREREeHh4yMjIaGhoqKio9PT3s7OwhISEPDw/g4ODNzc2YmJiioqJ0dHRbW1uEhIRMTEy1tbVOTk5tbW1fX1+wsLDOdZt2AAANeElEQVR4nO2dCXujOAyGwWVKT7eQQEIgR9v0ms7//31rWYYcgG0smmZm/c2z6YYYWbwYn7ESBF5eXl5eXuOIxeynXWiL8dM7FS/5yfM0il8vT55lHJ86S7PY6e8OZ2dYHtjpnwzBgXEiitGdFh6d3CkexMQyIZ0GUYwcmZRGSRbE+TE4ZYmDi9SiHJKylBgY1fMDp4QxmjVZzAc4JfKjXgFCBxNjkYDqgeiUMMGUIavKBpGRMt3PaBwSTJUwgjHGhznFoH6Q99Q5yyODwQi1pjJCeF7ZQc1gLhNYv4l0H4+/XLX9/SVef/9Wb78ef+tS20gYeNz+/rXdvjqd/njFA/lc7GpvzvT9JCgzIu3yMnRXMRUveZKm6UwdSXOCOaEsqdbramZO2K9nLu/ybuigfzpk/cDYwzshyyQTL+tIaoKHZhXlGsKkCJNqvojm7iay6WJTP1hNmegnoZr+h5BwByepzBhBFOpgRCoSZVhWZTRfuBvJ4U48qFpB8dC0xapiXpIKIYIoEESKx2QhcVVW5GGSh1VJsCFBhPEOBLQ/vTVv3To9EoqgUAqnl02JyNIkLYwn9SspMriKLCU5lUC9ta1BYFvcx6Huyj9MSFmKMgEvZQYKw2mWFWuKtYWwEeJ/FCuS42avcuh9MKBhkXXlmzr319O1kzYb+Xq9XML/LpfLjZsdtLW5lv82BCPXT6/ivsAlXdYXig1It2LsVzOmavjHvoQG1XUQrwc3lFEoNGFMvrrbAG3LBVzTO465Ak15kJ9BE8uZKhCuU0F7PTgyBzlejOmD7+C6xKo2UAj660ngpOYgkEPinGnTPsu/BA6scYre2y+w4WLYi+g1iKMs9fRQQTQkqBxinA6wnj3QqQjTUoKoR8WdwgmUeg6CDKIe0XAyBwZOjTL6Ew04kGDSqT6DomrgkEB1wukgFAlO5RAgiTEEPRlBItBWvLKPtRuXjQBCkqCVaXF3xNkxH2l1RXbp0lzvlBxwxvVYZBQQ2EulXIMYJQOFsWb6sG9b6hsg2Wo2HMYBEdjPkPY5RZ+r3ZPq5BsaIHged26PA4Is6dRoc+AKhDnTvUfxTECAU+OtBSgQgwrpuYAIxpjrrPV3gxhRHoSSB6HkQSh5EEoehJIHoeRBKHkQSh6EkjuI6rtc+hklziDyqKXb9qHOY0Z9Djo83Nj7e+tQ7gyiS4vWEcfFwc6lL9cFtvbScP9i8UggWuturutwecdFz11XntcT/ft9jQXi6Mrd1yPbJObuC6TrA4RdkBuNBuLg2inrssfuOpcH0H4Z0JWHMUHsXT1tffqQBImDMNacri0Po4L4u+XSoYopukIjW26XnG8w/adl+lilT5e2Drl3qNIhp7R0gUasv1qwxPS3tulj5aT1hf1UF9uDUPIglDwIJQ9CyYNQ8iCUPAglD0LJg1DyIJQ8CKXhICYeBGiJEwkexBKnVM4RBG1d42kgCLgwQcIaBEf7kbVD7usas9sD/brtV8dnERopO9N/vbYOyc10+WShyeVAn9J8Ptck+Tp4t3YGcaj2iob9p8fqn540TDgeSz9P27m6QQVhmqcdMo+rm6cdRMKUeN2RERGE+TrtSRjmq+1JGMpDdwoaCJurtCVhmre3LhM2CdskSCDsrtEulXk9y5KEXbIWiX9vXcNxQcgBRPZA0Qsa+WWbXnXAoo1l+idMX1g7lDmD+DvWNawdOo8utnnX5v9k9Lk07iH9ARB8aTp5dBD82hjk7PQg2PLatBtkbBCmICagk4OAvdGmc0YGoQvU0OjkIExb72BD8LggmNzTbHJYC0LGgjrcQ0oFYQpBJzf450VVzcYCYRk8SgeCodcHOx/JIIJYVySQfL4KF9F6JBAMti2S6ohme+4+TxII4VKs3aWs9jzCCYuKNkOlQGwDy9Bw/SD2apg9OyQQGGJKG2pHppNnrF9JWw0ViBvG7OIg9oI4qF92higg1HbtXq+aehRPqQIKiV0dIf4xY9elF8RRPds4TwAhw0MwudO4U1geIPKIajVI25EBxLpKH2WgQAs7PSBYE1ftKIiWKwgIiRDHGG+rOyFGUZX4swU2nxQSAsQsWs0vuU1NGfSBUBzwwcZDyinnEsExJiHv3VyL8SflpzLsEzSfhJ3ZAkSyCrNL2yCI3SBU/En1pnYUXl1BYPnU15RNXpmMMAcjXPctyU/wvf2iHLSu0VEi9h04cIbXFZmt1LqGrCNj3S0+BpFPHy/fHp31K63SMA+rG0sbW/SzPEz+Jt/eoPCjt8v99HNrh+TjPi2YDJShe+Y5ayLCZJEo11FUUb5rna5CgTNPacHeQnkfizQRSsV1pCkp2FtZhebgs9iBlSmKFXCICFmu80W4EjXNjBhXLaxgrncit+BkMg4gKWBdmYeMm2otvgsnJu4njUNYiTtZrUJSmQKpMJizohI1L5XDFIwxY1CruuPCGKOWB+G5KMhJQoq7KDXZu3ByeZgUVZibB4C72RM+p3IQShJa/EmltClTZA5gowotgvc0qHhB5yAugeo1qoFZZAXpQZtPJ9Ce2/Rq6rEGzySH7MJJV/jnGVe+vp4sT/tAd6NW+idl8OHhqSO9rZNXF9NwIVrQhVXvTpUJXmDwKptTWmI4f8KHrmt0d6jAILZk7GhJYFiHSjglugRAwjZ9LDLk+G0Ht4mZmGFs8auBIPrnI2RBbdVxg7rY0FC8lnJ51rKvjJMoIQEEOAyh70Zc6cLw9UdXMBAEC16nZTKzX+CRE4wkEKLDAsHexlzy6/pVjYEgAp6WEXTOrEdPjBjYE8KRQlkede2zY5p12OhTjLsrDHF9uiU/hvEGz+ubt6JEqV3yJ1z7xNt3XiCEU+5fL/TfxfYgankQSh6E0l8BYu1BSMXhJPcgAvloAAkPAuoIQeIUIGhfL3waCEJVfl+26eXIcDJ8XcMBxOr5Zl/Ph28Nnz2rdYeo86wOW/gjULNCk8uBBZV+qkly+HbuDGKAiL891Wgy2NDgLyKPAWLRk2u+GupNz3f0h3PoPaf3K+ujlIhuEi4cOkm4cOg5q/+r++M8Gl0k3Dh0kHDj0HmeZgvDSHVE+z66cmjt3HDl0HGmbivH+e/XGKvCNcgBRHnVpQvt293xZzTy2pfg6OSLP5i+0qXfV72u0eFFt4mpM4gf6VAN3QBr36H6l7vYoR9reBCNPAglD0LJg1DyIJQ8CCUPQsmDUPIglP5ZENc46+ZBLHF+woNY4qzPOYI4/TBclInvG4a7r2tMX+6O9dI+1HlMHH1EI5+dn97dt47cQOp5XnSnb9tXEz/T7vzbB19WziB+QvNvn7AbA0TfPO3g+P+aedqhvy3RO0/bl8cIIPrnq/tWfgb6KDWMqma+uicXOgjdvP0g7w3z9kPKhDYEU3c+ZBD69YsBJIzrF/YkDKGoOnP6SyrLQRoY4Q/l0nze7+nPvUHHCd7QyK3xRKU7TJ/8sclMppccSmun3JvPc1/XkOXBr2vEWCv9k2ONYSBCD0LqpIOueNBZh/o2EMqpU4LgS6vID936LhB1kLNTPhrmWG4afRMIHi9pEUUcQNyaw4lp9D0gdvu6Twei+KQEFPkeEGy3zc05xsyQ2wsnLKKUU8IOCRDTJAu3VpF2AksQe9GjnEOryJAilk6FMENSvhLDL2XpYlpc2kbssQAhr4EcfonHGPHN5kSIH1GFnzQQsxQfDZtAdYENCM7lXkoSiFXG1a5tK6fCNAvTaWERYaBfT9OmjrDK1AiCK1EejVXV7A23ciqMJnlUvcfulSVjT3uVpU2mZhABx8BqbiBYBhzy3SZ5s1Ocz+ZRVC6KjXPzKfKATfJ5Xod6pYVxlE5xCCe2C704FMQGOeS7kG8mpwTxbT6PhvzoR9sGDMMhKmb2WB8wOawfhqu4XHueD13XeJccoHPEmOql6yPQwlN4ny0kifndHyd9fNz/uQyrKIqqrTp0f3WvP0dNzKQfPRZfPj6Ekd0RFYC8NJitrS+QQ3iv7osiYQhxuhQYFoQVBhmUfCpjJlXz/WPOmoWzbEIL9yIDOeVxU8DwYnUYxKeXGSWcC4YKKvAH3FWkmZIScSYrwhziOZFizMhATjf1dQYyVElvicAui9A7JcuwgpAkJYJIoPEuMQygo5KiAIwFLXoPhOop1IUzbH50gfugsyEqk2sS/BUU4hmCWIUZPCGEB60swmlKLFNCeRWWMaurSVkkNOWhjjcc8FtCnqWsEFYYV01yIPgP8ZdETVO6/848ajZ/rYPxYV+kvzzEUGCawLdXiXOedcUIv4GzSpKEVFEmJYTuW9EqW6HPi93Tr+cgn4x4Lw735uP50km7095uXu7uHK001p7fnsk2PjZsN/7WcmAxxsSNrYZlerGm50O11XQCiXaC/RDxeg7Qh909F/RM1V+bn9boNxPLxpzZjZktnJJmGNdygFT66OEDM5V/9I+iQRDOSgbqJc0ZHjgFhhjTPRfYkTf/0MKATOUrkQPcGMqiQsspFmgnSJhsYDFu0miZxrZzMjqnoOoa0ymu609CnqJ20P66gEumscXPamiknBrpuUCZ4vgzWTuMygFbbKIBuo22Tb1BKIEjc6BLVpandorFI9YPY+ksnfoZeQ5eXl5eXuen/wBkt1pSaTCCdgAAAABJRU5ErkJggg==;" parent="1" vertex="1">
          <mxGeometry x="458" y="431" width="56.67" height="41" as="geometry" />
        </mxCell>
        <mxCell id="19GmccGls2YGJMeHXtrM-27" style="edgeStyle=orthogonalEdgeStyle;rounded=0;orthogonalLoop=1;jettySize=auto;html=1;entryX=0.011;entryY=0.59;entryDx=0;entryDy=0;entryPerimeter=0;" parent="1" source="19GmccGls2YGJMeHXtrM-14" target="19GmccGls2YGJMeHXtrM-8" edge="1">
          <mxGeometry relative="1" as="geometry" />
        </mxCell>
        <mxCell id="19GmccGls2YGJMeHXtrM-28" value="&lt;b&gt;&lt;font style=&quot;font-size: 10px;&quot;&gt;@email&lt;/font&gt;&lt;/b&gt;" style="html=1;verticalLabelPosition=bottom;align=center;labelBackgroundColor=#ffffff;verticalAlign=top;strokeWidth=2;strokeColor=#0080F0;shadow=0;dashed=0;shape=mxgraph.ios7.icons.mail;" parent="1" vertex="1">
          <mxGeometry x="-153.2" y="441" width="60" height="32" as="geometry" />
        </mxCell>
        <mxCell id="19GmccGls2YGJMeHXtrM-29" style="edgeStyle=orthogonalEdgeStyle;rounded=0;orthogonalLoop=1;jettySize=auto;html=1;entryX=-0.086;entryY=0.5;entryDx=0;entryDy=0;entryPerimeter=0;" parent="1" source="19GmccGls2YGJMeHXtrM-28" target="19GmccGls2YGJMeHXtrM-2" edge="1">
          <mxGeometry relative="1" as="geometry" />
        </mxCell>
        <mxCell id="19GmccGls2YGJMeHXtrM-30" value="&lt;b&gt;&lt;font style=&quot;font-size: 10px;&quot;&gt;Sandbox&lt;/font&gt;&lt;/b&gt;" style="text;html=1;align=center;verticalAlign=middle;whiteSpace=wrap;rounded=0;" parent="1" vertex="1">
          <mxGeometry x="394.67" y="463.5" width="60" height="30" as="geometry" />
        </mxCell>
        <mxCell id="19GmccGls2YGJMeHXtrM-31" value="&lt;b&gt;&lt;u&gt;&lt;font style=&quot;font-size: 18px;&quot;&gt;FUENTES/INPUTS&lt;/font&gt;&lt;/u&gt;&lt;/b&gt;" style="text;html=1;align=center;verticalAlign=middle;whiteSpace=wrap;rounded=0;" parent="1" vertex="1">
          <mxGeometry x="-106.88" y="39" width="169.75" height="30" as="geometry" />
        </mxCell>
        <mxCell id="19GmccGls2YGJMeHXtrM-32" value="&lt;b style=&quot;&quot;&gt;&lt;u style=&quot;&quot;&gt;&lt;font style=&quot;font-size: 18px;&quot;&gt;INGESTA&lt;/font&gt;&lt;/u&gt;&lt;/b&gt;" style="text;html=1;align=center;verticalAlign=middle;whiteSpace=wrap;rounded=0;" parent="1" vertex="1">
          <mxGeometry x="162.9" y="39" width="136.2" height="30" as="geometry" />
        </mxCell>
        <mxCell id="19GmccGls2YGJMeHXtrM-33" value="&lt;b style=&quot;&quot;&gt;&lt;u style=&quot;&quot;&gt;&lt;font style=&quot;font-size: 18px;&quot;&gt;CREACIÃN DATASETS&lt;/font&gt;&lt;/u&gt;&lt;/b&gt;" style="text;html=1;align=center;verticalAlign=middle;whiteSpace=wrap;rounded=0;" parent="1" vertex="1">
          <mxGeometry x="438" y="39" width="225.33" height="30" as="geometry" />
        </mxCell>
        <mxCell id="19GmccGls2YGJMeHXtrM-34" value="&lt;span style=&quot;font-size: 10px;&quot;&gt;&lt;b&gt;IN1&lt;/b&gt;&lt;/span&gt;" style="text;html=1;align=center;verticalAlign=middle;whiteSpace=wrap;rounded=0;" parent="1" vertex="1">
          <mxGeometry x="354.67" y="390" width="40" height="20" as="geometry" />
        </mxCell>
        <mxCell id="19GmccGls2YGJMeHXtrM-35" value="&lt;span style=&quot;font-size: 10px;&quot;&gt;&lt;b&gt;IN2&lt;/b&gt;&lt;/span&gt;" style="text;html=1;align=center;verticalAlign=middle;whiteSpace=wrap;rounded=0;" parent="1" vertex="1">
          <mxGeometry x="383.4" y="412" width="40" height="20" as="geometry" />
        </mxCell>
        <mxCell id="19GmccGls2YGJMeHXtrM-36" value="&lt;span style=&quot;font-size: 10px;&quot;&gt;&lt;b&gt;IN3&lt;/b&gt;&lt;/span&gt;" style="text;html=1;align=center;verticalAlign=middle;whiteSpace=wrap;rounded=0;" parent="1" vertex="1">
          <mxGeometry x="408.67" y="443.5" width="40" height="20" as="geometry" />
        </mxCell>
        <mxCell id="19GmccGls2YGJMeHXtrM-37" value="&lt;span style=&quot;font-size: 10px;&quot;&gt;&lt;b&gt;IN4&lt;/b&gt;&lt;/span&gt;" style="text;html=1;align=center;verticalAlign=middle;whiteSpace=wrap;rounded=0;" parent="1" vertex="1">
          <mxGeometry x="466.3399999999999" y="390" width="40" height="20" as="geometry" />
        </mxCell>
        <mxCell id="19GmccGls2YGJMeHXtrM-38" value="&lt;span style=&quot;font-size: 10px;&quot;&gt;&lt;b&gt;IN5&lt;/b&gt;&lt;/span&gt;" style="text;html=1;align=center;verticalAlign=middle;whiteSpace=wrap;rounded=0;" parent="1" vertex="1">
          <mxGeometry x="487" y="412" width="40" height="20" as="geometry" />
        </mxCell>
        <mxCell id="19GmccGls2YGJMeHXtrM-39" value="&lt;span style=&quot;font-size: 10px;&quot;&gt;&lt;b&gt;INn&lt;/b&gt;&lt;/span&gt;" style="text;html=1;align=center;verticalAlign=middle;whiteSpace=wrap;rounded=0;" parent="1" vertex="1">
          <mxGeometry x="487" y="463.5" width="40" height="20" as="geometry" />
        </mxCell>
        <mxCell id="19GmccGls2YGJMeHXtrM-40" value="" style="rounded=1;whiteSpace=wrap;html=1;" parent="1" vertex="1">
          <mxGeometry x="540" y="379" width="264" height="113" as="geometry" />
        </mxCell>
        <mxCell id="19GmccGls2YGJMeHXtrM-48" value="&lt;b&gt;&lt;font style=&quot;font-size: 10px;&quot;&gt;Sandbox&lt;/font&gt;&lt;/b&gt;" style="text;html=1;align=center;verticalAlign=middle;whiteSpace=wrap;rounded=0;" parent="1" vertex="1">
          <mxGeometry x="638.4000000000001" y="462" width="60" height="30" as="geometry" />
        </mxCell>
        <mxCell id="19GmccGls2YGJMeHXtrM-57" value="DS M1" style="shape=image;verticalLabelPosition=bottom;labelBackgroundColor=default;verticalAlign=top;aspect=fixed;imageAspect=0;image=data:image/png,iVBORw0KGgoAAAANSUhEUgAAAMgAAADICAMAAACahl6sAAAAeFBMVEX///8AAADT09PX19d7e3srKyv7+/uDg4NTU1MnJyerq6tXV1enp6cEBATa2touLi729vbh4eFAQEBoaGjAwMDKysogICCHh4exsbHp6enw8PAbGxthYWFsbGwODg7ExMSOjo4VFRVISEienp5ycnI1NTW6urqfn59u9qTRAAAFqklEQVR4nO2daXuyOhCGXaEuKC4V3BBqq///H55DSCKDSIgQ4PV6no/TScktkAnZpteDIAiCIAiCIAiCIOhflrsYtKHh6lAfg3UZrYN+a4rWo0sdGPvRsT0IoaO9r4jhjpy2IRIFI7cKx23XNsBDuwoPmN125am8NzGsU9s1z2rzHkjnOPr98zscHXuuEoX6HNt0+eh0vw2GOdpwh0neH2vQ4HI/k+Z/q8vhpoov/ZduI+4y1v+lysv/e9Rlp9sKj2RRJyzhZhSk1wsf0czWK7mXJYPCm9kQSG8r+0iBXoyXN8S5lfIzDdLbyl9W75bINyQs9msMpBfKt0SnlGyyllaxY3Mg1lLU6VujlHyyXrdX1NE8SM9/59la8zKR4oY0CWKJx/1Ho1DEyyg7Nw2C9ETwjcoXOYi7eFV5NglyF7UqHxNXooiyQ9AkiGyBVqWLDEWRgcozH2Q7j0U/hCyfGel/dBMjrdl+GtumT4FvIGo1LA1SvkguiGjyyYMpnnCCxxuVIE0ienlPvarmQb64cZY2Trgx3Xha4jrTMhcHCEAA0jWQGTee0kbR5wvTRtE3T3fpFuLi2XDRPMj3zom1I93UacSMSxIevIAZf0hLe2I252nEpHkQQwIIQAwJIAAxJIAAxJAA8kkgm5FCciRP5ViDNhVAuimAdE0A6ZoA0jW9ATIZKxRxR0flWIN2FUA+JrIDxIQAAhBDAghADAkgADGk2kDCr1gzMg+VC3I4M89fsmNicWJGm6w3usyYkS558Zlx9rTCqi4QsRTkqAQ5c+Nv2ijGW0ilI25ML4cQyymd7BqOukDm3OYoQTo+qwsQgACkuMiF28i6W/1W6542RtyYbtJlq5Xd71ZbHLnOYp1KxJFf5knjyGrDjB6JI98nZszGEaanJeCI7AAxJIAAxJAAAhBDAghADKkuEGszibVMd7nzQRZr5rkmC3cvf8z4RXqS8yUznklP0hvHtnFoCkRs1iI7g3JBxLZrsrFJbFMl9RPbJNM9XbkLB4MPAAEIQCqBCONSCSIOWSCnZgg6MqQ7ybnOgTdlgbHNYhc7VkhaxVwQ68o87yQ6HEJmpEPTK48Z6Ua/ITN6T9VFZAeIIQEEIIYEEIAYEkA+F8SKRT1fgOR4ahitXM/aQNxk8swhfdpckEvEbBGZ25onndoJGZGwk2m2Nd2rm/xLsmW5ThAx+BAoQQp3T5PfoZXd0x/zYQUQgACkuMiKDwqQU6FyQa7cSNYBiOUQ6pNq+K6ESTaS1BYQV9NYPmnz8wPihXnSk8msGzPSSrg+M9KG9sCM/tOJxeiiAMSQAAIQQwIIQAwJIB8L4rK0DQvimQ+yZ56ZefIVM2Z6UEnqCTo3ZQ1Zeoin0Ye6QPb8/ETyJZ4L4ief4g6ZnfISx4CcOMm/7ndpZosvLVib6v1OuU39PSIGH8j3yJgb04MP8nskjSyP7aT3Hh9WAAFIUyAf87Lv+aAAWYVV2PyS/Qb87NyA1IIP8+7S0cXiIxLrUrV6A6TnsrQNdKDgRUBknpnYlxgz6zJWzEgjhrWIbdn7gS4KQIypCsibh3ubkazV8+vzSnKuRZnGoJXj1ssn7nBFkbnKs0kQMaSscQC+XI+rzFLUJIhYTnxUu0qJTYPKXB9NJomI+LV0kkR0Om2HToIxsQu0/6dw7HoiFat7qW08USOt1DaPtGJOccKLxkBuMtmQXuq6/SPdUifSP90e9dHMvSlf974TFuS3aQbE8t5OyCWnJGMt/ZcoTYBY/vJRF+0UaTRp3XFz3eZmWRXni+5MpXHdXjfppHWOTpPF5fU7qFCf4zEz3iG9ldjxkY2mM/pV1zlf3Xq6CvMZKnTpUDraSaV8x67dYrLmtAK7UoLg/3WwO3BXdl7VlM1M3/ZPi/mnox/7jeDxUu5+YShRa7FWVZ8oCIIgCIIgCIIgCILa1X/BaGlpO9kTDwAAAABJRU5ErkJggg==;fontSize=10;fontStyle=1" parent="1" vertex="1">
          <mxGeometry x="547" y="381.5" width="64" height="64" as="geometry" />
        </mxCell>
        <mxCell id="19GmccGls2YGJMeHXtrM-58" value="DS M2" style="shape=image;verticalLabelPosition=bottom;labelBackgroundColor=default;verticalAlign=top;aspect=fixed;imageAspect=0;image=data:image/png,iVBORw0KGgoAAAANSUhEUgAAAMgAAADICAMAAACahl6sAAAAeFBMVEX///8AAADT09PX19d7e3srKyv7+/uDg4NTU1MnJyerq6tXV1enp6cEBATa2touLi729vbh4eFAQEBoaGjAwMDKysogICCHh4exsbHp6enw8PAbGxthYWFsbGwODg7ExMSOjo4VFRVISEienp5ycnI1NTW6urqfn59u9qTRAAAFqklEQVR4nO2daXuyOhCGXaEuKC4V3BBqq///H55DSCKDSIgQ4PV6no/TScktkAnZpteDIAiCIAiCIAiCIOhflrsYtKHh6lAfg3UZrYN+a4rWo0sdGPvRsT0IoaO9r4jhjpy2IRIFI7cKx23XNsBDuwoPmN125am8NzGsU9s1z2rzHkjnOPr98zscHXuuEoX6HNt0+eh0vw2GOdpwh0neH2vQ4HI/k+Z/q8vhpoov/ZduI+4y1v+lysv/e9Rlp9sKj2RRJyzhZhSk1wsf0czWK7mXJYPCm9kQSG8r+0iBXoyXN8S5lfIzDdLbyl9W75bINyQs9msMpBfKt0SnlGyyllaxY3Mg1lLU6VujlHyyXrdX1NE8SM9/59la8zKR4oY0CWKJx/1Ho1DEyyg7Nw2C9ETwjcoXOYi7eFV5NglyF7UqHxNXooiyQ9AkiGyBVqWLDEWRgcozH2Q7j0U/hCyfGel/dBMjrdl+GtumT4FvIGo1LA1SvkguiGjyyYMpnnCCxxuVIE0ienlPvarmQb64cZY2Trgx3Xha4jrTMhcHCEAA0jWQGTee0kbR5wvTRtE3T3fpFuLi2XDRPMj3zom1I93UacSMSxIevIAZf0hLe2I252nEpHkQQwIIQAwJIAAxJIAAxJAA8kkgm5FCciRP5ViDNhVAuimAdE0A6ZoA0jW9ATIZKxRxR0flWIN2FUA+JrIDxIQAAhBDAghADAkgADGk2kDCr1gzMg+VC3I4M89fsmNicWJGm6w3usyYkS558Zlx9rTCqi4QsRTkqAQ5c+Nv2ijGW0ilI25ML4cQyymd7BqOukDm3OYoQTo+qwsQgACkuMiF28i6W/1W6542RtyYbtJlq5Xd71ZbHLnOYp1KxJFf5knjyGrDjB6JI98nZszGEaanJeCI7AAxJIAAxJAAAhBDAghADKkuEGszibVMd7nzQRZr5rkmC3cvf8z4RXqS8yUznklP0hvHtnFoCkRs1iI7g3JBxLZrsrFJbFMl9RPbJNM9XbkLB4MPAAEIQCqBCONSCSIOWSCnZgg6MqQ7ybnOgTdlgbHNYhc7VkhaxVwQ68o87yQ6HEJmpEPTK48Z6Ua/ITN6T9VFZAeIIQEEIIYEEIAYEkA+F8SKRT1fgOR4ahitXM/aQNxk8swhfdpckEvEbBGZ25onndoJGZGwk2m2Nd2rm/xLsmW5ThAx+BAoQQp3T5PfoZXd0x/zYQUQgACkuMiKDwqQU6FyQa7cSNYBiOUQ6pNq+K6ESTaS1BYQV9NYPmnz8wPihXnSk8msGzPSSrg+M9KG9sCM/tOJxeiiAMSQAAIQQwIIQAwJIB8L4rK0DQvimQ+yZ56ZefIVM2Z6UEnqCTo3ZQ1Zeoin0Ye6QPb8/ETyJZ4L4ief4g6ZnfISx4CcOMm/7ndpZosvLVib6v1OuU39PSIGH8j3yJgb04MP8nskjSyP7aT3Hh9WAAFIUyAf87Lv+aAAWYVV2PyS/Qb87NyA1IIP8+7S0cXiIxLrUrV6A6TnsrQNdKDgRUBknpnYlxgz6zJWzEgjhrWIbdn7gS4KQIypCsibh3ubkazV8+vzSnKuRZnGoJXj1ssn7nBFkbnKs0kQMaSscQC+XI+rzFLUJIhYTnxUu0qJTYPKXB9NJomI+LV0kkR0Om2HToIxsQu0/6dw7HoiFat7qW08USOt1DaPtGJOccKLxkBuMtmQXuq6/SPdUifSP90e9dHMvSlf974TFuS3aQbE8t5OyCWnJGMt/ZcoTYBY/vJRF+0UaTRp3XFz3eZmWRXni+5MpXHdXjfppHWOTpPF5fU7qFCf4zEz3iG9ldjxkY2mM/pV1zlf3Xq6CvMZKnTpUDraSaV8x67dYrLmtAK7UoLg/3WwO3BXdl7VlM1M3/ZPi/mnox/7jeDxUu5+YShRa7FWVZ8oCIIgCIIgCIIgCILa1X/BaGlpO9kTDwAAAABJRU5ErkJggg==;fontSize=10;fontStyle=1" parent="1" vertex="1">
          <mxGeometry x="604" y="381.5" width="64" height="64" as="geometry" />
        </mxCell>
        <mxCell id="19GmccGls2YGJMeHXtrM-59" value="DS M3" style="shape=image;verticalLabelPosition=bottom;labelBackgroundColor=default;verticalAlign=top;aspect=fixed;imageAspect=0;image=data:image/png,iVBORw0KGgoAAAANSUhEUgAAAMgAAADICAMAAACahl6sAAAAeFBMVEX///8AAADT09PX19d7e3srKyv7+/uDg4NTU1MnJyerq6tXV1enp6cEBATa2touLi729vbh4eFAQEBoaGjAwMDKysogICCHh4exsbHp6enw8PAbGxthYWFsbGwODg7ExMSOjo4VFRVISEienp5ycnI1NTW6urqfn59u9qTRAAAFqklEQVR4nO2daXuyOhCGXaEuKC4V3BBqq///H55DSCKDSIgQ4PV6no/TScktkAnZpteDIAiCIAiCIAiCIOhflrsYtKHh6lAfg3UZrYN+a4rWo0sdGPvRsT0IoaO9r4jhjpy2IRIFI7cKx23XNsBDuwoPmN125am8NzGsU9s1z2rzHkjnOPr98zscHXuuEoX6HNt0+eh0vw2GOdpwh0neH2vQ4HI/k+Z/q8vhpoov/ZduI+4y1v+lysv/e9Rlp9sKj2RRJyzhZhSk1wsf0czWK7mXJYPCm9kQSG8r+0iBXoyXN8S5lfIzDdLbyl9W75bINyQs9msMpBfKt0SnlGyyllaxY3Mg1lLU6VujlHyyXrdX1NE8SM9/59la8zKR4oY0CWKJx/1Ho1DEyyg7Nw2C9ETwjcoXOYi7eFV5NglyF7UqHxNXooiyQ9AkiGyBVqWLDEWRgcozH2Q7j0U/hCyfGel/dBMjrdl+GtumT4FvIGo1LA1SvkguiGjyyYMpnnCCxxuVIE0ienlPvarmQb64cZY2Trgx3Xha4jrTMhcHCEAA0jWQGTee0kbR5wvTRtE3T3fpFuLi2XDRPMj3zom1I93UacSMSxIevIAZf0hLe2I252nEpHkQQwIIQAwJIAAxJIAAxJAA8kkgm5FCciRP5ViDNhVAuimAdE0A6ZoA0jW9ATIZKxRxR0flWIN2FUA+JrIDxIQAAhBDAghADAkgADGk2kDCr1gzMg+VC3I4M89fsmNicWJGm6w3usyYkS558Zlx9rTCqi4QsRTkqAQ5c+Nv2ijGW0ilI25ML4cQyymd7BqOukDm3OYoQTo+qwsQgACkuMiF28i6W/1W6542RtyYbtJlq5Xd71ZbHLnOYp1KxJFf5knjyGrDjB6JI98nZszGEaanJeCI7AAxJIAAxJAAAhBDAghADKkuEGszibVMd7nzQRZr5rkmC3cvf8z4RXqS8yUznklP0hvHtnFoCkRs1iI7g3JBxLZrsrFJbFMl9RPbJNM9XbkLB4MPAAEIQCqBCONSCSIOWSCnZgg6MqQ7ybnOgTdlgbHNYhc7VkhaxVwQ68o87yQ6HEJmpEPTK48Z6Ua/ITN6T9VFZAeIIQEEIIYEEIAYEkA+F8SKRT1fgOR4ahitXM/aQNxk8swhfdpckEvEbBGZ25onndoJGZGwk2m2Nd2rm/xLsmW5ThAx+BAoQQp3T5PfoZXd0x/zYQUQgACkuMiKDwqQU6FyQa7cSNYBiOUQ6pNq+K6ESTaS1BYQV9NYPmnz8wPihXnSk8msGzPSSrg+M9KG9sCM/tOJxeiiAMSQAAIQQwIIQAwJIB8L4rK0DQvimQ+yZ56ZefIVM2Z6UEnqCTo3ZQ1Zeoin0Ye6QPb8/ETyJZ4L4ief4g6ZnfISx4CcOMm/7ndpZosvLVib6v1OuU39PSIGH8j3yJgb04MP8nskjSyP7aT3Hh9WAAFIUyAf87Lv+aAAWYVV2PyS/Qb87NyA1IIP8+7S0cXiIxLrUrV6A6TnsrQNdKDgRUBknpnYlxgz6zJWzEgjhrWIbdn7gS4KQIypCsibh3ubkazV8+vzSnKuRZnGoJXj1ssn7nBFkbnKs0kQMaSscQC+XI+rzFLUJIhYTnxUu0qJTYPKXB9NJomI+LV0kkR0Om2HToIxsQu0/6dw7HoiFat7qW08USOt1DaPtGJOccKLxkBuMtmQXuq6/SPdUifSP90e9dHMvSlf974TFuS3aQbE8t5OyCWnJGMt/ZcoTYBY/vJRF+0UaTRp3XFz3eZmWRXni+5MpXHdXjfppHWOTpPF5fU7qFCf4zEz3iG9ldjxkY2mM/pV1zlf3Xq6CvMZKnTpUDraSaV8x67dYrLmtAK7UoLg/3WwO3BXdl7VlM1M3/ZPi/mnox/7jeDxUu5+YShRa7FWVZ8oCIIgCIIgCIIgCILa1X/BaGlpO9kTDwAAAABJRU5ErkJggg==;fontSize=10;fontStyle=1" parent="1" vertex="1">
          <mxGeometry x="664" y="381.5" width="64" height="64" as="geometry" />
        </mxCell>
        <mxCell id="19GmccGls2YGJMeHXtrM-60" value="DS Mn" style="shape=image;verticalLabelPosition=bottom;labelBackgroundColor=default;verticalAlign=top;aspect=fixed;imageAspect=0;image=data:image/png,iVBORw0KGgoAAAANSUhEUgAAAMgAAADICAMAAACahl6sAAAAeFBMVEX///8AAADT09PX19d7e3srKyv7+/uDg4NTU1MnJyerq6tXV1enp6cEBATa2touLi729vbh4eFAQEBoaGjAwMDKysogICCHh4exsbHp6enw8PAbGxthYWFsbGwODg7ExMSOjo4VFRVISEienp5ycnI1NTW6urqfn59u9qTRAAAFqklEQVR4nO2daXuyOhCGXaEuKC4V3BBqq///H55DSCKDSIgQ4PV6no/TScktkAnZpteDIAiCIAiCIAiCIOhflrsYtKHh6lAfg3UZrYN+a4rWo0sdGPvRsT0IoaO9r4jhjpy2IRIFI7cKx23XNsBDuwoPmN125am8NzGsU9s1z2rzHkjnOPr98zscHXuuEoX6HNt0+eh0vw2GOdpwh0neH2vQ4HI/k+Z/q8vhpoov/ZduI+4y1v+lysv/e9Rlp9sKj2RRJyzhZhSk1wsf0czWK7mXJYPCm9kQSG8r+0iBXoyXN8S5lfIzDdLbyl9W75bINyQs9msMpBfKt0SnlGyyllaxY3Mg1lLU6VujlHyyXrdX1NE8SM9/59la8zKR4oY0CWKJx/1Ho1DEyyg7Nw2C9ETwjcoXOYi7eFV5NglyF7UqHxNXooiyQ9AkiGyBVqWLDEWRgcozH2Q7j0U/hCyfGel/dBMjrdl+GtumT4FvIGo1LA1SvkguiGjyyYMpnnCCxxuVIE0ienlPvarmQb64cZY2Trgx3Xha4jrTMhcHCEAA0jWQGTee0kbR5wvTRtE3T3fpFuLi2XDRPMj3zom1I93UacSMSxIevIAZf0hLe2I252nEpHkQQwIIQAwJIAAxJIAAxJAA8kkgm5FCciRP5ViDNhVAuimAdE0A6ZoA0jW9ATIZKxRxR0flWIN2FUA+JrIDxIQAAhBDAghADAkgADGk2kDCr1gzMg+VC3I4M89fsmNicWJGm6w3usyYkS558Zlx9rTCqi4QsRTkqAQ5c+Nv2ijGW0ilI25ML4cQyymd7BqOukDm3OYoQTo+qwsQgACkuMiF28i6W/1W6542RtyYbtJlq5Xd71ZbHLnOYp1KxJFf5knjyGrDjB6JI98nZszGEaanJeCI7AAxJIAAxJAAAhBDAghADKkuEGszibVMd7nzQRZr5rkmC3cvf8z4RXqS8yUznklP0hvHtnFoCkRs1iI7g3JBxLZrsrFJbFMl9RPbJNM9XbkLB4MPAAEIQCqBCONSCSIOWSCnZgg6MqQ7ybnOgTdlgbHNYhc7VkhaxVwQ68o87yQ6HEJmpEPTK48Z6Ua/ITN6T9VFZAeIIQEEIIYEEIAYEkA+F8SKRT1fgOR4ahitXM/aQNxk8swhfdpckEvEbBGZ25onndoJGZGwk2m2Nd2rm/xLsmW5ThAx+BAoQQp3T5PfoZXd0x/zYQUQgACkuMiKDwqQU6FyQa7cSNYBiOUQ6pNq+K6ESTaS1BYQV9NYPmnz8wPihXnSk8msGzPSSrg+M9KG9sCM/tOJxeiiAMSQAAIQQwIIQAwJIB8L4rK0DQvimQ+yZ56ZefIVM2Z6UEnqCTo3ZQ1Zeoin0Ye6QPb8/ETyJZ4L4ief4g6ZnfISx4CcOMm/7ndpZosvLVib6v1OuU39PSIGH8j3yJgb04MP8nskjSyP7aT3Hh9WAAFIUyAf87Lv+aAAWYVV2PyS/Qb87NyA1IIP8+7S0cXiIxLrUrV6A6TnsrQNdKDgRUBknpnYlxgz6zJWzEgjhrWIbdn7gS4KQIypCsibh3ubkazV8+vzSnKuRZnGoJXj1ssn7nBFkbnKs0kQMaSscQC+XI+rzFLUJIhYTnxUu0qJTYPKXB9NJomI+LV0kkR0Om2HToIxsQu0/6dw7HoiFat7qW08USOt1DaPtGJOccKLxkBuMtmQXuq6/SPdUifSP90e9dHMvSlf974TFuS3aQbE8t5OyCWnJGMt/ZcoTYBY/vJRF+0UaTRp3XFz3eZmWRXni+5MpXHdXjfppHWOTpPF5fU7qFCf4zEz3iG9ldjxkY2mM/pV1zlf3Xq6CvMZKnTpUDraSaV8x67dYrLmtAK7UoLg/3WwO3BXdl7VlM1M3/ZPi/mnox/7jeDxUu5+YShRa7FWVZ8oCIIgCIIgCIIgCILa1X/BaGlpO9kTDwAAAABJRU5ErkJggg==;fontSize=10;fontStyle=1" parent="1" vertex="1">
          <mxGeometry x="734" y="381.5" width="64" height="64" as="geometry" />
        </mxCell>
        <mxCell id="19GmccGls2YGJMeHXtrM-61" value="&lt;b style=&quot;&quot;&gt;&lt;font style=&quot;font-size: 14px;&quot;&gt;...&lt;/font&gt;&lt;/b&gt;" style="text;html=1;align=center;verticalAlign=middle;whiteSpace=wrap;rounded=0;" parent="1" vertex="1">
          <mxGeometry x="714" y="403.5" width="30" height="20" as="geometry" />
        </mxCell>
        <mxCell id="19GmccGls2YGJMeHXtrM-68" value="Scripts Teradata" style="shape=image;verticalLabelPosition=bottom;labelBackgroundColor=default;verticalAlign=top;aspect=fixed;imageAspect=0;image=https://cdn-icons-png.flaticon.com/512/7784/7784278.png;fontStyle=1" parent="1" vertex="1">
          <mxGeometry x="536" y="520" width="43" height="43" as="geometry" />
        </mxCell>
        <mxCell id="19GmccGls2YGJMeHXtrM-78" value="&lt;b&gt;&lt;u&gt;&lt;font style=&quot;font-size: 36px;&quot;&gt;Flujo de datos AnalÃ­tica Avanzada AS-IS&lt;/font&gt;&lt;/u&gt;&lt;/b&gt;" style="text;html=1;align=center;verticalAlign=middle;whiteSpace=wrap;rounded=0;" parent="1" vertex="1">
          <mxGeometry x="62.870000000000005" y="-32" width="766.94" height="30" as="geometry" />
        </mxCell>
        <mxCell id="19GmccGls2YGJMeHXtrM-79" value="&lt;span style=&quot;font-size: 10px;&quot;&gt;&lt;b&gt;QuiÃ©n gobierna este servidor?&lt;/b&gt;&lt;/span&gt;" style="text;html=1;align=center;verticalAlign=middle;whiteSpace=wrap;rounded=0;" parent="1" vertex="1">
          <mxGeometry x="414.13" y="770" width="160" height="20" as="geometry" />
        </mxCell>
        <mxCell id="19GmccGls2YGJMeHXtrM-82" value="FastLoad" style="shape=image;verticalLabelPosition=bottom;labelBackgroundColor=default;verticalAlign=top;aspect=fixed;imageAspect=0;image=data:image/jpeg,/9j/4AAQSkZJRgABAQAAAQABAAD/2wCEAAkGBxAPEBUQDxAQDxAODw8NEA8QEA8PDQ0PFREWFhURFRUYHSggGBolGxUVITEhJSkrLi4uFx8zODMsNygtLisBCgoKDg0OFRAQFS0dHh8tLSstLSstMC0tNy0rLi0uLSstLS0tLS0rLS0uLysvKy0tLTcrMis3KystLS0tLS0tLf/AABEIAOEA4QMBIgACEQEDEQH/xAAbAAABBQEBAAAAAAAAAAAAAAAAAgMEBQYHAf/EAEQQAAICAAIGBQYMBAUFAAAAAAABAgMEEQUSITFBUQZhcYGRIjJCUqGxEyNDU2Jyc4KissHRFCSS4Qczg7PSFjRjo+L/xAAaAQEAAwEBAQAAAAAAAAAAAAAAAQIDBAUG/8QAKxEBAAICAQIFAwMFAAAAAAAAAAECAxEhBDEFEiJBUWGxwROh0RQycYHw/9oADAMBAAIRAxEAPwDuIAAAAAAAAAAAIstjHbKSj2tIBYEKek61uzl2LZ7SNfplR36kPrySfgBbAZu3pAuE8/qVy/VEazTknxtf9MPcwNaBjJaUm+FnfYIeOk+D/rY0jbbAYpYyXJ902ORx81853WMG2xAytelJr0rF3qXvJFemJL0/6oP9AlogKerTD5Rl9WXleA/Xpiv0taHas17ALEBum+E9sJRl2NPIcAAAAAAAAAAAAAAAAAAADyUklm3kltbe5ID0hYzSddWxvWl6kdr7+RRaZ6Rb1W9WC2OfpzfKKM1Zipz5wi+Cfly7WEbaXHdI3nlrav0ILXs73uXfkVNulLJPNJLrm9eX7FdCKW4diiTZ2V1kvOnJ9SeqvBHkIJbkEUORRKHsULUQihxIgJURSiLURSiAhRFqIpRFqICFEUkLUT1IBGp1ClHrf6C8j1IJMuritj5xbjJEinSuIq35WxXCWyeXUzzIVkBb6P01Tc9VPUs+bnsl3cyyMfiMFGfU+DW9DuA01Zh5KvE5zqeyNu+UO3miBqwEwmpJNNNNZpramhQSAAAAAAAAAADKdLdK5P4CLyjFa1rXHlE1Zy/S9jldZnxukn2KWz3IIkxrOT1n3LhFDkRMUORRZBUUOxQiKHYoBUUORQmKHYoBUUORQmKHYogepC1EIocSCSVEUkKSFJAJyPchSR6kAlI9SF5HuQCUj1IVke5AeZCL6I2RcZLNP2DuR7kBG6M42VVrwljzi83U3w46vY17jVGI0n5OIpnHztaPskv3ZtyEgAAAAAAAAAA5ZiJ61lj/APNbB9UlN5fodTOSVzyxFye2Mr7c1997e0IlIihyKH5Uf/MuDXJ8mI1Gnk9jJQ9ihyKExQ7FEhUUOxQmKHIogKih2KExQ7FAexQtI8SFpBL1IUkCQtIDxI9yPchWQCcj3IUkepAJyPchWR7kAnI9PSt0ljUotJ6sfSl+iArNK4tO6MuCsrrh1tzWf6nQjjt+KdmIr4RjdWor7629p2IhIAAAAAAAAAAOSZfzFv29v52dbOSp/wAxb9vb+dgWsJuK5rinuY7TdXPyXkvoy3dz4DEnsIEt5KF3LB8nl1S/R8RDqcd6a93ieaNvktmea5Pai9w9EZrZnBvltj4AU0UORRbW6JnwjGXZ5L/YiWYSUd8JruzQDMUOJCc0uPimhcWua8UApIWkJj3eKHFED1CkCixSRA9SPcgXavFC1Hr942E5HuQ9Chvg33ZDnwOW/Je1gRkgezrPbrktyz7d3gVOOxEnszyXJbENhzHY2MVlnrfRW7vZmdJ4iU972cEtyJ15V4sCto/zq/tqvzo7WcUo/wA6v7ar86O1ggAABIAAAAAAA5C5fzFv293+4zrxxOy/VxVsX6V9zi+fxjzQF+7NhFz2nit2CIS2koXGANNo8zGAZpNHsIXtYTYiuQTZCyJiMuKT7UmVt+qvQj4ZFheysxLAh23wXycfaRZ6Sgvkl4s9xLKvEMrMq7TZabS+SXixVenW91cF4lFYxVEtpSbo212E0hKXoxXcXeFszMlo+ZosJcktrJiyYlbZkbEMas0lVHzpxXa0iFfperhLPsTfuJm2kk4hlZi3u7xy7SdXrJduz3kS/ERllk0yvmV2j3Mq8WyxukVmKZMWNq+j/Or+2q/Ojthw6qeeIqiuFtcpPl5a2HcS8StAAAJSAAAAAAAOG6Tw7ndcl50cRc49a+ElsO5HHras8Rb9vb+dgVmF0i4+Rbs4KfDslyZaUyzPMZo2M1wTf9Mu0qv4e7Dv4vd83LbF9jJQ1+BZo8BIwWjdP1p6tylTL6W2H9XDvNnozERmk4SUk+MWmghoq5ns5EWuwVKZCxu+RW4mRMumV2IkVmUSr8SysxDJ+JkVmIZjazOZRLWIjclv/uzxQnbPUrWct7beUYL1pPgi70bgIVbY+XPjbJbeyC9Fe083q+vpg472n2/n4giNjA0WtZy+Jjw1lnbLshw78uwtK6I8dafXOT/KskFUCXXA4o6nPl7zqPosTVDLzVGP1Yxj7h3y/Wl4sdhAcUDWMcz3lKJLX9Z97zIl+FhLzq4S69VRfisi2cBqdZbyTHaUM7iNGr5Ocq3yn8ZW+/evaZ7TDup2TraUtitTUqpdUZLj25PqNzdSQLoZJrJOL3xazjLtRevVZKf3cwqw2EWrbUt8pX1OXUtdbDupyHE6EUbYXYfdG2E7KG83FKSblW+K+j4cjrOHvjYtaLTT2rI9bp81ctd1lep0AA3WAAAAAAAHJV/3Fv29v52daORqX8xb9vb/ALjAs7YJxK6SaeW9cntRYylsIUt5KDctGwtW7J8ntXcyFPQltL1qpWVPfnBvI0WBhmX+DwyYGIw+n9IUbHKF6XCyO3xWTLCnp1JbLsLNddU1LP7sksvE192gqp74L3FViuiVb81yj7UVkV0emWElvdlb5Trl745oJafwst18O96r9pHxXRTLdJPtiVl/RqS9R+KMbWlWZWNuPqlusg/vIr7LfhZKupxlKXJ5qMeMn1Ir8VoJwTbUdn0kWGh8BHDwayystylY+KXo19i39rPM67q/0Me/ee3/AH0U7rLC0xrjqQ3Z5yk/Osl6z/bgWFKIVBPpPnMFZvab2ncyttLqRLrRFqJlZ7OKqTsEe22xgs5NJN5DWIxMa1m9/BcZMqbLJWPWlv4LhFckXy5ox8RzJMr/ACESiVuCxjr8mW2HPjD+xa55rNbU+JtjvXJXcG9otsCBiKyzsRDviZ5KolS3xy2rY0TND6VdUtvmt+XHl9Nfqu/taxMSssbi81vRy481sN/NVTepdMptUkmtzHDKdFtJ/JN7Hth1c4d3DqfUas+lxZK5KRevaW0TsAAGiQAAAHHJWfzF3Vfcv/YzsZxDSMnHEWWLavh7oyXZYwL34TYMJ7SPTiVOOaf7p8mOVvaShc4A02j2ZfAM0mAkEL6sTYhFcgnIhZCxMEU+LrRb4iRUY2WSZjdSzMaRydiXow+Ml15PyY97y7kxELM3m97eZFxF2bk/Wn+GOxe1sVTM+R8SvOTNMe0cfz+7KZ5W1DJ9LKvDzLCmRXDGlolYVMVisdGmOb2yfmx4tlbjdJxojznLzYcX1vqKaN8py15vOT8EuSXBHdOTyxwra+uFt8NKctabzb8IrkiRBlfTIlwkc3vuSJSGO4TGup5PbB+MOtdRHTETZauSazuFtr9yTWaeae1Mi3lRh8e6Xt21veuMetfsWUrlKOtFpp7U0dsZYvVPm2g4kqsQWWJkVeIZyZO7OSMHiHCaa3pqS+suHes0dL0diVbXGS2ppM5RZPJ5renmbroXitatw9WTy+rLyl4Z5dx6fhWXm2Of8x+V8U+zTgAHtNgAAAHG7q88Rcms4yvtzX33tOxSlkclSzvt+2t/OwK/E4Cdb1oPLPc/Rl1SR7hsYs9WxakuvzX2M0EoZLnzT3Mg24SuzZsT9WW7ufAlCwwMjQ4GZhlgbqHnVNxW/Ultg+wscH0knVsvpeXrw2rwYG/rmezmUGC6S4WzddGD5WfFvxez2lr8MpLOLUk9zTTT7yshN8ik0tZlCT6i0ukUWnJfFy7GY3UljZ27uzPxef6j9NpUO3J9WrH8qJNVp8llpu0y5fNy0GGtDSGmY0LJeVZJeTHl9J8kV9F3Xl18hivQcJNyldZKUnm21HNlsURHeWm51wbrxEpyc5vWlLe/0XJFlh7BdGgq/nJ+ESfVoatL/MnsXKJrPPZnFLE02EuuwpabyXC8pMLRZbKwRZYQf4kdwWVs9VtryXLNb9mRERuVvNszibSDRpWVEuMq2/Khy+lHrLq/RMH8pPwiVuI0HW/lJ+ETSK+VWYtvhP8A4qNkVOD1oy3NEG+RGwujlQ24WTalvg0tVvn1M9vmUvPPCdo90jTdBb/jMucF+GT/AHMldZkXvQSbd/3Ze+J1+HzrqK/7+ycc+p1EBAH0rqLADxgQtIX6kWzl+GlnbN87Jv8AEzoXSBv4N9hzbBSym/rP3gX0nsK+a2kp2bCLntJQssDnu3rk9qLKOiYWLYtVvlu8CvwBpdHgZzF9E5PdGMuzyWVFnR+yp5xjbW+cHJe1HU4RQi2pFJjZpyr4TF17FiLOya1vemRsfj8U4NOUJLLjFJ+86ZisPF70n2pFHpLCQcX5Ed3IwvWflSYcsm9z5xj7sj2FmQ/pGrVm1lllJrLkt695EZ89kpq01+ritxMrGi8saMQUFcyZTcYzVMWaOjEE2GI2PsfuM5TiCZDEbH2P3ENIsqqsUSYYvrM7XiCRHEm80ZL3+L6ydoLE/Hf6cvejL/xHWWPR/EfHb/k5e9FZjXK1Z5bKy8iW3Eed5GsuMZttpNjl1pButC2wizkIhSZItlmaf/D6vO5vlH3y/sZSxm+/w5wvkynzequyP92z0fDq7zxPxEz+Pyvhj1N3kAoD6F1gGAAVmlqNaLXUcyx1DpuaexSex9Z1y2GaMp0i0KrE8ltAyqt2CYS2kW1TperYnlwl+47TLMlC8wDNJo9mYwLNHgJBC+rkFjGa5hORCyNiGVOLLO+RV4lmd1Zc96TYbVsz4S/Mt3szKLI3HSHCfCQfNbV2mLktvfk1yZ4nXYtW88e7ky152ZHYTEuInccTFNrsJCt2PsfuK6Eh5WbH2P3FZheJZ2Fg9G0r4zHY2HoTRCerSy6P2/Hf6cveihVhZaBs+O+5L9DHJT0yQ1srRmdgw7BDmcMVW2XOY1KR45Dc5FtBUE5SSW1trJc3wOxdFcD8DRGPV4viznvQnRLut+Ea8mD8Zf2Os1Q1UkuB73huDyUm897fZ04a6jfyWAAek2AAAANW1JjoAZzS2g42J7DG43QFtLzr3eq1nFnU3Ej3YSMt6A5jhNIqDyti63z3w8eBqdGYiM1nGSkuppk3HaAhPgjP4nos4PWqcoPnFuL9gRpra7BUpmMjbpCjdNWpcLY63tWT9o9DpPdHZdhn1yrnn+GS/UJaK6RXYhkH/qeh+dG2HVKDf5cxE9NYeXysV25plZhEkYpZmN03g9STnFbH5y/U1duNqe6yD70V2KlXNNa0X3o58mOLRMTHEs7V2ySPXEcx1HwTzTTg+CazXWhqE01mnmuaPCz9PbFPPb5ctqTUnVPR0NQw8yijWhJ/OV/j/wCItaFs+cr/AB/8S51RSRt/U2+UqZaFs+cr/H/xJejtHSqnrOUJLVcco62e3LmiwSPUVnNaY0krWDMTmIlMy2FykP6LwM8TYoRXa+S5nmjdHWYmerBPLi+COq9GOjsMNBbPKe1t72z0Oj6Kckxa8en7tceObcz2Tej2io4epRS3ItwQHvusAAAAAAAAAAAAAeNCJVpjgARZ4SL4EW3RUH6KLQAM/b0frfooiWdF636JqsgyAxk+iVfqjb6IV8jbaoaoGHl0Nre+KKnH9Acs5VNxfLg+1HTtUNUrasWjUxuETET3cLx2hr6H5UG0uKTaIKkd6xOArsXlRRn9I9DKLduqs+a2M83N4ZS3NJ0wtgj2lydSFaxuMT/h/wCpKS8H7yE+glvrfh/ucc+F5o7alT9GzKawlzNhV0Cse+b7kkWmC6AVrz85dr2eBNfC8s95iCMNnPKq5TeUIuT6lmaTQnQ625p25xjyW9950TAdHaad0Vs6i2rqUdyyO/D4djx829U/s1rhiO/Ks0PoOvDxSjFLItkAHoNgAAAAAAAAAAAAAAAAAAAAAAAAAAAAAAAAAAAAAgAA9iKAAAAAAAAAAAAAAAD/2Q==;fontStyle=1;fontSize=10;" parent="1" vertex="1">
          <mxGeometry x="229.78" y="193" width="44" height="44" as="geometry" />
        </mxCell>
        <mxCell id="19GmccGls2YGJMeHXtrM-83" value="&lt;span style=&quot;font-size: 10px;&quot;&gt;&lt;b&gt;Que tanta volumetrÃ­a se maneja ?&lt;/b&gt;&lt;/span&gt;" style="text;html=1;align=center;verticalAlign=middle;whiteSpace=wrap;rounded=0;" parent="1" vertex="1">
          <mxGeometry x="409.25" y="804" width="169.75" height="20" as="geometry" />
        </mxCell>
        <mxCell id="LA22xVIdacMvbYcu_Xh9-6" style="edgeStyle=orthogonalEdgeStyle;rounded=0;orthogonalLoop=1;jettySize=auto;html=1;entryX=0;entryY=0.5;entryDx=0;entryDy=0;" parent="1" source="LA22xVIdacMvbYcu_Xh9-1" target="19GmccGls2YGJMeHXtrM-14" edge="1">
          <mxGeometry relative="1" as="geometry" />
        </mxCell>
        <mxCell id="LA22xVIdacMvbYcu_Xh9-1" value="" style="shape=image;html=1;verticalAlign=top;verticalLabelPosition=bottom;labelBackgroundColor=#ffffff;imageAspect=0;aspect=fixed;image=https://cdn2.iconfinder.com/data/icons/whcompare-servers-web-hosting/50/sftp-128.png" parent="1" vertex="1">
          <mxGeometry x="-67.35" y="286" width="60" height="60" as="geometry" />
        </mxCell>
        <mxCell id="LA22xVIdacMvbYcu_Xh9-2" value="&lt;font style=&quot;font-size: 10px;&quot;&gt;&lt;b&gt;OneDrive&lt;/b&gt;&lt;/font&gt;" style="dashed=0;outlineConnect=0;html=1;align=center;labelPosition=center;verticalLabelPosition=bottom;verticalAlign=top;shape=mxgraph.weblogos.onedrive;fillColor=#094AB1;strokeColor=none" parent="1" vertex="1">
          <mxGeometry x="-72.95" y="360.3" width="71.2" height="43.2" as="geometry" />
        </mxCell>
        <mxCell id="LA22xVIdacMvbYcu_Xh9-4" style="edgeStyle=orthogonalEdgeStyle;rounded=0;orthogonalLoop=1;jettySize=auto;html=1;entryX=-0.014;entryY=0.2;entryDx=0;entryDy=0;entryPerimeter=0;" parent="1" source="19GmccGls2YGJMeHXtrM-1" target="19GmccGls2YGJMeHXtrM-14" edge="1">
          <mxGeometry relative="1" as="geometry">
            <Array as="points">
              <mxPoint x="80" y="130" />
              <mxPoint x="80" y="283" />
            </Array>
          </mxGeometry>
        </mxCell>
        <mxCell id="LA22xVIdacMvbYcu_Xh9-5" style="edgeStyle=orthogonalEdgeStyle;rounded=0;orthogonalLoop=1;jettySize=auto;html=1;entryX=-0.018;entryY=0.345;entryDx=0;entryDy=0;entryPerimeter=0;" parent="1" source="19GmccGls2YGJMeHXtrM-17" target="19GmccGls2YGJMeHXtrM-14" edge="1">
          <mxGeometry relative="1" as="geometry">
            <Array as="points">
              <mxPoint x="40" y="222" />
              <mxPoint x="40" y="299" />
            </Array>
          </mxGeometry>
        </mxCell>
        <mxCell id="LA22xVIdacMvbYcu_Xh9-7" style="edgeStyle=orthogonalEdgeStyle;rounded=0;orthogonalLoop=1;jettySize=auto;html=1;entryX=-0.005;entryY=0.636;entryDx=0;entryDy=0;entryPerimeter=0;" parent="1" source="LA22xVIdacMvbYcu_Xh9-2" target="19GmccGls2YGJMeHXtrM-14" edge="1">
          <mxGeometry relative="1" as="geometry">
            <Array as="points">
              <mxPoint x="40" y="382" />
              <mxPoint x="40" y="331" />
            </Array>
          </mxGeometry>
        </mxCell>
        <mxCell id="LA22xVIdacMvbYcu_Xh9-10" value="" style="shape=image;verticalLabelPosition=bottom;labelBackgroundColor=default;verticalAlign=top;aspect=fixed;imageAspect=0;image=data:image/png,iVBORw0KGgoAAAANSUhEUgAAAOUAAADcCAMAAAC4YpZBAAAA4VBMVEX///82aZT/wzExZpL/0WP/9Nf/wi1njq7M2eP7/P3/xTX/xz0+b5n/+/H/3Yz/+u6huMz//ff/5qzh6O5Jd5+/zt3Z2dlubm51dXXu7u7/2oVfh6n19fVnZ2d8fHz/78b/1HG6urqNjY2GpL7/z1tfX1+wsLDT09OgoKDp6enAwMCVlpbKysqEhIT/+OXe5u1SfqP/ykh2l7WPq8P/8c7/5KP/yUf/7L7/02qYssixxdX/5ab/4Jb/2n6cnJxchayestVIdaM4b4toirnR2e6ou9aLpsdzlLvb4fS2xuCtueb54nqfAAAL9UlEQVR4nO2de3uquhLGrVUEpSpeoYI3LIoFxVurVu3Ze6/LWef7f6CTgFa0rQQIBN28f9XiWk9+ncnMJE5iIhErVqxYNyqGEUWxXC6PoWgo86dxuSyABwzp4fkXIwrlMV1dF1eyPM003g2jAmUYRiOTmcqzVXFdpcdlkblaVkYEgOuZnDEqd9+LNRrTWbFKl6/RqACRLsqNCnsB0IZaeZ+uquMrA2VEujg10Ag/VMnM6PL1cALG2btLxL33TtfXwgkY3ZrRZtDr4GTKxYZnRmjPikyLpCGcxNDTSxEVifP9P2XSGJfFVDN+DLnHNGaRxmTohm9GqIocYUyGzmCBjDamIPt31wPmKqohiKnaAs8925jKcsZzKDKqEU0odlOymRUNlyFV2SMnOx2T5vlSDG0D+l0VTFuA9OkRs7KOpDHF4tGUjaO/CV4xp5EMQOLsQMn+9dMWO8ZTb5TRnJnHafn3Pz9svxd/eou8lV9RDLM2yl/2yMH8MTxRsr+j6LK2EFu0W8FzrZCJOOVKsD8Yeyz7MlHMJUfK+5P67CTD3BJlhrb93p5h3FFG3GMr9ok59lrCR53SXhWUV15L+MhT3r3/2Vd445Xngj36lPfGzKzW11Pvi7HoU96xbKWRyXjfzLsOSgyKKYkppowpY8roKaa8HUpxVkEU4l8jkpTMuIqmFeIOSSQpYcsLihLVxv01UyKKjin/nZRcunWqeboQ0jiZstVp5k1FwwXlw6Z3qlQ7X5pzgROK42pxNs00wPLRm1AXnSZl4TFJnSk7WW6C5WTK1Rnsj7j3IzTIA2U2eS6KSqYW6eAgAaNxhzpKv/qWEoLmtq2HYBgZGjWhB04J1CsFEobEaiY0OyJQUpO3EX7IcjFMQzpTQkzsTisUK2EaEoEySfVeMYdazx+cB0iZpJYtrJDMOmR3RaJMZh9xTk2GzoTsrmiUyZcFxqn531+h+ysaJZXC57Piz78w73Zgo8xtsBmThL+iUWI0puj5I8gQKHN5TNmEjCnRKJPJJZ66nSFjSlTKlwUWY2Lr7Q2GMrvFkTOZ0Es7d5RUD0f8KctEGO/upgIaJRaXRd2Mwi4ZjRK4rP+FJjGHvTNb10dbJ0iQMv1HWRH3hzyoYtcmZduZsvfqm9Jz65VfGTTsGEqnKEfKif+JWUXcPcUt1gw+ideeI2Uyl/ddy5KalqzVnV+aOFNm234zpjgjsOaCalh9o5ucIySYmH7DD/ZPmBHFWoeDCs7BB0ddUCZV3lmmnCNMSxB+/AZZQjXB/swMh+KwoPp580tJJMRWZlbnO0K2hMptfFKuSVB+HEwsvSA4LNzK80kZ/jYsqAfkfV/+qO1YxFpq+6T03qrsHfJwYJhDNGWS8ks5CzuRVDJ/DqdRWik0S14bJVtprMaHxv7RFiXA4qBkwlxCs8a0OP44o/GAlEUwUXq1JetOFSMjF2nbfSkFdEj/lJ4OT8LOfHm2WhVRtV6v6bFgvxNm5AISA6XrdMkacrE6Nu9hQpbZuWYT12q7gAyfkm0Uab93L3HpTQ8xUZKhNFa037uIRq1Nz40hQ6dk/6kKZ//BA7oKhdFo/rppT3JJtGKADCUr0zY7cqN0q7TY5JH1uG23e5OXrEtEHJQu8iUrj22JoLV4TIEx51wom83Cviz3CpGSlT/OvnLp0rb3AofsZczhU6JXeOzxAO2o1J5kQwIMmfLjRgyutZ24DR+kKVE/u2TlfXR9KKU8xA/ClKir6Pe9vxbeeiEjQm19UiLuiLAzay1RWEwIQPreEUH7AOHeqJrv5kokIP3vbiHuVE4tU85JuGuSein5pBwj9YdUiuabC1tXRTY2St+7zmWUBea9YcYe7pWIvyap3twnpYiUMK0DLoRMmaRSfj/zYn4ipBJWNqflnIwpk7lH340F/zP+dnTYygrWPdyCkCkxNIn8cL6d595Yw3cWUHfCcVPi6CtwDj/7bJkm5LA4OvEQws99A1JyrRcykDj6fRBqvPsGTCRcyeVuDSaBaekfEqFv1KJ8IBV8MPXhObnsnjJPhhJPT6Xz4suiLJChpCZ+i1hL9LuDyxKlxNbr7BRlSVLiiT1QVQdjEqVs4zpu6tQHTJASzEpsB9ocjEmQEudBr/LlHgqClBgPQIGS/f3+QgQiRonTXxPwoNel4/ekKKncBu+Z4fKlBlJClBTe05cJeK3NhTqPDCWVe8R+ZwFT/f0tJhnKySaAixmYH1P2m3xCgJLK9oI4xw9PDcvftLCHTkklX7atgG4SYcYr40tzhksJr0tpB2NIS2J1+tU1IiFSUsncJPX4GiBjAl4Js54aFZb1RTlJedeyvXlNB3RNil1idSVPGycypq4o82nvGoVAeAA9u6mpan5rEyolhWtBGLzOLn+DQqb0+2EjUcWUZx7LoYk00VdCjj7tEpqCyvu+hEyZRWxYw7Q5h1fYqwLfJ/GCUEwZU8aU0VNMGVNaMm8TvXFKKtvbPm7PDljcHGVq0UqP0vPF0s55Y5TZw1YVN3+0Yd4WZXZ5bBZM21r5bovypO+zdbyg4LYoT5qSRvmI29L5VqUvlT25apJ7+5iZ0aT02B2bPbkE1tZJHE1Kjx57XZTcm0fKtxPKUrQ9NuG1p/Kkwyzq0SdRQL1E4UwTu8u2jvdsYbgaLQBxC4+to7ZtLHtVgKPtNQClvZ6Z2c6tZMKlbdkoi+/+W6wCxvR2Wi/bW8xHo1H6zV6tTyLpsAkXN9V8Uq63XC5PVl5RNSVsXfd+zgseira/jGbsMYXvzB7erizMeijhObU3CeYLK3AJYGLY5OqVojop9+JaW4+R9iAquwzqG1bwiUsv/Jlzkk9HeE5+qDDf9Dye5aeoyTbgPhd8ApxL13eegPdne/nX0TUYcq+CecmGi2tBKFAZtDeta7HjQdyo9fbYhvXM523zEx+FD3OT1HYRSr8SfpmX32y27VRvksuef/mYiZfNTSa95Tb/9joPsWEJv7hCOj1/LW3y2227vUylUtb3yKWWy3Z7+5jflF7hV+dFsyHEtbiHAlh0pOfzufWdgHOz36xQuA26WLFixYoVK1asr8SIfu/qvAbVBrsa6TEErw6v/xso624or865RdUcsitKVav1xdr5hbTRFaN1B+ZoXVGKmtrpd9TARoVboiJ13VMyfVXrKFdEOfBCmVAFtV8Tnd8Xqr6/mPsiJXOWQo+vGQbkV5wj9C1BU3a7wX4WCX1t72hqRxMSQkeXeKUDzGJSQj88PAdvGDw/K8NDjFGHg+fuTtGiBbeXMHxu8k2d57tDOL6h3rVMxmh8V2Vqel2S+LoiQMqO0tX5etOqDpj+M1/nwcuBSS10uk29q9fruhJBTEHh+YHWr2nPUlMD/qZIet98wAyfmir8G0jNzrDGAMq6DiynKbwE/w6A/6k77PeVpgQxwX+jd/q12rD5xGvRS5Y1MErT52q69Kx+ogQxtn6Yl9IAxhMR4CoA69mETYhDvt4R4b9WIBzwAGkXPWPWeDhmKIDRZy5RNq0HalfaMUy/Llk2E3ZSV030m/WO+RTSR5myxj+BKXWBch9j1YH0zIDQy++jUKfO922Ug2hTqs0n4LvOlAKkFLqSvg+uWlPSrodS0J/AxESl1D9gQBga3ipl90opPzx2ny8vUx6DTL8pXREliD6dC9FHOaEERXxzH32G/DVFn46ZG5Q6r1mvtUuUjFavW5mEUU4zSVQpBwIcLkiDYLSJDi9ZJZrY2VNKumm0E0oxASamVdrVuhJwgchTPtUHfVWtDaQ6LGRr3afmUAWvO7pJCY02VMVPlLDIUVRBUHd1WANFnlICJbcOinJeMT1TAxV3U9ebzaZJCYbN88+wKPqgVMwaTuw0QWELKv0uKHITfZ0/UNYjSVkfaIOPJQn8DVh5dHedmraPLyJ4DJ5pz5aHgte7DnRxsabofLPbMbeFVGVnBS1xuIvgogRGH0YUVPW4IAYv4dd0HSjBihg+s62QDz+BNwrHn89/iJKOMfZM+0xyG/qWUt2BpUfIgwlM31GKw/o+ntyCvqEEa39zUX0j+opSHQ5AOrmi7VRHCcPuJ0pNb3aV/vXs/yNIVD/hCLWaGsV8ECtWrFgh6v/xSdTOlRcbmAAAAABJRU5ErkJggg==;" parent="1" vertex="1">
          <mxGeometry x="865.61" y="193" width="70.78" height="68" as="geometry" />
        </mxCell>
        <mxCell id="LA22xVIdacMvbYcu_Xh9-14" style="edgeStyle=orthogonalEdgeStyle;rounded=0;orthogonalLoop=1;jettySize=auto;html=1;dashed=1;entryX=0.985;entryY=0.363;entryDx=0;entryDy=0;entryPerimeter=0;" parent="1" source="LA22xVIdacMvbYcu_Xh9-11" target="19GmccGls2YGJMeHXtrM-40" edge="1">
          <mxGeometry relative="1" as="geometry">
            <mxPoint x="902" y="440" as="targetPoint" />
            <Array as="points">
              <mxPoint x="840" y="420" />
            </Array>
          </mxGeometry>
        </mxCell>
        <mxCell id="vGYlYMv7PQgS3ZWnSqrj-5" style="edgeStyle=orthogonalEdgeStyle;rounded=0;orthogonalLoop=1;jettySize=auto;html=1;dashed=1;entryX=0;entryY=0.5;entryDx=0;entryDy=0;" edge="1" parent="1" source="LA22xVIdacMvbYcu_Xh9-11" target="vGYlYMv7PQgS3ZWnSqrj-4">
          <mxGeometry relative="1" as="geometry">
            <mxPoint x="1040" y="380" as="targetPoint" />
            <Array as="points">
              <mxPoint x="960" y="414" />
              <mxPoint x="1100" y="414" />
            </Array>
          </mxGeometry>
        </mxCell>
        <mxCell id="LA22xVIdacMvbYcu_Xh9-11" value="" style="shape=image;verticalLabelPosition=bottom;labelBackgroundColor=default;verticalAlign=top;aspect=fixed;imageAspect=0;image=data:image/png,iVBORw0KGgoAAAANSUhEUgAAAT4AAACfCAMAAABX0UX9AAACRlBMVEX///9mwuMAAAD+61D3miNoxujpeCZpx+nNIzfMIzhDgJX29vZSnLbLIjlfttVYqMWKioo9c4f54eL/71FdsM5TU1PzkSTodCf1lSNoaGgPHCHfdHbgXSxCCxLVLTPppKbUIyveVS7HIj2ampr77OzlbCniYyvkaCrDIkHvu7zPAADYP0XcUC/w2krnkZTbTDC+IUbjhojbTlPm5ubUGSMuV2ZKjKRzc3PIyMjc3NzZRjL45E0AEBSlpaUjIyOjlzMbMzz1z9Dm0UeUiC49ChcyX28lR1NNk6y0tLWqIVlfESxmESXdX2PZQ0g8PDz//b/+7WRyaSS9rzvFQmGUkXDMu0A5MxGKKn0TBRBFFBFJHg4WKTD70aMcGQlnXSBMRxhJFkLtrrD87eL41MLzu5fwoWztkVDqfzHzmjv1qFn3u4Hvpn/ocAnxhwnwsJXohFvmcz72z8HhWBAwLyJRSgDojG99e17WzXdtZR3hennicFKvq4H/+5UnIADroZLq5K3okoXYORP4xJOCej7cfozPQ1bXW2nCvIbQZHvhj574ozkACBy9AD34rE1UUjz/+aFVNj7dxNW5eKWKGDWbPX+MAGnPqcLW0J2dllYmBg+lV46vc4bCUXd/ADJ3EGLOtr5PHkYpACFONChmJAChSBQfIzUwFgn2yrGFQBhxVFhCHSIcAwmlHTF0Eh/EvGpmEzepPSeFKBdeJj3Ej6U6LWo+IXMOACF/fppTQoJ+ap+nprxbPlx4HICmKWmzIVWMT5S34vKda6bOy2lJAAATXklEQVR4nO2cj18TZ57HkwfSIAMkJEQFKyDE1sAGhQAhJpBfEtBiMLED21ISwa1Ui7arrtUqtd4pRURdUOmW7t2227Xennpud/dur3futvuf3fNz5plkBgGT1n3d8369NJN5MpOZz3x/Pd+ZYDIJBAKBQCAQCAQCgUAgEAgEAoFAIBAIBAKBQCAQCAQCgUAgEAgEAoFAIBAIBAKBQCAQCAqAFGBLbgdBHXNoPulwuNmSW13p5rbUbPz/g2bQQ5cm6glDHraiM6p8zN12sL6xvmNCgsuO1gZldUcb/L+9nnHwBzvuFwQA/HSpobPBg+hoIepIQy1D7FPR+pZ2j2cCroHW5mhU5Wtth/9va53wUIp1mJNSsfb8XAyCZuAjiw2N1PXaWrDVRTsb6qn5RbFsaKH+oKQjX0eRjk6anDz6s7ePTb2Eeeed4yceTE4W6bs2guSqlUAzWVbkczdeQC9DHaaDbWRFRyuLdp5Oh558xbCNow/ePTY1PT39EmVq8+bNJ0+efOftt14YSwzAyGdPksNR5CNyOFo8poYWMtIS5TcqvnyTR08dg8Jt2fISx2YKlPD40cJ+Xx7sfKTVT8wPkISDeJmXDxpb20G3yd05gd63ajNCceWTHKfee3/n6Z07d27RyDe1WeXk5uNF9OHBnl58Pj3N/lqX395j+EEf6IX/J5P4jSpfPUwZUj1y3AtDaEct7ZqtOPmkgwWOfT//6L3Tp1999dWdefJt3rp1KyfgyX8q2HfmMOhH0SzgB+BMJhU/fxbcHzT4ZHMfShs9ANd+inwN0G1NnhYU7qLIbR0tE5qtHPWdKli+zlZM/YX1HqrbEY1OtLW34+Dg/vkvXj59+uVXXnlFkY/TbyuGE/B4kUJgD1QvUAvGz30QK3E6ncHYeeDX/6okLlqkpB29NDR6ohDPhc5t8N3QNvyJ1m168g21UdobsXz17eSt9nPPwDHRtq2jtbGzsbHzAjw86dSHO15GYPnyzG+qtDRXv7fXrcyagA7ZC85cHL7kdJYgnE555n5A54M9oLcHUYtrl4YWQj1yTVi1IC2j7Z3u1ZzXvX7njWJL87RXQt1Ird2IYsVHO67s2LFDIx9vfVObS0tzBTx5Yv3aPBuYLezg9cvDw4dKGE5vBuhEwFrQR8AhsKExKrkh2FAvUH9s7YRSdbRqNtt46pAcbddmHSb3xLWyxjIMkq/VYYp+eOUnO/Tk26IaX2megCcfbFik1egFrw8P8/KVOIMpLJGGALAHCCGUPNTUAWnZRiexQ62SaaJFM5vYsHwTs42N8Eui16h2RD54gT76CYTJpxv83ikt1RNwgwKthm8QnLv8qcb6IME4qPVpP2gHzKN7kW3y8jW0sGUPlE4aalS6BXBGty75JJQdkMNKnkqoWqVDutpZVsbL12H6+Mru3avLN1VaqtWPCFj49Cs1942P/HM45j106ZJGvlg6myQOzGpB4GIb+fpqNfK5O4YUQVBkcnR2kDFHh/6sQ+9AJIfn+tW52Wu7msrKoibHbFnZpk2NDdJsfZlWPs/Hu3cz+XasQT7eAAtd/km14FdeJ6KkBFufU3XgkjgOgFKS2OEgFw79MHlw8kW5XNuG+i7R+pY2T9TT3lLvWL1lQKfGnoar1yrLNlUS4OcnypB6ZbOOaxr1oHxDH13Zi+XTD365vqsVcGth5fO5wCfOkpicDseo0ckx3oFRnecfD48kfVBol+pyATjxnWhV5NtWr+7SgetndxsqMToakDyrNawcbkfD3J5du5qa0D9EZWXZrPs6Em9T2SbPbFkO9dv27t2rY32aymWqNBfqwQVMHlKP3Z8EFw9BI8ummWiptGp+MAEDP4x4shxD87QAHwrhG7ca+jRtT/oGxjAH1duoXeqOXr96eGFh1y6oH4LK1xi93li5Cck3uy1XvbKDe/di/fSsT5GPN775eU7Ak28VRrtAbx8A4wBcvOQMZ0ZiQVrxhcOcerF0PAVuADmcdmaShflaHrdnbmEPhZOvqXIOqleJ9buGHFhLK5VvteA3tVXR7ubNed4CTxakd+CDE7RbFy9/Al6/XeLMpONBZm5pLw565L08AhWOy/EwXA9cPEaTurUg1RJcv9y+fd++1/Lla5orq6TyYQ/Wtz5d+aj5Md+dP358vpRn63whYl8vwGXy5fFzw4ec6XRMVqMdKvnCKdlJrG8GpLxp+MYpAw3GTYVn4EZhk0dPPpI/NlH0jE+V72W93EF89/iJE1rxSkufY96B4pAP/Se5sHjDl8/cGoa1StgbhCbnVCT0ZgFIYfsLynI8hXNySWwEnWu/xQyxjoGNSbe4tORGN0sgEbQjs6Uf3OHl28WpZyDfQU4+w9Q7j7R763he/ii9uWH1fD0myY7mqrAOuYjmGMO3zly+DdVKB7HNKQ6cQSExjJw4nhoZyZJYGMygkx7A8lWBvg18/+LS3XvLaKEW7anLSi/EHZ3Yt4p+m/YayMcFv+mp+RNHT+iIV7rhnouv12/y/XQmJCH1PkXi3f5V6DKaZwRJznWmaO6NwUyRRc7rlOVwOJahqSSFTtqGTWYA2Nf9/ct37927izMy/H5IN74QZvCZTu5YTb4yVb7d+vJNT516cPSEjnalpRvPuj21Ad+NcDzbCy8+Uu/SoRj4ZPg28lVidc6MzHKuHCd5OO1MlcRS1PqQfJEqLF/5OkKf5F6EV3xx5d7ovRWi3uc45NXgPVWA7euUj/quUe7Y8v67DyZ/dkxXvJvPkXQDflPteeiXzT3Ic28fKnGev0UmuV6aczOs4HPKRNBgsCTslMOcfF3EZLqAXjNLl+UVGO2kpXujo6N3ce3n+PW/IPXq8IWwVjPf1fVePfn26lofke/0zlNHJx+8u2V6y1TupANy4nmapb4eKZmOZf3NyXPDKF/AVPopei1RSpZUnKv4aBLxOtkcBMtXjQNWVcjlk9bE8iiKdot3/xXxG18gEPjN/v0HcOgz0wuhyKdRECpXif9pZIRCttbv3Zsb/Yh87//i1OTkg/d2TvO5lxPv+QoWyWdKhtN9gSRVrSR+C7uuKl88lasedmQvJ18Ftr4a0OdaE8kvvzwSMC1+8eVPEaRP+PAh9l16ISJgn4btjMdNlY8eb8/nDY43NfwWfuFvv/qd0vPT6DdfgKlaz0j8PpiBqiErC85c1PannOlsUEc+ts6LMq+Fhj49QoS89S7NOFs7QC+EMftWGVuFr5W2garffEEmatL9dFjOMtUy54adStpFxIBXz/zYKKz7xrDJmKu0VHTBo07krmWDY/ikuipy1ptpCofpqNyWt1VNdwJvVtefux3aZT+8CHU1et9m6wfgzdx573yhbpI3z8TPn7l8iRrbjQ/gZCKsShYEMSPtUAENWNGciwUmAOqM+VirkH7dFt0trfBsq81WnTGrGV2TiE1vzGIdUGJn3lA3AL/bomm7vFW4DtWgf+zWMHPWFAg647KaLlaXL6V4nA4JGhX1JIKuPmCkbQR0GwxZakLQog12ak2AcoPtoOz/xnXsbxaov8JwnbutumNcznDJFsqnBL/cHByMoehlpBG0oiqDs0HxTd9SzCiFR4xUQPMR2yqXxOhKQk/4SpHv2INC39hNvq405KE/jst8d4qTLyxr5cOJI0Ijlgo75q6I2ZoLHbTYFMu05IzB0MdUyNul2VqXYNLmDcLkVWUwBOUj1jc9/XYRHmvh5CsJjqT4zmg4S+cfJagHE+QN0BtHgZycj6VCwcZOJxGpzsOmWAqztW5lrJyqEGJ7sOXts4pN6yw16lgVu1x15FBseUOWfhz7pqfeLcojLa5z3O0goBgf6qpk41A+vMIpO1OZdJDc/3CWBL14vkvTg5WrEvqJgdSM6ZUQxPesiTGqR0QdSpBVXRE61M9tRlSD0zlitNZyrhbqIiJZQ0rDQd0lrQoS4NUt0y89KNLzQLWcfGql4oxB8xqRvcFg2ksERIJlw2k5FpPTcY0eNSDZDPHjwoLNXPWg1jNWTV4T4MCTJ08OcBfCTOW3doF9ryE4aa3ldN8wy/r9dv/v/50cArVM2vkJAVQwf80N1YA3dhbDayn2W4p8zhgg81mnNz6ThUp5oZqxFC5lgll4QJkRMD4zM9N33z6ID5D0C7pJu6UHrRljq7CWWkiigaGPyGirA/sheMJLDYv5pwU8JHO2z7CFUctMMGdsdkxcnb32CG/IJMVXEr5+jaZt33BHVwF+X8yHSf1nPlCCmjMM4uiBoDDIyF5EEIe58ThSFpLONvcMDg4GcHMamgWb5eN2i1/1GCuq0aoranIw01MlMlaAfUi+J/hUzVR1Zrz7iHycZVbV0cAwBh51okcMHqOxCD2EMbJhOfgKyfcVvnjkUPrZk69FQQLgP7j7uOkRkM2OZ6F4QWVyFhu5kQnK4+PjmXQdy/t44kWcEAYXn7qKRcNIjX5hbLZUj1FnBE+QfNh56ap+pe2CGvYLC480ljnAGoJN+H4Htsx+aplK5+cP6FmNN7HRkkOJbPw2whqwg8w5zX3IdDwOsyw32fXKwJ7MeuOZsKw2RfF5lZPQF8I3e319/KnWVRmVaJYItdAEkY+oQKNhF/PPOwt75q567JxlDijOuL0Mt1rIIVDLpLGzjsj3UI20VXUbu42wNmpBWgaagi6vPoY1isvnAvF0SlXPp2YOGMvU0KdEQ6NpBYprioUi9fZzScUWKmdtl0V6bTknrDNTy3yMjY+3zBrlsr2BWlZ/4I6uYkO3EdaIH+YKbzac19bjK7zgSBgETM3JpEv1Ahz6QrSOIM8192pCUV4Ry+pYqDbL1w9zMgc8VeKfNpD0uaMT1+dwciUhz8Issws8wsb3WBMz2eubu3fTzKFEQ7/h2T8vPoAaouER1VWDeQteeSQ2knsIdi5N8KGPhqIEdUbrQDmHmarNLBRljr8d4PI1GxoAfzy8ANnDWWZNHQ0VEdCkyjdGM1UduZL94JvdVz70JLl83Q+e5wb06kh1aJYRHFfNj7XnlcdaoO+mgvGcBwokLk2YaXDhQlENjYrmasBB6w5af0An/OPnn/9p2cVfiDGWLMmt3jsay2Rlz2dNlZWbKpv2qYdgibDYCT7+yG2SQtzRja39NsL68c/EkPmNK02qOFIs6PXGmXww76a94aR2ph1Q0wQ8H/yMmg/wq2wsbHPQPB0hr1C+PlcymeRKEytLll3gM9xofsipXh5imQOQLjMf+kLUQsdArd/vJ+1YUiZVwThQPPkCIBMs8XozSlc+M5I5H09lZpTphzc84vWG+7THgNNEnY06IX7kFIc+pflsZZ7DweIanXvwUzaWAMhHLDZuVpags7IEbcVUdaljdSRBKZXkgDo0RnYJV9UWTz30gB4skIPxGRrqgplkrSuJZmcxFvlm0vny2dUTs9CiGa+KWDWnqm1Dm6n1ELMwW8y5Q91KQ6rKxqAfhpbZz/ZZo4zR4shSTspFfjM6BOPA+m9Ar08/EA/PMOsLnoXflgRx1l2BhpmBk490SBtAkmpGNEewtHw0tIz1G5Yt0GeNxqzVdTUGQ2ZLDTNavcFIwvD7EsUMfQif/z6gU11UIQ9Cz1Se54N2B+DE1xsb16Yv7FzltNQioU8TDY1PB04CjPqoVQlj+eB0otywVVphfGOgW314uHgC9pI+FcwYGZgjSDVD3odB2gv1k7XZv0eNzaxoxs9IhVg0BEZNdbM5ZNiNrwqBCmMZDC+JBZYyBk1vC8xdxStbFFwzTmJrMo5jLlQHBpHRnQdgJnv27FmgdQGSJqxWWApDZ+wNLC4ukn6BGa6yovtEiSo8mge0FFBXoTtmtaH6T3fEjG+Eduvv0TYG8jvN9MvGihz5CGAmiNqgsFwB5PdpcayenL3RE2i2Q5q1mQNrNUZq4Qj4839C/gtnDrYKjvaX64LzZqLaaKiu2pZPNc3RXQP5Y/j+Jb1nUJM/VMxmi4IdjMRlqFiQyAflQe0qGYR0w670F6Dhz//97bffgqLyjBvkStGcQ98P4LmIntobsFhJnQe1uDyWkjPpoJzt078r9T9/sfPgQ5TshviPHPnfI0e+gEtfHMnjiwN6vKblzqPKym9e+yV+fNevQPaOZWKdnz6/v1ZhtR/RFhxfwO7q63NRJ/WFwNnxAvXJlp8+XXz69O9wybE0msvdv+Kuy/6/8ahPCC0sNO3atefa7NUJB/2dXA4Slo91forXHFgnvmZ/c2EKJuk7KN13T/FDpKbF75BmK8tLK6P3KH/Nk48Kt7Cw5/Dc9QlPdLW/60LuGbBZYN4v7uCJfP/99wU5jx+J5aejkmnpKenfmSRsgEhLybG4/KelpaWVlV9DiA0ePgwX5+bmrl6/PqH8AGRVNHMd3Qr5H1y+75Byi0w+KCfST/1JDPrZmlv5C0LKb1nXCn4oWumtFO6oXxSWsXDuUUU+0yKUb6lAe6dzHSspG4vwM50fGR/V7e+qfKbFlVFOzeeC/B6kuhtR3DtqPw5MtsVlbqXj7r0CmV+vpsz7AQuVH4ZFNluRNObmXhktzJ9J62nmKWJf9MfBKA047i4bjAjWgnvlhfkbUv+QLLqf/RmBQCAQCAQCgUAgEAgEAoFAIBAIBAKBQCAQCAQCgUAgEAgEAoFAIBAIBAKBQCAQCAQCgeBF5/8Afxx+bLa7W3cAAAAASUVORK5CYII=;" parent="1" vertex="1">
          <mxGeometry x="792" y="261" width="220" height="110" as="geometry" />
        </mxCell>
        <mxCell id="LA22xVIdacMvbYcu_Xh9-15" value="&lt;b style=&quot;&quot;&gt;&lt;u style=&quot;&quot;&gt;&lt;font style=&quot;font-size: 18px;&quot;&gt;PROCESAMIENTO&lt;/font&gt;&lt;/u&gt;&lt;/b&gt;" style="text;html=1;align=center;verticalAlign=middle;whiteSpace=wrap;rounded=0;" parent="1" vertex="1">
          <mxGeometry x="852.63" y="39" width="166" height="30" as="geometry" />
        </mxCell>
        <mxCell id="LA22xVIdacMvbYcu_Xh9-16" value="DWH" style="shape=image;verticalLabelPosition=bottom;labelBackgroundColor=default;verticalAlign=top;aspect=fixed;imageAspect=0;image=http://softwarenegotiation.com/wp-content/uploads/2018/07/teradata-backup.png;fontStyle=1;fontSize=10;strokeWidth=0;" parent="1" vertex="1">
          <mxGeometry x="1081" y="267" width="94.4" height="83" as="geometry" />
        </mxCell>
        <mxCell id="LA22xVIdacMvbYcu_Xh9-18" style="edgeStyle=orthogonalEdgeStyle;rounded=0;orthogonalLoop=1;jettySize=auto;html=1;entryX=-0.022;entryY=0.6;entryDx=0;entryDy=0;entryPerimeter=0;" parent="1" source="LA22xVIdacMvbYcu_Xh9-11" target="LA22xVIdacMvbYcu_Xh9-16" edge="1">
          <mxGeometry relative="1" as="geometry" />
        </mxCell>
        <mxCell id="LA22xVIdacMvbYcu_Xh9-20" style="edgeStyle=orthogonalEdgeStyle;rounded=0;orthogonalLoop=1;jettySize=auto;html=1;entryX=-0.032;entryY=0.432;entryDx=0;entryDy=0;entryPerimeter=0;" parent="1" source="19GmccGls2YGJMeHXtrM-8" target="LA22xVIdacMvbYcu_Xh9-11" edge="1">
          <mxGeometry relative="1" as="geometry" />
        </mxCell>
        <mxCell id="vGYlYMv7PQgS3ZWnSqrj-3" value="" style="shape=image;verticalLabelPosition=bottom;labelBackgroundColor=default;verticalAlign=top;aspect=fixed;imageAspect=0;image=data:image/png,iVBORw0KGgoAAAANSUhEUgAAAS8AAACmCAMAAAC8yPlOAAABJlBMVEXn+f//s7M+5L0+5b1mZmaRfvnt////tbXp+///t7dhYGA86cDq/P9aYWFcWlnv//9nYGKao6ZoXGBgY2NfXl1/g4VWX1/Qm5vlpqZnX2LS4edmZGVYVlWLkZPi8/nu+v9J0K+qtLeKc/nboaFYoY7I1tvzra3/rawl47ezvsKlhYV4e3zrqamRl5lzbW2DdHRRt51amYi7x8xMxKbDlJT6wcJlb2yKeHiZf39VrJWxi4ustrrE0dZF2LTx3eH3yMrv4uZjdXDU4PyjmvlfiH218OdhfnadkPnBxfvr7fL00tXv4ebB8u2k7eCM69bW9fdvvqtl58jc6v196NC4ufnL0/tmYnyrpvlZWE6Ed86Ug/lvaZKoq9Fck4S14NtdTVGDdNi8vfs5o1wKAAAU0klEQVR4nO1dCVvbSJPGstI6LV+ysS0fGGJjYyzAOByGTC6SmeTLsWSSndnsZmf3//+J7apW65aAbBLkGb15nhgMDvhNVXXdvbGRI0eOHDly5MiRI0eOHDly5MiRI0eOnwdZB8j3/WusB3RC+qPFYnHZkUnO2U3QyWguGoZJYRiNaZ/kjKVAJ1PRUEUOy+zO++S+f6kMgQRR7tiGxaiq19mj2q3mSsmhD3tBGIyrUsk+OLBLJeTMtDu5iCH0aVcNAsmyVy1JAewv7RJopTHKCQOQuWeqOEr2jqJIBQRlbQcZ6+aEAYhNuag5aCNdzSUni1O216RPG53chlG3lJqr2mMBUTyugDK2lEIIyiYlzLL1+/5l7x9yxxCtilZkgHOxtC+F6XIIM6u5RuoLU7ReMb60h1QfmzsR6ULCVtSGdfv/eI0kQ1WsPNRQG4ttS6zvxdJFCaN2Tp3fXcBkfePvpMakR/k6RL60Qype9RhlZEZ/h2qkcUcBk/XXTx/tvumvI2Ny7C9dhtNxq1gEvq6oeK0SxIsK2EFdNBd3euf6L9LuLn3p7pPv8xZ+JkjnMiZslvtwPFK6wHyB9RonyVdBWpbuqJD6m13+4kfrdlKUh11jFolpZEKPR/FEo3wJxcc1UbQTxasgjcEJu8v77rt0FXbfrJdKlocGxDRTv4jJOulPG5ZY+UrNV1HQjmvJ1h4VUrzbCak/8r149+k6Ha1IF7joDTczA2TNuib1uCrnGtgv7bAi1peJ6kj5Oq3fxceXn+4GXr1GAkaVkZJVodyo5qIM7xgyggaQRZ1VMPeUMO28IpY20/g6owb/8vZv+3WAr931ka/yBdDVPjyB8NCYy7pOLmcsI1ipWVfHmgAGX3t4C77UXvm2P1X+15ryRZCu2pamHdUg+Sd2LllGsFI7eUifpXSBs3ozX1QfRWNxW4uvvwm8+tG66COZOnRRSo4rEFCbJohWu3YEZAFX6N3fzBeawNundYL6+MuayJdLFyidJlzVWFK+bZ0XMWpE4RJuoY/Mn6ASNiW3ExX9iY+w3ac/9m1+L3h0oRwVtcMaHIntcw3YwqiR5XKEG/lallg20RQvbydi+iOXsN1f1kMdfcqITjwl7PGzWu2oqKFLj+KFz98sX8oBJHsgm29157crf5AnnK4n6+Hfk4WnjFycitrWY3S4HFXkCnkDX1KLqmNpZyWClJmzjVsRJj8qKFJhd/fR4Ee/0+8Cjy4mQo6QOaImeJyx7FcqXyBe9VNFUZYilTHVvh1hZHG2fPN0sCbKyOlyzsCiZ6z4Z1wjb5QvBaxXs0W/rBTO6IfqLE7D5EGIRVI1u/KanIxyB93ULdewFzlB7IERJfCvpfr3qI1UvPBjzLVGk9ODweDly7f0wfccmcUTm0XoCxo0to9dU++IFXMh2MnIRIs9pvGl7IOdL/Fkj7IHyelRUMsG794LEwrhnUeY3DfUtUn6y33ql1rPtIDicfnipyKTNPRXE/mSlB0w8s1NN3kBuUPRJrrs6drg5cT5GZP3LmH6yLhjivE+oV9ShWwf+cyX94HDHdNLZr8S+JKowQJPtelLvaLvag4vR52+035RfjtxvLlicfKBs0guzHWqWpahdl071rgaOrLkccTd1ZD9kgD4SM/D1h46Xc1AplrZg0PSNChUe9arVqeap9nFay5gpKda66KOFLIsWqJV4crI9VHgUZDgWX2/PkrjnZ2dAv1ouVqdiU1gq+5TRlfARMvg+OucJTmY+E4+OL8AUdXeGvG1ocMRCeVFbt+dw9DzLzwaXb6knWapVGruK3ap7nQ0lQ7GocQrJCuoaep3OqPFdFid/5vG41CKyUumg9Tcm8N14gv8H6qRDzVuvYI2zPPGir74EfJcVKJWUtPpAmvam0rYrmH1o0qowdd1nZqvd1y50YC9ZAqpL0xjtDbmHkFmllMwK7q+RNEVBa5AgXyhtGpSuaIKSOWLypm4txNhi37Tfkm0PNdqcO0YQvxr8rKMASapqutWEmdOq+UF1zwu8j5zZM/z76XV2dkZ9Ogsl8udsRLDFnxTyV8tot6EF1sJ2tVsIRN5rbxVDjIFjTzUfA6X56u6JyU1X754CPrkJN85GQeFKq3pkUEFzPVUtOO/VFOtdsr6GnmrHDpUGKlPwf0GR2cEz5xRVdQ04fjwlZWeX03la2PDdVaKQqdqmqrabVyoa+StOgADhg04rnVx9VHgbG0dndRqUD66A19BfaQC9nbCvbwPVBcXM2jzFM1ROURYxqNv/RL74bjZ8mIigecPi+cnyBX6DbfmS9qnp2fAOA3eTdCXuIZMj6yXO3A0i0bjknhFYplsPP+oZ1lFyUzEAjYPsn1uKiqPdmi1nT77W8iXxHqAFWrWNqk/EfRFBx/eX1///pL79jLRLZHKmCEO+yzjr5PnL7a3tx98yu78Aw14Ubxc/8EVL/wAktNsJsGwGlRxSzspfEmK1Fqu9s7O9labY1aMDEnKgMKjApIT86phWmq3B0Kmf/51+wFg+0Vmu/mxveur5s/bOBGRV/wQVWM27ZByVU3NRyubZ9TtryNKTRsT+amapV+a5mW5P7UNFDL9BWML8OvtsrM/HXK/64oXj7e9rLR2jsLV7XXAvSRpfEnKktU6AkjPPZChavSp/89aD8x/9+h6sP1HNm0YGbrdqTwgckWNOvQ1LF10sKMilS+lhS34IpUsBJ+TqaZ1B5CGyg5QnfQvxD//44EP29l0M8Datw+LnivpS0ww6epWefU1hS9l1WSB5MFqs9Vq7Sz3WNZCNNIqkcR02+tkQkYPAsikfEEwBM3iXAl98Ta2e1G6Fq6EIF+x9l45BeEqicsCnowSnJJOVqw7TXzjcscwLzwxItsB+frB7/zbQC5MZu3dQNHL4gvQSdH1yUciX0hXvbkKBJKSMsasa3eYpJKQnPDZNznI18eMGXxqZukR3rBQHYuhDCHY+qsKtkJ4r0jiC1ODdTucAIOsfqqE0X/P8B2DIfl6nh2+gCm9sxj2cOqz5i+kuXVH1EYzYK6T5csulQ7i4m5pDF5FtxNvu0PJCfLFz9eXH0vBXUBGw/msa5g4mOfVh3jehvkW2jNwvAJvNJYv9OXHe6v4NIUkUcIsMTYklDeCyQn9t+1MqqM+7ZruhF6lUmOzCF55iLXag3iFUp8xfEnKXv1gTM174hDDuJ40VhQppRG/v5qd45E0sCvVolTVTq4ebmmCT7Z4gh1GE9RG0FJH+aL6VhJLaS3TBQnmsGJzqNFSGvn0xYmHvmQo6Yp81Sqvjg63BE1jXV7BQjb8iYpXlC9q6Kn0pPOFdY/YpCCNxNTQ04R8pmRt//E8S/E28FU71jSn1dIz9oLbAlaESSErPHoQ5QtaTEp28sQHfhPkdYwYC0asaClN7v/5n//1MUtsOXxteaUzryLkOaza14qohgtdUb5azXpzL9F2+QQspss8tpRGbVpqRHAfcPjy9wD4sqpOU+ZJVB3j7FdrFT8MGRCwzZixIur9xZXSQi5sJsDli9cy/E1ybpICzFc4pRJ7Pt6cbgV3NqTb+us3T95Um9FjgIb/d50I/OFw9ZGrIHfp3YK2UNyqiZYd1ovk+PEGhbRDc5G8L3ozonlkrpoZU0effHltTF4C2ql31aK50W/nKzhWJL92Vfh1WB9JI3v1SM/e8/ja56gyBpGvyCTjN/O1BwYfm5pg/ZV/iC88k0Zi/pvuG/7z0SmZeaQVXe8+ga/Wt/ElmobdqA4Xo35giE8K/oxwiJQJ+Pjy6hpuEyHz7r8/X7hIxjSNbsX/D4QEDDJi06wlVl1/wisDcb10DwGw943vxhdUiobDeUM0DMO0gg5IgB0IKe8wD/hzEJQvVyHdZkl8uhYzWfzNfOH5COZrozNaDINfDPI1zZ77FTgfPXvvq2iDv1qxoqsRvpUvaAww8N+CWlBwKC04VAsFo8wV0oJ8eYaet6nCM5CeiGhGLF/J/Tnud+wEGsFCQ7VBvuYZ7GZlfGlu7OP69J5GYutl5KSK40vaXKWH28zc+2LRIF9Be5/JdjDgq3Luz+XwY9FNRqODL6o3y5e0apbqNxAm1QN1W3ngM/ihJQrkmxbK/GBg/gtzhefHjxln7vCLK3LaCTVgi5j8V5AvcN3rB+n5r1UpGD7KA2/oMTiVBv0U2ev+haqyk4tu1yqvzjXXnXDDSajVtmE+I/jCGPlaQsksNb9agFGigFNFJWwXvrCrvA7a9ky6Xxv6ouuUOjAtXTv0Z1jdeofQDlXT4u2XctZsLqVCstHHGXgrdObpv4yV8ZvXkezXZSa7pUlnUW1Y1HVkCxOu/J2YbmchrvoyAy5F7PmotPaVgrKzn7TkCibVwooNuejmSVTxMul+bTil2v5oOp8ZFpUwzfMnuLmHv2F5R8DHj/e/qGiBkMWvbcK+inDdZCMpDwEF3AzSxSDjFAGOi/pKj4Krm9GCbZK/ivXtuLy0pMDgqKVGM4AJfPXUO60r+vkACnB5HO9Y9ULIIuTwRcNHWKJ/L/GJmFDutYU9c3HlbepoRcLTpGezBGj2tU60cEMAM2VY4jbmbrUmma8xTGzXm3uUMW8pa+uMTVzFre9I4CuD2ZwQdNWZ3/bl83nMXRSo4ySaM76xKTl+lArYLVdvni73seG30FrZ2ACmqrFrkmP5kvvdzA9foUIeecGRlxGDKPIxEGYZQ504wz5J8bZEDTvOYME4kW3Xm06DoTqL30xI7Ggr8MaH/76qLW69reh+gNNDNdez9z1gk47wDHrJTeuiT3QZ+YrbvQpQ9k+bkfbVhE4TWIoY5mvwfjKZaMXr3zO+iKI8s9g+NF93Ds/zQGLnK3b8mt3GtCOn5nOoeT+D7mhnxA//Thx2iQSKg+sJs6CTd9kmDHYEWG23EcBNIfI8tXYs4rgCjBbDvEJK/ktSpJ3VqU1VsmSf2ti9mlRLLJtBvga/T7i7PLn+EP+ajIBQrQGXwvVTXVFzJEw7t9oW17BEfXSPRegHg6HuZlr7fegkhGE/V6q94e5MQsdxvsfh/hzfeakVD1/V2myCiMnXjTlCZwY3sfYa5EsevPfVEoqTrAsYFYQrjQ+kRctGMPooHB69EisOX9J4fyzd0DfB2nLio0FZJl21Wub3W8j919f+rpfJ28wGRQBYqO0ERS5j3NP3wkkYgYR5UcqXtNmkOCiwsdGE6Vq27feCCREb4tYdfvSNfsdQe4thtdprzETVMP567KVGBGHyMtMKWe6pbKDP13Xiq+C6OYsi5wt3l0CbnLJXKokHe5uxXSfKqg6RNhOgfmd0ubgYVudAECylgAPE5PdbmH95kRj9idmWLzI1cMdJwJvwPvG8MrZPAfg6w+mEM2bTYbbqNGbgXcIVMXMmQAbeVeReAAL7EeFZVZw1etXqcMr/r5g+3jclacD90G4I6TU0cbnyJRE5X9L4zBab9hhXMonOHEwkAcYWdnB+TNx0Ylh2ozen/ExNtdrvy+4NPV5BjyLTLitbp4D75FyNcE2954/BB5CjZvbeMVugj03HRY0mwHAemQnQxXRx2YFNOtzG9w3Tv3mZ+RPOgZzp4xHm08Taua9QFKjjun0CgpPTD/qrlLRxa3mAgVDpNORlYJm2X3b6cmBTk1cjCifqYVTZkbBMO/i4DqbySvMK3Z599xkz9lGUrwLWa5V9zNzU7RBhpUQHH/gKhkqDD9ds21Wm6ZJ1zOD70xJBu+X2aMKnaL/i+r9o6IgJsEBhDe1XQnU/yhfo5PV1cSK8zTBdzvKcY83vLQpu1cOz/r7zMb5fTiochDvxoc03aRs+8BXpw4HZ7g/h9YaZgj4CbXRcCcEVK++k8mmp4PhfCf2FEjplTd9XsQ0goVkwk31LNwP3F0Iyx7VR3GX0vFbfYxpfMFklBkq3sEw6ofoqk9Gff2aw0HgT5L5qsdPR9Um5BROiHN6wTxQDxpJ7nQC6q7FzQ7r+8fOnL//z+ZZLprMEuW9xwooBA+baeG7xsUfgKH1fLbRdutd7KDDIF1ft0T9vb2/jBoDf+j//Hf8/ofdFRphfsorYhOLrxufy9bXiE6CogGEZ0vE3cHutEWejyK/ujONv6ydhlDDVJ2Es33X+6mGRL5B2nXxWkEzhC1NezvVE0hgKtXG9XP6p0C/rx5ePMF4UEl7VrLZ1qGlcJ53TEuUr7b4T8CCYDyaNcc1HXPaL+IeOX2S8ehYHlzAnSDxuw14AsfbsWNMC0RHjK/l6K6aQJQVqReC+GnG1RGq9MjrUfmvIfZtLGNXCr2xhDtWm2sm5wGUMKbuJL9yQ1hwraLtEM9b30j8FlgCsoQXzE6ZtiXh9x6zXZdedfD3GqVKmqshX6n1NNiSsN7HWbTZipz49a498fV5HvmiM5xD2kK0XqurlEbtOp1Jrfz187AQA4E84G8gT+AIfv45pHF/bRRCZXTJxF8gbM8pOBa8fUtURfas6GTW6wJhVadeO2GEA/mpqs6piO/lD1Zgm1PXJCz9fD9ZSvDY4YSgYPef2Sp10qiq7s8kphmBPa1qzquI0TXR7ide9B+z99v+uK1+cMNVgt4Gx54h+Obcgu3/o3jcnNm+8T8dodFIG1uUHHmHbWRulvQNkeWZavtvmGHRCRgaUv1HA4D7DlAI3u0+nOyynsSDrnxzCtv94vrbitQGEzWcXMYJBVFioxgIiMXXhI7sO7MbbrcjHL9uAz9lam3BnyCQ2Y0AaFrQEY0L6KM2hYBXtW9yeJuufn3/+7W91ya8P0PWF61nhXiKqkPUkviB8jOz4iIcu639Ttlg/Cm5LhhPyGWxEjicMr0fO4HjGzwYsaK04QzNsRV8hvoUVnYk1DKC/M2DjKKzsYxp5RS2YHUOYVMDNaGuYZP7uILhTjeMEei0j7RIKLpKL3/P1TwNuAH7IcQWBePOsEFztuIR+aDPjwwY/CXBAihUO1plZr68KzuZQSVF4RiKzS59/KrDqFkG9dLpsjcfj1uYe24PcTcpI/NMgb9hdIwTVafxqNp3Vx3AN9X3/olmBrHfCqHZVyydsplFNzEj8EyGHQfpD0XD6Bc2uPeznupgOGmx2FtV5rzcfLvokZ+sWkJ1+5/xUzJEjR44cOXLkyJEjR44cOXLkyJEjR44cOXLkyJFj7fB/Ivn3g6RRyI8AAAAASUVORK5CYII=;" vertex="1" parent="1">
          <mxGeometry x="852.63" y="371" width="96.74" height="53" as="geometry" />
        </mxCell>
        <mxCell id="vGYlYMv7PQgS3ZWnSqrj-4" value="" style="shape=image;verticalLabelPosition=bottom;labelBackgroundColor=default;verticalAlign=top;aspect=fixed;imageAspect=0;image=data:image/png,iVBORw0KGgoAAAANSUhEUgAAAOEAAADhCAMAAAAJbSJIAAABI1BMVEXu7u7///8AAACJS6L/21Y/yPL39/fx8fHFxcUiIiL09PTf39/Y2NiNTadoaGhuPYNUVFSzs7M/IkqdnZ3Ozs6tra2CgoIA2cCPj4//4FgTEAZISEgxKhFwcHDtzFAyMjJ2QYwjcIg0pMekjTcVQU+jd7YAz7cAU0p7e3s9weoUCxhBOBZfX1+8vLzl5eUQEBA3NzcAaV2BRpgiEygpKSlZMGliNnQ5MRNCQkJPK10sGDQ3HkEdECJxYSa7oD/hwUxMQRrKrUQRNkILIyogZ33/2kwKgXKYgzXNsEVeUB+QfDEMBg2NZp4vIDZ8WYtdQ2gogZsaU2U4sdZ+bCsvlLQkHwxkViENKDBxZkL15rX833rw7OD64Y793WT38NeblX4AKCSpEH0yAAAMSElEQVR4nO2deUPjuBnGHUNsx3FIQo4aslwztA1HHBoCA8MSGHbZGZgeswzTdttu2+//KZpYki1bkg/FMjL1889MFGPrF13v++qwUslLmtUbDmpjdVwbDHuWlttzlZyeYwzVoIZGTk/Oh7B9opI6aefy7DwIuzS+hXa6OTw9B8Jw/QzUVfGPF07oXEQAquqFIzoDogmtsU9zenm+O5lMds8vT/3EcV1wDgQTWh7J57NJo9FYWWj+7+Tss/eNJTYLYgkVD+NsBdAhNVbOvO/EVlSxhKgTfT8J8rmMk/do2BCaB6GEqBe9JPlcxss8elSRhAaqoXTAOSKqqSLtG5GEU6IEG0BEKU4F5kIgYRuOEQ0Pb/fy/enp6dXZrgfZgG1RoAEnkLAGMj9BME1/FDxtIsQJSKiJy4Y4QiPUCK8CtsxVqCmKa4niCNfcnB+isjpVgzpFZXvoflwTlg9hhPo40M2EAeeIgc5mrIvKiDDCLuDYBRjrBKCqrgP4XfBJmCMljNB28/19gEJVr2efZtfoA6T/3v1gi8qIMMItrJKiMeFoe2Oh7Vvw8X0Dq6ZbojKyDGF91GMLDPfneBEerW6sLrSxegQSQGdz7v5/GnGv0TIeFjehY1OaFqFdjEG9AYBzxBsV428muZHN7YDwEibig4Swn3lAgHPEBzcF9DW7UTfAGHMl1AbJcgXqIWyGHzHCj27KVQMza2I14IuxchFqrOAZIbyjmWGEMzcFdjVJb3bBhchFuJU0T2dgPAAG2yNG+OimgDLEvP0YcfW3PITI71MPr9YjBe1rOB7cYoRgvIAGT6MZfZurQ/RAHuuVhxD6fYdN5O8xBQ0z2Jd+8PrSDyDhHF0Qd5smZNzJhxDGz05XEgv2JZtwuNjY3gQJk/g/RYJ2LUdcjoPQTp09zyydrc5NmtUZ/LTOim6wfySOIYODcJA6e/6A8O768fod+pDiN0I/0iAXwlqgDSXLH627ZAaoqHeAtl2OhLspsjcX6T6tp7sBsHw4oh15ERKIKQELQIiGDKhUlbwYhCuNySWajfl8SYnyF59wMRvTPJubKGfNldR8IgidTp+hMS/hCrReuP4SEI5Zmeow/UcWoT/xxxAfIb9ivUiWucMibBWOsJWOUKsVjrDG8B5LwtdOeLxFarhMX7os4XhIydHxEoRdzSTEPx5mQFirkBnSuksQGrpCSHtRQo3MkG6UhCXh/y0hn3nJq0b+hOdNXESJNiZucjgUA5J5dJ47YUiHIUbk0jcDRe2tguLVCxKqhzgKFnnCS7GRaCJNVkL1j7/F9Ccv+c948l+KQbhDf7iD2T+VYy/ZwJK1hLOObO3kQWj2qM9e08iHznURyEt9WcKemQPhHJEsxXE/dM0ILO/ecgJ30LuxnnWUdmiAAggVUyMVfrQOk3VqMq9ogCIIJVNJWBLKr5KwJJRfJWFJKL9KwpJQfpWEJaH8Kh6hDpT8+gIR6voiJmAZo/bIsBxl/inJ8wtDqJtmvd1v+bHKcavftsxwHITyh8Ug1LV6hxalGnQsLSYThSDUte4xBQ/o2IhmLAChbhrR+zcujKi6mjGhzi1mDk0rfnfDsUUNJAogNK02pyxKPN7Nn0aPoYfVYRZjpoSMiH7CLFKz5wQa4LvH2c1b93/7B89f9vGvWg4DMUvC5eYdurRJEGvqX3A7c/cnQsLqQs8/+1/XuvSamimhoS6hNkloYje8vtlwt2MECKvVpz3//JeR8Ki+3l2GcEQQmiPvy1vIRxBWqwc/RiNm2w7X+AEHJKBfgrMNb1MUQTgvxzt0nSF+ds1ucaqvhO+le6t0H7b9TV80wmp1D11KacwZE9Jm1vgmxnQFmaBfVzFAOmH1GV47JXtUaW0ar8Y/4nwswuobePUx+VNJSmh2YJY/BgFZhB4iMa5KSugNrV9DgExCr6LWw/PKchJq0JS5DQOyCVF3cxyy/+Qk9GyH7TBgBGEVWnEjqh0iGaEJ3aUZUYRRhE/gjwYFIERF+EACRhFWv6iUbElJqMGR4iYlYXVMGTFkJETWzDUFMJrwmdKdymjToLGQVoTRhNUf3C8DY2K2hHqH1y618buAqNoRDTCGEIwYJ5RFdC/vW7T8390BKW85CGF3auliCDPyD3V4Vh2NL44QjoltUYRL+fg9dDMTLDOlV9I4QlBNh6Ygwth9l1HyXDsNrMx85CJ843470MQQ+g4Bh2wvUxpIoNgzCQhBQ5w6gggV0+p1uNTr+r867GhIkzQJIRwvsK4m65g3uXcsmbAcdZcivAtWeRltGpijb5yEP4dzJiEhGCze0QER4Q8HDEIQWxwVgPAomlC9YyACwrbUhKNoQnjEEguxCGUICL9jEK6u3iLEwrbD6L4UR6SV4n4B+tJ6HCE6OVLdpyCKHg+zELRpPtFtmgAiWVEPAE5dHGEGk9xwb1g4FJysLb5xky8EWd4LPotT2MSMCU6j/2sUoV+KoYoKglFroixv3Yp+H0eETvy+Ac2VRwEy2yLoSnvCynAazngKee4A6mo+RBYivS2CZhiYZJPHA8bMEHA6aHQ1pVfUZ0hD5koqQujkR40XrIp65yb0xcXaMqml3pjP8PIjKuob8DkwE5xxT5P49NmwpoGmA6YtNuMKkUAEBs2JwJi3rtX5Bot6YPWd2U5YiKG2CIuwJzSqn82yNh3O4VOj3uy2+DdQHUL3ks9qU/wh8btYwlV0GOidN0UamueWk9Db1U9MckdUVDgtc1KMWW5v4GHEFGmIUET3JychMk6jXQwa4lZ4GaeshIozTYq4gSNOiRtJS+hPESSoqLceIbnsS1pCbDlupKfoliI6Ppp2MIa8hIrmzYIElu5RaukjutDO5eSPDBH901zos6Uu38aHb+iqPm2xuMyEWCmyEDc2Pj1419BKUHJCDJESPl28kmbm9zHUw2mkJ1TMLlrGHURb6OatX3wqfX1wAQgV3QGrH/7+673fcz4+fr3dVAM6dlh7SmQnnDtk7fnDBnXll3/c37uU1yqhWo+9L0h6wnlNdYyuG2z85y//+vX+/hMJaDMLsBiEC6fT//+//5OKryCElAwjtXpKzCbLwhEqurfw6mLYrtNPvwpcXzhCRe/1bbvT7jqKlmQjcAEJwYKPxLu5i0iYTjkTJtw3mqVyJdTNroHJit9qnoHyJCTmNaZWHkZRjoQOYYxcxPb1yytHQn1EEKo5FGKehG2SkLb5N2OVhAIIN129YkIQj7jZfMWEi5gSegPg6yVcJQiFGTuSEJrBpUYO45SM4hKabf9kBFfD7EwBKQgpm22o0V09IXfA3pWC0OwThCeUemq2W4NE2hK17ylLwh2yuFKcDSNy9aVIwhSLdbBKXiBChfFOApqGchL+ePD09HTwzCzDFLsbX2Y3QizhHrY2jUKoO4mXzQ0l7WliCBVdG/USqStsl6xgwuRrygJ/UyhCHpWEPIQ6fWvh6yE0LXuIqY9O4Ho1hGRIDS41ezWEZsgR8q57NYQ6AQjXgbwaQqUkFD/i50P4B1f/zZRQT7gTILB0QRjhb1z9PlPCxM4FvphdGOHvMif0FkYnkNh9wKII5fGARRHqKaIY/UISmilejyh2p7MowuSIU6OYPU2Kk8QER4TFEXKpJCwJS8KSsCQsCUvCzAkXoVIKofvybQ0RLgQJLfebCoVQo7wGKOlpcAKj+qZh29B4/MkV8PHXbFfAgf32caFHEJEbgm/ACQP7X/b29r6Ao6xq89TwYhvd6diJ1BNmtaWx/pModHRA8sNDW4IIlzu/lKKxg9/eTPFa8p4Y/3C5s01oChCmOVdEkI+feRkGCc3otz4F1BHk45vxb2ZKpeD5DymqyIWw80v13nAtMw3Db54xu/2tROrgLzzJ+jzvLMU9Hkp/Jnu2KglLQvnFSQgGX/I1WxIKzrrvpCOsgNMDKa9Kk0/wWK0LBgmLELgJ/cycOIGCzudaSkLgREwLQQhalJ2SEFqgBWiIaPFLNyUh7EzJF95JJ3h+H6srZRLCuAN23r+kQmfc9FkgTEK0W7InN6L3nlYnNSEqxIiXuL68dO91FMwijCCsoMVdA0Mzk65szVWm5r0peczGiCD0X0hyYo+sumyy2ra/ssHiIqxQtvVKqlEERRRhYRCjAKMJK1Yt/vYvrnFEFY0lrGjkZhfZNGQN9ckIK5V6iqVYL6BhPQ4glnBejobdqpHrgl9a41rLNmLKb6H/ATzAUqnXFpHyAAAAAElFTkSuQmCC;" vertex="1" parent="1">
          <mxGeometry x="1110" y="385" width="57" height="57" as="geometry" />
        </mxCell>
        <mxCell id="vGYlYMv7PQgS3ZWnSqrj-6" value="&lt;font style=&quot;font-size: 48px;&quot;&gt;&lt;b style=&quot;&quot;&gt;&lt;u&gt;ON-PREMISE&lt;/u&gt;&lt;/b&gt;&lt;/font&gt;" style="text;html=1;align=center;verticalAlign=middle;whiteSpace=wrap;rounded=0;rotation=-90;" vertex="1" parent="1">
          <mxGeometry x="-513.07" y="253" width="427.87" height="69" as="geometry" />
        </mxCell>
      </root>
    </mxGraphModel>
  </diagram>
</mxfile>
